<svg xmlns="http://www.w3.org/2000/svg" width="80" height="80" viewBox="0 0 80 80"><defs><style>.a{fill:#fff;}</style></defs><g transform="translate(-319.995 -320)"><g transform="translate(319.995 320)"><path class="a" d="M360,320a40,40,0,1,0,40,40,40,40,0,0,0-40-40Zm0,77.332A37.333,37.333,0,1,1,397.328,360,37.333,37.333,0,0,1,360,397.332Zm0,0" transform="translate(-319.995 -320)"/></g><path class="a" d="M472,590H453.333A1.334,1.334,0,0,0,452,591.333V602a1.334,1.334,0,0,0,1.333,1.333H472A1.334,1.334,0,0,0,473.333,602V591.333A1.334,1.334,0,0,0,472,590Zm-1.333,10.667h-16v-8h16Zm0,0" transform="translate(-102.671 -210.001)"/><path class="a" d="M383.333,350A33.363,33.363,0,0,0,350,383.333a1.334,1.334,0,0,0,1.333,1.333H362a1.334,1.334,0,0,0,1.333-1.333,19.992,19.992,0,0,1,32.653-15.48l-8.653,7.067a9.386,9.386,0,1,0,4.413,4.413l7.067-8.654a19.9,19.9,0,0,1,4.52,12.653,1.334,1.334,0,0,0,1.333,1.333h10.667a1.334,1.334,0,0,0,1.333-1.333A33.363,33.363,0,0,0,383.333,350Zm-22.626,32h-8.013a30.57,30.57,0,0,1,3.44-12.826l6.96,4.013A22.308,22.308,0,0,0,360.707,382Zm3.72-11.12-6.947-4.014a30.76,30.76,0,0,1,9.386-9.386l4,6.933a22.881,22.881,0,0,0-6.439,6.467ZM382,360.733a22.517,22.517,0,0,0-8.813,2.346l-4.013-6.946A30.57,30.57,0,0,1,382,352.694ZM383.333,390a6.667,6.667,0,0,1,0-13.333,7.281,7.281,0,0,1,1.614.2l-4.347,3.547a.64.64,0,0,0-.093.094,4,4,0,1,0,5.653,5.653.64.64,0,0,0,.094-.093l3.547-4.347a7.274,7.274,0,0,1,.2,1.614A6.665,6.665,0,0,1,383.333,390Zm.906-5.68a1.389,1.389,0,0,1-1.853-.04,1.32,1.32,0,0,1-.386-.947,1.351,1.351,0,0,1,.346-.906l10.267-8.374Zm.427-23.586v-8.04a30.57,30.57,0,0,1,12.826,3.44l-4.013,6.946a22.517,22.517,0,0,0-8.813-2.346Zm17.573,10.146a22.289,22.289,0,0,0-1.72-2.293l2.507-3.08a1.326,1.326,0,0,0-1.867-1.867l-3.093,2.52a23.958,23.958,0,0,0-2.266-1.747l4-6.933a30.759,30.759,0,0,1,9.386,9.386Zm3.72,11.12a22.308,22.308,0,0,0-2.387-8.813l6.96-4.013A30.571,30.571,0,0,1,413.972,382Zm0,0" transform="translate(-23.337 -23.333)"/><path class="a" d="M558,542a4,4,0,1,0,4,4,4,4,0,0,0-4-4Zm0,5.333A1.333,1.333,0,1,1,559.334,546,1.333,1.333,0,0,1,558,547.333Zm0,0" transform="translate(-182.005 -172.667)"/><path class="a" d="M606,542a4,4,0,1,0,4,4,4,4,0,0,0-4-4Zm0,5.333A1.333,1.333,0,1,1,607.334,546,1.334,1.334,0,0,1,606,547.333Zm0,0" transform="translate(-219.339 -172.667)"/><path class="a" d="M414,542a4,4,0,1,0,4,4,4,4,0,0,0-4-4Zm0,5.333A1.333,1.333,0,1,1,415.334,546,1.334,1.334,0,0,1,414,547.333Zm0,0" transform="translate(-70.005 -172.667)"/><path class="a" d="M366,542a4,4,0,1,0,4,4,4,4,0,0,0-4-4Zm0,5.333A1.333,1.333,0,1,1,367.334,546,1.334,1.334,0,0,1,366,547.333Zm0,0" transform="translate(-32.671 -172.667)"/><rect class="a" width="2.539" height="2.539" transform="translate(351.104 372.693)"/><rect class="a" width="6.348" height="2.539" transform="translate(356.183 372.693)"/><rect class="a" width="1.27" height="2.539" transform="translate(366.34 372.693)"/></g></svg>