<svg xmlns="http://www.w3.org/2000/svg" width="24" height="24" viewBox="0 0 24 24"><defs><style>.a{fill:#fff;}</style></defs><path class="a" d="M790.125,358.879v-.754a10.125,10.125,0,0,0-20.25,0v.754a2.583,2.583,0,0,0-1.875,2.48v3.75a2.581,2.581,0,0,0,2.578,2.578h2.813a.7.7,0,0,0,.7-.7v-8.859a5.906,5.906,0,0,1,11.813,0v8.859a.7.7,0,0,0,.7.7h1.172v.8a.7.7,0,0,1-.7.7h-4.621a2.113,2.113,0,0,0-1.988-1.406h-.937a2.109,2.109,0,1,0,0,4.219h.938a2.113,2.113,0,0,0,1.988-1.406h4.621a2.112,2.112,0,0,0,2.109-2.109v-.8h.234A2.581,2.581,0,0,0,792,365.109v-3.75a2.583,2.583,0,0,0-1.875-2.48Zm-9.656,11.714h-.937a.7.7,0,0,1,0-1.406h.938a.7.7,0,0,1,0,1.406Zm-7.781-4.312h-2.109a1.173,1.173,0,0,1-1.172-1.172v-3.75a1.173,1.173,0,0,1,1.172-1.172h2.109ZM780,350.813a7.321,7.321,0,0,0-7.312,7.312v.656h-1.406v-.656a8.719,8.719,0,1,1,17.437,0v.656h-1.406v-.656A7.321,7.321,0,0,0,780,350.813Zm10.594,14.3a1.173,1.173,0,0,1-1.172,1.172h-2.109v-6.094h2.109a1.173,1.173,0,0,1,1.172,1.172Zm0,0" transform="translate(-768 -348)"/><path class="a" d="M894.389,491.838a.675.675,0,0,0,1.106-.518v-1.574h.225a1.576,1.576,0,0,0,1.574-1.574v-3.6A1.576,1.576,0,0,0,895.72,483h-5.4a1.576,1.576,0,0,0-1.574,1.574v3.6a1.576,1.576,0,0,0,1.574,1.574h1.554Zm-4.29-3.666v-3.6a.225.225,0,0,1,.225-.225h5.4a.225.225,0,0,1,.225.225v3.6a.225.225,0,0,1-.225.225h-.9a.674.674,0,0,0-.675.675v.808l-1.592-1.326a.674.674,0,0,0-.432-.156h-1.8a.225.225,0,0,1-.225-.225Zm0,0" transform="translate(-881.022 -474.343)"/><path class="a" d="M936.223,529.349a.675.675,0,1,0,0-1.349h-1.8a.675.675,0,1,0,0,1.349Zm0,0" transform="translate(-923.324 -516.722)"/></svg>