<svg id="Capa_1" data-name="Capa 1" xmlns="http://www.w3.org/2000/svg" xmlns:xlink="http://www.w3.org/1999/xlink" viewBox="0 0 1280 1489.5"><defs><style>.cls-1,.cls-7,.cls-8{fill:none;}.cls-2{clip-path:url(#clip-path);}.cls-3{fill:url(#Degradado_sin_nombre_62);}.cls-4{fill:#fff;}.cls-5,.cls-9{fill:#0383d1;}.cls-6{filter:url(#Oval);}.cls-7,.cls-8,.cls-9{stroke:#2ea6ff;}.cls-7{stroke-miterlimit:10;stroke-width:4px;}.cls-8{stroke-miterlimit:10;stroke-width:4px;}</style><clipPath id="clip-path"><rect class="cls-1" width="1280" height="1489.5"/></clipPath><linearGradient id="Degradado_sin_nombre_62" x1="-377.44" y1="935.3" x2="377.44" y2="533.93" gradientUnits="userSpaceOnUse"><stop offset="0.46" stop-color="#0d98e2"/><stop offset="1" stop-color="#0068b5"/></linearGradient><filter id="Oval" x="404" y="506" width="268" height="268" name="Oval"><feOffset dx="40" dy="2"/><feGaussianBlur result="blur-2" stdDeviation="40"/><feFlood flood-opacity="0.5"/><feComposite operator="in" in="blur-2"/><feComposite in="SourceGraphic"/></filter></defs><g id="_02_About_Expertise" data-name=" 02 About Expertise"><g class="cls-2"><g id="Background-2"><path id="Rectangle-9" class="cls-3" d="M-441.23,663-70.71,287.53a99.08,99.08,0,0,1,141.42,0L441.23,663c39.06,39.57,39.06,103.73,0,143.3L70.71,1181.71a99.08,99.08,0,0,1-141.42,0L-441.23,806.27C-480.29,766.7-480.29,702.54-441.23,663Z"/><g id="Ornament_Dotted_white" data-name="Ornament Dotted white"><g id="Ornament_Dotted_white-2" data-name="Ornament Dotted white-2"><path id="Fill_1" data-name="Fill 1" class="cls-4" d="M65.94,505.08a2.47,2.47,0,1,1-2.47-2.5h0a2.48,2.48,0,0,1,2.47,2.5"/><path id="Fill_3" data-name="Fill 3" class="cls-4" d="M90.67,505.08a2.48,2.48,0,1,1-2.48-2.5h0a2.49,2.49,0,0,1,2.48,2.5"/><path id="Fill_5" data-name="Fill 5" class="cls-4" d="M115.39,505.08a2.48,2.48,0,1,1-2.47-2.5h0a2.49,2.49,0,0,1,2.47,2.5"/><path id="Fill_7" data-name="Fill 7" class="cls-4" d="M140.11,505.08a2.47,2.47,0,1,1-2.47-2.5h0a2.49,2.49,0,0,1,2.47,2.5"/><path id="Fill_9" data-name="Fill 9" class="cls-4" d="M164.83,505.08a2.47,2.47,0,1,1-2.47-2.5h0a2.48,2.48,0,0,1,2.47,2.5"/><path id="Fill_11" data-name="Fill 11" class="cls-4" d="M189.55,505.08a2.47,2.47,0,1,1-2.47-2.5h0a2.48,2.48,0,0,1,2.47,2.5"/><path id="Fill_13" data-name="Fill 13" class="cls-4" d="M214.28,505.08a2.48,2.48,0,1,1-2.48-2.5h0a2.49,2.49,0,0,1,2.48,2.5"/><path id="Fill_15" data-name="Fill 15" class="cls-4" d="M239,505.08a2.47,2.47,0,1,1-2.47-2.5h0a2.49,2.49,0,0,1,2.47,2.5"/><path id="Fill_17" data-name="Fill 17" class="cls-4" d="M65.94,530.13a2.47,2.47,0,1,1-2.47-2.5h0a2.48,2.48,0,0,1,2.47,2.5"/><path id="Fill_19" data-name="Fill 19" class="cls-4" d="M90.67,530.13a2.48,2.48,0,1,1-2.48-2.5h0a2.49,2.49,0,0,1,2.48,2.5"/><path id="Fill_21" data-name="Fill 21" class="cls-4" d="M115.39,530.13a2.48,2.48,0,1,1-2.47-2.5h0a2.49,2.49,0,0,1,2.47,2.5"/><path id="Fill_23" data-name="Fill 23" class="cls-4" d="M140.11,530.13a2.47,2.47,0,1,1-2.47-2.5h0a2.49,2.49,0,0,1,2.47,2.5"/><path id="Fill_25" data-name="Fill 25" class="cls-4" d="M164.83,530.13a2.47,2.47,0,1,1-2.47-2.5h0a2.48,2.48,0,0,1,2.47,2.5"/><path id="Fill_27" data-name="Fill 27" class="cls-4" d="M189.55,530.13a2.47,2.47,0,1,1-2.47-2.5h0a2.48,2.48,0,0,1,2.47,2.5"/><path id="Fill_29" data-name="Fill 29" class="cls-4" d="M214.28,530.13a2.48,2.48,0,1,1-2.48-2.5h0a2.49,2.49,0,0,1,2.48,2.5"/><path id="Fill_31" data-name="Fill 31" class="cls-4" d="M239,530.13a2.47,2.47,0,1,1-2.47-2.5h0a2.49,2.49,0,0,1,2.47,2.5"/><path id="Fill_33" data-name="Fill 33" class="cls-4" d="M65.94,555.18a2.47,2.47,0,1,1-2.47-2.5h0a2.48,2.48,0,0,1,2.47,2.5"/><path id="Fill_35" data-name="Fill 35" class="cls-4" d="M90.67,555.18a2.48,2.48,0,1,1-2.48-2.5h0a2.49,2.49,0,0,1,2.48,2.5"/><path id="Fill_37" data-name="Fill 37" class="cls-4" d="M115.39,555.18a2.48,2.48,0,1,1-2.47-2.5h0a2.49,2.49,0,0,1,2.47,2.5"/><path id="Fill_39" data-name="Fill 39" class="cls-4" d="M140.11,555.18a2.47,2.47,0,1,1-2.47-2.5h0a2.49,2.49,0,0,1,2.47,2.5"/><path id="Fill_41" data-name="Fill 41" class="cls-4" d="M164.83,555.18a2.47,2.47,0,1,1-2.47-2.5h0a2.48,2.48,0,0,1,2.47,2.5"/><path id="Fill_43" data-name="Fill 43" class="cls-4" d="M189.55,555.18a2.47,2.47,0,1,1-2.47-2.5h0a2.48,2.48,0,0,1,2.47,2.5"/><path id="Fill_45" data-name="Fill 45" class="cls-4" d="M214.28,555.18a2.48,2.48,0,1,1-2.48-2.5h0a2.49,2.49,0,0,1,2.48,2.5"/><path id="Fill_47" data-name="Fill 47" class="cls-4" d="M239,555.18a2.47,2.47,0,1,1-2.47-2.5h0a2.49,2.49,0,0,1,2.47,2.5"/><path id="Fill_49" data-name="Fill 49" class="cls-4" d="M65.94,580.24a2.47,2.47,0,1,1-2.47-2.51h0a2.48,2.48,0,0,1,2.47,2.51"/><path id="Fill_51" data-name="Fill 51" class="cls-4" d="M90.67,580.24a2.48,2.48,0,1,1-2.48-2.51h0a2.49,2.49,0,0,1,2.48,2.51"/><path id="Fill_53" data-name="Fill 53" class="cls-4" d="M115.39,580.24a2.48,2.48,0,1,1-2.47-2.51h0a2.49,2.49,0,0,1,2.47,2.51"/><path id="Fill_55" data-name="Fill 55" class="cls-4" d="M140.11,580.24a2.47,2.47,0,1,1-2.47-2.51h0a2.49,2.49,0,0,1,2.47,2.51"/><path id="Fill_57" data-name="Fill 57" class="cls-4" d="M164.83,580.24a2.47,2.47,0,1,1-2.47-2.51h0a2.48,2.48,0,0,1,2.47,2.51"/><path id="Fill_59" data-name="Fill 59" class="cls-4" d="M189.55,580.24a2.47,2.47,0,1,1-2.47-2.51h0a2.48,2.48,0,0,1,2.47,2.51"/><path id="Fill_61" data-name="Fill 61" class="cls-4" d="M214.28,580.24a2.48,2.48,0,1,1-2.48-2.51h0a2.49,2.49,0,0,1,2.48,2.51"/><path id="Fill_63" data-name="Fill 63" class="cls-4" d="M239,580.24a2.47,2.47,0,1,1-2.47-2.51h0a2.49,2.49,0,0,1,2.47,2.51"/><path id="Fill_65" data-name="Fill 65" class="cls-4" d="M65.94,605.29a2.47,2.47,0,1,1-2.47-2.51h0a2.48,2.48,0,0,1,2.47,2.51"/><path id="Fill_67" data-name="Fill 67" class="cls-4" d="M90.67,605.29a2.48,2.48,0,1,1-2.48-2.51h0a2.49,2.49,0,0,1,2.48,2.51"/><path id="Fill_69" data-name="Fill 69" class="cls-4" d="M115.39,605.29a2.48,2.48,0,1,1-2.47-2.51h0a2.49,2.49,0,0,1,2.47,2.51"/><path id="Fill_71" data-name="Fill 71" class="cls-4" d="M140.11,605.29a2.47,2.47,0,1,1-2.47-2.51h0a2.49,2.49,0,0,1,2.47,2.51"/><path id="Fill_73" data-name="Fill 73" class="cls-4" d="M164.83,605.29a2.47,2.47,0,1,1-2.47-2.51h0a2.48,2.48,0,0,1,2.47,2.51"/><path id="Fill_75" data-name="Fill 75" class="cls-4" d="M189.55,605.29a2.47,2.47,0,1,1-2.47-2.51h0a2.48,2.48,0,0,1,2.47,2.51"/><path id="Fill_77" data-name="Fill 77" class="cls-4" d="M214.28,605.29a2.48,2.48,0,1,1-2.48-2.51h0a2.49,2.49,0,0,1,2.48,2.51"/><path id="Fill_79" data-name="Fill 79" class="cls-4" d="M239,605.29a2.47,2.47,0,1,1-2.47-2.51h0a2.49,2.49,0,0,1,2.47,2.51"/><path id="Fill_81" data-name="Fill 81" class="cls-4" d="M65.94,630.34a2.47,2.47,0,1,1-2.47-2.51h0a2.48,2.48,0,0,1,2.47,2.51"/><path id="Fill_83" data-name="Fill 83" class="cls-4" d="M90.67,630.34a2.48,2.48,0,1,1-2.48-2.51h0a2.49,2.49,0,0,1,2.48,2.51"/><path id="Fill_85" data-name="Fill 85" class="cls-4" d="M115.39,630.34a2.48,2.48,0,1,1-2.47-2.51h0a2.49,2.49,0,0,1,2.47,2.51"/><path id="Fill_87" data-name="Fill 87" class="cls-4" d="M140.11,630.34a2.47,2.47,0,1,1-2.47-2.51h0a2.49,2.49,0,0,1,2.47,2.51"/><path id="Fill_89" data-name="Fill 89" class="cls-4" d="M164.83,630.34a2.47,2.47,0,1,1-2.47-2.51h0a2.48,2.48,0,0,1,2.47,2.51"/><path id="Fill_91" data-name="Fill 91" class="cls-4" d="M189.55,630.34a2.47,2.47,0,1,1-2.47-2.51h0a2.48,2.48,0,0,1,2.47,2.51"/><path id="Fill_93" data-name="Fill 93" class="cls-4" d="M214.28,630.34a2.48,2.48,0,1,1-2.48-2.51h0a2.49,2.49,0,0,1,2.48,2.51"/><path id="Fill_95" data-name="Fill 95" class="cls-4" d="M239,630.34a2.47,2.47,0,1,1-2.47-2.51h0a2.49,2.49,0,0,1,2.47,2.51"/><path id="Fill_97" data-name="Fill 97" class="cls-4" d="M65.94,655.39a2.47,2.47,0,1,1-2.47-2.51h0a2.48,2.48,0,0,1,2.47,2.51"/><path id="Fill_99" data-name="Fill 99" class="cls-4" d="M90.67,655.39a2.48,2.48,0,1,1-2.48-2.51h0a2.49,2.49,0,0,1,2.48,2.51"/><path id="Fill_101" data-name="Fill 101" class="cls-4" d="M115.39,655.39a2.48,2.48,0,1,1-2.47-2.51h0a2.49,2.49,0,0,1,2.47,2.51"/><path id="Fill_103" data-name="Fill 103" class="cls-4" d="M140.11,655.39a2.47,2.47,0,1,1-2.47-2.51h0a2.49,2.49,0,0,1,2.47,2.51"/><path id="Fill_105" data-name="Fill 105" class="cls-4" d="M164.83,655.39a2.47,2.47,0,1,1-2.47-2.51h0a2.48,2.48,0,0,1,2.47,2.51"/><path id="Fill_107" data-name="Fill 107" class="cls-4" d="M189.55,655.39a2.47,2.47,0,1,1-2.47-2.51h0a2.48,2.48,0,0,1,2.47,2.51"/><path id="Fill_109" data-name="Fill 109" class="cls-4" d="M214.28,655.39a2.48,2.48,0,1,1-2.48-2.51h0a2.49,2.49,0,0,1,2.48,2.51"/><path id="Fill_111" data-name="Fill 111" class="cls-4" d="M239,655.39a2.47,2.47,0,1,1-2.47-2.51h0a2.49,2.49,0,0,1,2.47,2.51"/><path id="Fill_113" data-name="Fill 113" class="cls-4" d="M65.94,680.44a2.47,2.47,0,1,1-2.47-2.51h0a2.48,2.48,0,0,1,2.47,2.51"/><path id="Fill_115" data-name="Fill 115" class="cls-4" d="M90.67,680.44a2.48,2.48,0,1,1-2.48-2.51h0a2.49,2.49,0,0,1,2.48,2.51"/><path id="Fill_117" data-name="Fill 117" class="cls-4" d="M115.39,680.44a2.48,2.48,0,1,1-2.47-2.51h0a2.49,2.49,0,0,1,2.47,2.51"/><path id="Fill_119" data-name="Fill 119" class="cls-4" d="M140.11,680.44a2.47,2.47,0,1,1-2.47-2.51h0a2.49,2.49,0,0,1,2.47,2.51"/><path id="Fill_121" data-name="Fill 121" class="cls-4" d="M164.83,680.44a2.47,2.47,0,1,1-2.47-2.51h0a2.48,2.48,0,0,1,2.47,2.51"/><path id="Fill_123" data-name="Fill 123" class="cls-4" d="M189.55,680.44a2.47,2.47,0,1,1-2.47-2.51h0a2.48,2.48,0,0,1,2.47,2.51"/><path id="Fill_125" data-name="Fill 125" class="cls-4" d="M214.28,680.44a2.48,2.48,0,1,1-2.48-2.51h0a2.49,2.49,0,0,1,2.48,2.51"/><path id="Fill_127" data-name="Fill 127" class="cls-4" d="M239,680.44a2.47,2.47,0,1,1-2.47-2.51h0a2.49,2.49,0,0,1,2.47,2.51"/></g></g><g id="Ornament_Dotted_white-3" data-name="Ornament Dotted white-3"><g id="Ornament_Dotted_white-4" data-name="Ornament Dotted white-4"><path id="Fill_1-2" data-name="Fill 1-2" class="cls-5" d="M1020.94,1273.14a2.47,2.47,0,1,1-2.47-2.51h0a2.49,2.49,0,0,1,2.47,2.51"/><path id="Fill_3-2" data-name="Fill 3-2" class="cls-5" d="M1045.67,1273.14a2.48,2.48,0,1,1-2.48-2.51h0a2.5,2.5,0,0,1,2.48,2.51"/><path id="Fill_5-2" data-name="Fill 5-2" class="cls-5" d="M1070.39,1273.14a2.48,2.48,0,1,1-2.47-2.51h0a2.5,2.5,0,0,1,2.47,2.51"/><path id="Fill_7-2" data-name="Fill 7-2" class="cls-5" d="M1095.11,1273.14a2.47,2.47,0,1,1-2.47-2.51h0a2.5,2.5,0,0,1,2.47,2.51"/><path id="Fill_9-2" data-name="Fill 9-2" class="cls-5" d="M1119.83,1273.14a2.47,2.47,0,1,1-2.47-2.51h0a2.49,2.49,0,0,1,2.47,2.51"/><path id="Fill_11-2" data-name="Fill 11-2" class="cls-5" d="M1144.55,1273.14a2.47,2.47,0,1,1-2.47-2.51h0a2.49,2.49,0,0,1,2.47,2.51"/><path id="Fill_13-2" data-name="Fill 13-2" class="cls-5" d="M1169.28,1273.14a2.48,2.48,0,1,1-2.48-2.51h0a2.5,2.5,0,0,1,2.48,2.51"/><path id="Fill_15-2" data-name="Fill 15-2" class="cls-5" d="M1194,1273.14a2.47,2.47,0,1,1-2.47-2.51h0a2.5,2.5,0,0,1,2.47,2.51"/><path id="Fill_17-2" data-name="Fill 17-2" class="cls-5" d="M1020.94,1298.19a2.47,2.47,0,1,1-2.47-2.51h0a2.49,2.49,0,0,1,2.47,2.51"/><path id="Fill_19-2" data-name="Fill 19-2" class="cls-5" d="M1045.67,1298.19a2.48,2.48,0,1,1-2.48-2.51h0a2.5,2.5,0,0,1,2.48,2.51"/><path id="Fill_21-2" data-name="Fill 21-2" class="cls-5" d="M1070.39,1298.19a2.48,2.48,0,1,1-2.47-2.51h0a2.5,2.5,0,0,1,2.47,2.51"/><path id="Fill_23-2" data-name="Fill 23-2" class="cls-5" d="M1095.11,1298.19a2.47,2.47,0,1,1-2.47-2.51h0a2.5,2.5,0,0,1,2.47,2.51"/><path id="Fill_25-2" data-name="Fill 25-2" class="cls-5" d="M1119.83,1298.19a2.47,2.47,0,1,1-2.47-2.51h0a2.49,2.49,0,0,1,2.47,2.51"/><path id="Fill_27-2" data-name="Fill 27-2" class="cls-5" d="M1144.55,1298.19a2.47,2.47,0,1,1-2.47-2.51h0a2.49,2.49,0,0,1,2.47,2.51"/><path id="Fill_29-2" data-name="Fill 29-2" class="cls-5" d="M1169.28,1298.19a2.48,2.48,0,1,1-2.48-2.51h0a2.5,2.5,0,0,1,2.48,2.51"/><path id="Fill_31-2" data-name="Fill 31-2" class="cls-5" d="M1194,1298.19a2.47,2.47,0,1,1-2.47-2.51h0a2.5,2.5,0,0,1,2.47,2.51"/><path id="Fill_33-2" data-name="Fill 33-2" class="cls-5" d="M1020.94,1323.24a2.47,2.47,0,1,1-2.47-2.51h0a2.49,2.49,0,0,1,2.47,2.51"/><path id="Fill_35-2" data-name="Fill 35-2" class="cls-5" d="M1045.67,1323.24a2.48,2.48,0,1,1-2.48-2.51h0a2.5,2.5,0,0,1,2.48,2.51"/><path id="Fill_37-2" data-name="Fill 37-2" class="cls-5" d="M1070.39,1323.24a2.48,2.48,0,1,1-2.47-2.51h0a2.5,2.5,0,0,1,2.47,2.51"/><path id="Fill_39-2" data-name="Fill 39-2" class="cls-5" d="M1095.11,1323.24a2.47,2.47,0,1,1-2.47-2.51h0a2.5,2.5,0,0,1,2.47,2.51"/><path id="Fill_41-2" data-name="Fill 41-2" class="cls-5" d="M1119.83,1323.24a2.47,2.47,0,1,1-2.47-2.51h0a2.49,2.49,0,0,1,2.47,2.51"/><path id="Fill_43-2" data-name="Fill 43-2" class="cls-5" d="M1144.55,1323.24a2.47,2.47,0,1,1-2.47-2.51h0a2.49,2.49,0,0,1,2.47,2.51"/><path id="Fill_45-2" data-name="Fill 45-2" class="cls-5" d="M1169.28,1323.24a2.48,2.48,0,1,1-2.48-2.51h0a2.5,2.5,0,0,1,2.48,2.51"/><path id="Fill_47-2" data-name="Fill 47-2" class="cls-5" d="M1194,1323.24a2.47,2.47,0,1,1-2.47-2.51h0a2.5,2.5,0,0,1,2.47,2.51"/><path id="Fill_49-2" data-name="Fill 49-2" class="cls-5" d="M1020.94,1348.29a2.47,2.47,0,1,1-2.47-2.5h0a2.48,2.48,0,0,1,2.47,2.5"/><path id="Fill_51-2" data-name="Fill 51-2" class="cls-5" d="M1045.67,1348.29a2.48,2.48,0,1,1-2.48-2.5h0a2.49,2.49,0,0,1,2.48,2.5"/><path id="Fill_53-2" data-name="Fill 53-2" class="cls-5" d="M1070.39,1348.29a2.48,2.48,0,1,1-2.47-2.5h0a2.49,2.49,0,0,1,2.47,2.5"/><path id="Fill_55-2" data-name="Fill 55-2" class="cls-5" d="M1095.11,1348.29a2.47,2.47,0,1,1-2.47-2.5h0a2.49,2.49,0,0,1,2.47,2.5"/><path id="Fill_57-2" data-name="Fill 57-2" class="cls-5" d="M1119.83,1348.29a2.47,2.47,0,1,1-2.47-2.5h0a2.48,2.48,0,0,1,2.47,2.5"/><path id="Fill_59-2" data-name="Fill 59-2" class="cls-5" d="M1144.55,1348.29a2.47,2.47,0,1,1-2.47-2.5h0a2.48,2.48,0,0,1,2.47,2.5"/><path id="Fill_61-2" data-name="Fill 61-2" class="cls-5" d="M1169.28,1348.29a2.48,2.48,0,1,1-2.48-2.5h0a2.49,2.49,0,0,1,2.48,2.5"/><path id="Fill_63-2" data-name="Fill 63-2" class="cls-5" d="M1194,1348.29a2.47,2.47,0,1,1-2.47-2.5h0a2.49,2.49,0,0,1,2.47,2.5"/><path id="Fill_65-2" data-name="Fill 65-2" class="cls-5" d="M1020.94,1373.34a2.47,2.47,0,1,1-2.47-2.5h0a2.48,2.48,0,0,1,2.47,2.5"/><path id="Fill_67-2" data-name="Fill 67-2" class="cls-5" d="M1045.67,1373.34a2.48,2.48,0,1,1-2.48-2.5h0a2.49,2.49,0,0,1,2.48,2.5"/><path id="Fill_69-2" data-name="Fill 69-2" class="cls-5" d="M1070.39,1373.34a2.48,2.48,0,1,1-2.47-2.5h0a2.49,2.49,0,0,1,2.47,2.5"/><path id="Fill_71-2" data-name="Fill 71-2" class="cls-5" d="M1095.11,1373.34a2.47,2.47,0,1,1-2.47-2.5h0a2.49,2.49,0,0,1,2.47,2.5"/><path id="Fill_73-2" data-name="Fill 73-2" class="cls-5" d="M1119.83,1373.34a2.47,2.47,0,1,1-2.47-2.5h0a2.48,2.48,0,0,1,2.47,2.5"/><path id="Fill_75-2" data-name="Fill 75-2" class="cls-5" d="M1144.55,1373.34a2.47,2.47,0,1,1-2.47-2.5h0a2.48,2.48,0,0,1,2.47,2.5"/><path id="Fill_77-2" data-name="Fill 77-2" class="cls-5" d="M1169.28,1373.34a2.48,2.48,0,1,1-2.48-2.5h0a2.49,2.49,0,0,1,2.48,2.5"/><path id="Fill_79-2" data-name="Fill 79-2" class="cls-5" d="M1194,1373.34a2.47,2.47,0,1,1-2.47-2.5h0a2.49,2.49,0,0,1,2.47,2.5"/><path id="Fill_81-2" data-name="Fill 81-2" class="cls-5" d="M1020.94,1398.39a2.47,2.47,0,1,1-2.47-2.5h0a2.48,2.48,0,0,1,2.47,2.5"/><path id="Fill_83-2" data-name="Fill 83-2" class="cls-5" d="M1045.67,1398.39a2.48,2.48,0,1,1-2.48-2.5h0a2.49,2.49,0,0,1,2.48,2.5"/><path id="Fill_85-2" data-name="Fill 85-2" class="cls-5" d="M1070.39,1398.39a2.48,2.48,0,1,1-2.47-2.5h0a2.49,2.49,0,0,1,2.47,2.5"/><path id="Fill_87-2" data-name="Fill 87-2" class="cls-5" d="M1095.11,1398.39a2.47,2.47,0,1,1-2.47-2.5h0a2.49,2.49,0,0,1,2.47,2.5"/><path id="Fill_89-2" data-name="Fill 89-2" class="cls-5" d="M1119.83,1398.39a2.47,2.47,0,1,1-2.47-2.5h0a2.48,2.48,0,0,1,2.47,2.5"/><path id="Fill_91-2" data-name="Fill 91-2" class="cls-5" d="M1144.55,1398.39a2.47,2.47,0,1,1-2.47-2.5h0a2.48,2.48,0,0,1,2.47,2.5"/><path id="Fill_93-2" data-name="Fill 93-2" class="cls-5" d="M1169.28,1398.39a2.48,2.48,0,1,1-2.48-2.5h0a2.49,2.49,0,0,1,2.48,2.5"/><path id="Fill_95-2" data-name="Fill 95-2" class="cls-5" d="M1194,1398.39a2.47,2.47,0,1,1-2.47-2.5h0a2.49,2.49,0,0,1,2.47,2.5"/><path id="Fill_97-2" data-name="Fill 97-2" class="cls-5" d="M1020.94,1423.44a2.47,2.47,0,1,1-2.47-2.5h0a2.48,2.48,0,0,1,2.47,2.5"/><path id="Fill_99-2" data-name="Fill 99-2" class="cls-5" d="M1045.67,1423.44a2.48,2.48,0,1,1-2.48-2.5h0a2.49,2.49,0,0,1,2.48,2.5"/><path id="Fill_101-2" data-name="Fill 101-2" class="cls-5" d="M1070.39,1423.44a2.48,2.48,0,1,1-2.47-2.5h0a2.49,2.49,0,0,1,2.47,2.5"/><path id="Fill_103-2" data-name="Fill 103-2" class="cls-5" d="M1095.11,1423.44a2.47,2.47,0,1,1-2.47-2.5h0a2.49,2.49,0,0,1,2.47,2.5"/><path id="Fill_105-2" data-name="Fill 105-2" class="cls-5" d="M1119.83,1423.44a2.47,2.47,0,1,1-2.47-2.5h0a2.48,2.48,0,0,1,2.47,2.5"/><path id="Fill_107-2" data-name="Fill 107-2" class="cls-5" d="M1144.55,1423.44a2.47,2.47,0,1,1-2.47-2.5h0a2.48,2.48,0,0,1,2.47,2.5"/><path id="Fill_109-2" data-name="Fill 109-2" class="cls-5" d="M1169.28,1423.44a2.48,2.48,0,1,1-2.48-2.5h0a2.49,2.49,0,0,1,2.48,2.5"/><path id="Fill_111-2" data-name="Fill 111-2" class="cls-5" d="M1194,1423.44a2.47,2.47,0,1,1-2.47-2.5h0a2.49,2.49,0,0,1,2.47,2.5"/><path id="Fill_113-2" data-name="Fill 113-2" class="cls-5" d="M1020.94,1448.49a2.47,2.47,0,1,1-2.47-2.5h0a2.48,2.48,0,0,1,2.47,2.5"/><path id="Fill_115-2" data-name="Fill 115-2" class="cls-5" d="M1045.67,1448.49a2.48,2.48,0,1,1-2.48-2.5h0a2.49,2.49,0,0,1,2.48,2.5"/><path id="Fill_117-2" data-name="Fill 117-2" class="cls-5" d="M1070.39,1448.49a2.48,2.48,0,1,1-2.47-2.5h0a2.49,2.49,0,0,1,2.47,2.5"/><path id="Fill_119-2" data-name="Fill 119-2" class="cls-5" d="M1095.11,1448.49a2.47,2.47,0,1,1-2.47-2.5h0a2.49,2.49,0,0,1,2.47,2.5"/><path id="Fill_121-2" data-name="Fill 121-2" class="cls-5" d="M1119.83,1448.49a2.47,2.47,0,1,1-2.47-2.5h0a2.48,2.48,0,0,1,2.47,2.5"/><path id="Fill_123-2" data-name="Fill 123-2" class="cls-5" d="M1144.55,1448.49a2.47,2.47,0,1,1-2.47-2.5h0a2.48,2.48,0,0,1,2.47,2.5"/><path id="Fill_125-2" data-name="Fill 125-2" class="cls-5" d="M1169.28,1448.49a2.48,2.48,0,1,1-2.48-2.5h0a2.49,2.49,0,0,1,2.48,2.5"/><path id="Fill_127-2" data-name="Fill 127-2" class="cls-5" d="M1194,1448.49a2.47,2.47,0,1,1-2.47-2.5h0a2.49,2.49,0,0,1,2.47,2.5"/></g></g><g class="cls-6"><ellipse id="Oval-2" class="cls-7" cx="498" cy="646.46" rx="12" ry="12.16"/></g><polygon id="Rectangle-10" class="cls-8" points="110 278.5 124.14 292.83 110 307.16 95.86 292.83 110 278.5"/><path id="Fill_1-3" data-name="Fill 1-3" class="cls-9" d="M69,184.56a8.05,8.05,0,0,1,8,8.1h4a12,12,0,1,0-24,0h4a8.05,8.05,0,0,1,8-8.1"/><path id="Fill_1-4" data-name="Fill 1-4" class="cls-5" d="M190,86.13a12.09,12.09,0,0,0-12,12.16h4a8.06,8.06,0,0,1,8-8.11Z"/></g></g></g></svg>