<svg xmlns="http://www.w3.org/2000/svg" width="24" height="24" viewBox="0 0 24 24"><defs><style>.a{fill:#fff;}</style></defs><path class="a" d="M12,0A12,12,0,1,0,24,12,12,12,0,0,0,12,0Zm0,22.5A10.5,10.5,0,1,1,22.5,12,10.5,10.5,0,0,1,12,22.5Z" transform="translate(0 0)"/><path class="a" d="M136.251,107.508h0a.752.752,0,0,0,0,1.065l1.191,1.186H129.5a1.5,1.5,0,0,0-1.5,1.5v1.5a.75.75,0,0,0,.75.75h0a.75.75,0,0,0,.75-.75v-1.5h7.942l-1.189,1.189a.748.748,0,0,0,0,1.058h0a.748.748,0,0,0,1.058,0l2.471-2.471a.75.75,0,0,0,0-1.058l-2.468-2.468A.752.752,0,0,0,136.251,107.508Z" transform="translate(-122 -102.259)"/><path class="a" d="M138.488,268.4h-7.942l1.313-1.313a.572.572,0,0,0,0-.81l-.248-.248a.572.572,0,0,0-.81,0l-2.6,2.6a.75.75,0,0,0,0,1.057l2.595,2.595a.573.573,0,0,0,.811,0l.248-.248a.573.573,0,0,0,0-.81l-1.314-1.32h8.118a1.325,1.325,0,0,0,1.325-1.325v-1.851a.575.575,0,0,0-.575-.575h-.351a.575.575,0,0,0-.575.575Z" transform="translate(-121.988 -253.396)"/></svg>