<?xml version="1.0" encoding="utf-8"?>
<!-- Generator: Adobe Illustrator 24.2.3, SVG Export Plug-In . SVG Version: 6.00 Build 0)  -->
<svg version="1.1" id="Capa_1" xmlns="http://www.w3.org/2000/svg" xmlns:xlink="http://www.w3.org/1999/xlink" x="0px" y="0px"
	 viewBox="0 0 50 50" style="enable-background:new 0 0 50 50;" xml:space="preserve">
<style type="text/css">
	.st0{fill:#0099F7;}
</style>
<g transform="translate(-319.999 -319.998)">
	<path d="M362.5,368.3V355h0.8c0.5,0,0.8-0.4,0.8-0.8c0,0,0,0,0,0v-3.3c0-0.5-0.4-0.8-0.8-0.8c0,0,0,0,0,0h-9.2v-1.7h0.8
		c0.5,0,0.8-0.4,0.8-0.8c0,0,0,0,0,0v-3.3c0-0.5-0.4-0.8-0.8-0.8c0,0,0,0,0,0h-20c-0.5,0-0.8,0.4-0.8,0.8c0,0,0,0,0,0v3.3
		c0,0.5,0.4,0.8,0.8,0.8c0,0,0,0,0,0h0.8v1.7h-9.2c-0.5,0-0.8,0.4-0.8,0.8c0,0,0,0,0,0v3.3c0,0.5,0.4,0.8,0.8,0.8c0,0,0,0,0,0h0.8
		v13.3h-3.3c-0.5,0-0.8,0.4-0.8,0.8l0,0l0,0c0,0.5,0.4,0.8,0.8,0.8c0,0,0,0,0,0h41.7c0.5,0,0.8-0.4,0.8-0.8l0,0l0,0
		c0-0.5-0.4-0.8-0.8-0.8c0,0,0,0,0,0H362.5z M335.8,368.3h-6.7V355h6.7V368.3z M335.8,353.3h-8.3v-1.7h8.3V353.3z M335.8,345h18.3
		v1.7h-18.3V345z M346.7,368.3h-3.3V365h3.3V368.3z M352.5,368.3h-4.2V365l0,0c0.5,0,0.8-0.4,0.8-0.8c0,0,0,0,0,0l0,0
		c0-0.5-0.4-0.8-0.8-0.8c0,0,0,0,0,0h-6.7c-0.5,0-0.8,0.4-0.8,0.8c0,0,0,0,0,0l0,0c0,0.5,0.4,0.8,0.8,0.8c0,0,0,0,0,0l0,0v3.3h-4.2
		v-20h15V368.3z M360.8,368.3h-6.7V355h6.7L360.8,368.3z M354.2,353.3v-1.7h8.3v1.7H354.2z"/>
	<path class="st0" d="M339.9,350L339.9,350c0.5,0,0.8,0.4,0.8,0.8v0c0,0.5-0.4,0.8-0.8,0.8h0c-0.5,0-0.8-0.4-0.8-0.8v0
		C339.1,350.3,339.5,350,339.9,350z"/>
	<path class="st0" d="M343.2,350L343.2,350c0.5,0,0.8,0.4,0.8,0.8v0c0,0.5-0.4,0.8-0.8,0.8h0c-0.5,0-0.8-0.4-0.8-0.8v0
		C342.4,350.3,342.8,350,343.2,350z"/>
	<path class="st0" d="M346.8,350L346.8,350c0.5,0,0.8,0.4,0.8,0.8v0c0,0.5-0.4,0.8-0.8,0.8h0c-0.5,0-0.8-0.4-0.8-0.8v0
		C345.9,350.3,346.3,350,346.8,350z"/>
	<path class="st0" d="M350.1,350L350.1,350c0.5,0,0.8,0.4,0.8,0.8v0c0,0.5-0.4,0.8-0.8,0.8h0c-0.5,0-0.8-0.4-0.8-0.8v0
		C349.2,350.3,349.6,350,350.1,350z"/>
	<path class="st0" d="M339.9,353.3L339.9,353.3c0.5,0,0.8,0.4,0.8,0.8v0c0,0.5-0.4,0.8-0.8,0.8h0c-0.5,0-0.8-0.4-0.8-0.8v0
		C339.1,353.6,339.5,353.3,339.9,353.3z"/>
	<path class="st0" d="M343.2,353.3L343.2,353.3c0.5,0,0.8,0.4,0.8,0.8v0c0,0.5-0.4,0.8-0.8,0.8h0c-0.5,0-0.8-0.4-0.8-0.8v0
		C342.4,353.6,342.8,353.3,343.2,353.3z"/>
	<path class="st0" d="M346.8,353.3L346.8,353.3c0.5,0,0.8,0.4,0.8,0.8v0c0,0.5-0.4,0.8-0.8,0.8h0c-0.5,0-0.8-0.4-0.8-0.8v0
		C345.9,353.6,346.3,353.3,346.8,353.3z"/>
	<path class="st0" d="M350.1,353.3L350.1,353.3c0.5,0,0.8,0.4,0.8,0.8v0c0,0.5-0.4,0.8-0.8,0.8h0c-0.5,0-0.8-0.4-0.8-0.8v0
		C349.2,353.6,349.6,353.3,350.1,353.3z"/>
	<path class="st0" d="M339.9,356.6L339.9,356.6c0.5,0,0.8,0.4,0.8,0.8l0,0c0,0.5-0.4,0.8-0.8,0.8h0c-0.5,0-0.8-0.4-0.8-0.8l0,0
		C339.1,356.9,339.5,356.6,339.9,356.6z"/>
	<path class="st0" d="M343.2,356.6L343.2,356.6c0.5,0,0.8,0.4,0.8,0.8v0c0,0.5-0.4,0.8-0.8,0.8h0c-0.5,0-0.8-0.4-0.8-0.8v0
		C342.4,356.9,342.8,356.6,343.2,356.6z"/>
	<path class="st0" d="M346.8,356.6L346.8,356.6c0.5,0,0.8,0.4,0.8,0.8v0c0,0.5-0.4,0.8-0.8,0.8h0c-0.5,0-0.8-0.4-0.8-0.8v0
		C345.9,356.9,346.3,356.6,346.8,356.6z"/>
	<path class="st0" d="M350.1,356.6L350.1,356.6c0.5,0,0.8,0.4,0.8,0.8v0c0,0.5-0.4,0.8-0.8,0.8h0c-0.5,0-0.8-0.4-0.8-0.8v0
		C349.2,356.9,349.6,356.6,350.1,356.6z"/>
	<path class="st0" d="M339.9,360.1L339.9,360.1c0.5,0,0.8,0.4,0.8,0.8v0c0,0.5-0.4,0.8-0.8,0.8h0c-0.5,0-0.8-0.4-0.8-0.8v0
		C339.1,360.5,339.5,360.1,339.9,360.1z"/>
	<path class="st0" d="M343.2,360.1L343.2,360.1c0.5,0,0.8,0.4,0.8,0.8v0c0,0.5-0.4,0.8-0.8,0.8h0c-0.5,0-0.8-0.4-0.8-0.8v0
		C342.4,360.5,342.8,360.1,343.2,360.1z"/>
	<path class="st0" d="M346.8,360.1L346.8,360.1c0.5,0,0.8,0.4,0.8,0.8v0c0,0.5-0.4,0.8-0.8,0.8h0c-0.5,0-0.8-0.4-0.8-0.8v0
		C345.9,360.5,346.3,360.1,346.8,360.1z"/>
	<path class="st0" d="M350.1,360.1L350.1,360.1c0.5,0,0.8,0.4,0.8,0.8v0c0,0.5-0.4,0.8-0.8,0.8h0c-0.5,0-0.8-0.4-0.8-0.8v0
		C349.2,360.5,349.6,360.1,350.1,360.1z"/>
	<path class="st0" d="M356.8,356.6h1.4c0.5,0,0.9,0.4,0.9,0.9v0c0,0.5-0.4,0.9-0.9,0.9h-1.4c-0.5,0-0.9-0.4-0.9-0.9v0
		C355.8,357,356.3,356.6,356.8,356.6z"/>
	<path class="st0" d="M356.7,360.1h1.7c0.5,0,0.8,0.4,0.8,0.8v0c0,0.5-0.4,0.8-0.8,0.8h-1.7c-0.5,0-0.8-0.4-0.8-0.8v0
		C355.8,360.5,356.2,360.1,356.7,360.1z"/>
	<path class="st0" d="M356.7,363.4h1.7c0.5,0,0.8,0.4,0.8,0.8v0c0,0.5-0.4,0.8-0.8,0.8h-1.7c-0.5,0-0.8-0.4-0.8-0.8v0
		C355.8,363.8,356.2,363.4,356.7,363.4z"/>
	<path class="st0" d="M331.8,356.6h1.4c0.5,0,0.9,0.4,0.9,0.9v0c0,0.5-0.4,0.9-0.9,0.9h-1.4c-0.5,0-0.9-0.4-0.9-0.9v0
		C330.8,357,331.3,356.6,331.8,356.6z"/>
	<path class="st0" d="M331.7,360.1h1.7c0.5,0,0.8,0.4,0.8,0.8v0c0,0.5-0.4,0.8-0.8,0.8h-1.7c-0.5,0-0.8-0.4-0.8-0.8v0
		C330.8,360.5,331.2,360.1,331.7,360.1z"/>
	<path class="st0" d="M331.7,363.4h1.7c0.5,0,0.8,0.4,0.8,0.8v0c0,0.5-0.4,0.8-0.8,0.8h-1.7c-0.5,0-0.8-0.4-0.8-0.8v0
		C330.8,363.8,331.2,363.4,331.7,363.4z"/>
	<path d="M369.2,368.3L369.2,368.3c0.5,0,0.8,0.4,0.8,0.8v0c0,0.5-0.4,0.8-0.8,0.8h0c-0.5,0-0.8-0.4-0.8-0.8v0
		C368.3,368.7,368.7,368.3,369.2,368.3z"/>
	<path d="M320.8,368.3L320.8,368.3c0.5,0,0.8,0.4,0.8,0.8v0c0,0.5-0.4,0.8-0.8,0.8h0c-0.5,0-0.8-0.4-0.8-0.8v0
		C320,368.7,320.4,368.3,320.8,368.3z"/>
	<path class="st0" d="M344.9,330.8h0.2c0.5,0,0.8,0.4,0.8,0.8v0c0,0.5-0.4,0.8-0.8,0.8h-0.2c-0.5,0-0.8-0.4-0.8-0.8v0
		C344.1,331.2,344.4,330.8,344.9,330.8z"/>
	<path class="st0" d="M342.7,329.4c0.3,0.3,0.7,0.3,1,0.1c0.8-0.5,1.8-0.5,2.5,0c0.3,0.2,0.7,0.1,1-0.1l0,0c0.3-0.3,0.3-0.9,0-1.2
		c0,0-0.1-0.1-0.2-0.1c-1.3-0.8-2.9-0.8-4.2,0c-0.4,0.2-0.5,0.7-0.3,1.1C342.6,329.3,342.7,329.3,342.7,329.4L342.7,329.4z"/>
	<g transform="translate(336.665 319.998)">
		<path class="st0" d="M12.9,5.7c-2.7-2.1-6.5-2.1-9.2,0C3.4,6,3.3,6.6,3.6,6.9c0,0,0,0.1,0.1,0.1l0,0c0.3,0.3,0.8,0.3,1.1,0.1
			c2.1-1.6,5.1-1.6,7.2,0C12.3,7.3,12.7,7.3,13,7l0,0C13.3,6.7,13.3,6.1,12.9,5.7C13,5.8,13,5.8,12.9,5.7z"/>
		<path class="st0" d="M8.3,16.7c4.6,0,8.3-3.7,8.3-8.3c0-4.6-3.7-8.3-8.3-8.3C3.7,0,0,3.7,0,8.3C0,12.9,3.7,16.7,8.3,16.7
			C8.3,16.7,8.3,16.7,8.3,16.7z M8.3,1.7c3.7,0,6.7,3,6.7,6.7C15,12,12,15,8.3,15c-3.7,0-6.7-3-6.7-6.7c0,0,0,0,0,0
			C1.7,4.7,4.7,1.7,8.3,1.7z"/>
	</g>
	<path d="M360.8,332.5h-4.2c-0.2,0-0.4,0.1-0.6,0.2l-5,5c-0.2,0.2-0.2,0.4-0.2,0.6v2.5c0,0.5,0.4,0.8,0.8,0.8l0,0l0,0
		c0.5,0,0.8-0.4,0.8-0.8c0,0,0,0,0,0v-2.2l4.5-4.5h3.8c0.5,0,0.8-0.4,0.8-0.8c0,0,0,0,0,0l0,0C361.7,332.9,361.3,332.5,360.8,332.5z
		"/>
	<g transform="translate(363.332 319.999)">
		<path class="st0" d="M2.5,10.8C1.1,10.8,0,12,0,13.3s1.1,2.5,2.5,2.5S5,14.7,5,13.3S3.9,10.8,2.5,10.8z M2.5,14.2
			c-0.5,0-0.8-0.4-0.8-0.8s0.4-0.8,0.8-0.8c0.5,0,0.8,0.4,0.8,0.8S3,14.2,2.5,14.2L2.5,14.2z"/>
		<path class="st0" d="M2.5,5C3.9,5,5,3.9,5,2.5S3.9,0,2.5,0S0,1.1,0,2.5S1.1,5,2.5,5z M2.5,1.7C3,1.7,3.3,2,3.3,2.5S3,3.3,2.5,3.3
			C2,3.3,1.7,3,1.7,2.5S2,1.7,2.5,1.7L2.5,1.7z"/>
	</g>
	<path d="M361.4,328.1l1.1-1.1c0.3-0.3,0.3-0.9,0-1.2l0,0c-0.3-0.3-0.9-0.3-1.2,0l-0.8,0.8h-4.7c-0.5,0-0.8,0.4-0.8,0.8c0,0,0,0,0,0
		l0,0c0,0.5,0.4,0.8,0.8,0.8l0,0h5C361.1,328.3,361.3,328.2,361.4,328.1L361.4,328.1z"/>
	<path d="M339.2,340.8v-2.5c0-0.2-0.1-0.4-0.2-0.6l-5-5c-0.2-0.2-0.4-0.2-0.6-0.2h-4.2c-0.5,0-0.8,0.4-0.8,0.8c0,0,0,0,0,0l0,0
		c0,0.5,0.4,0.8,0.8,0.8c0,0,0,0,0,0h3.8l4.5,4.5v2.2c0,0.5,0.4,0.8,0.8,0.8c0,0,0,0,0,0l0,0C338.8,341.7,339.2,341.3,339.2,340.8z"
		/>
	<g transform="translate(321.666 319.999)">
		<path class="st0" d="M5,13.3c0-1.4-1.1-2.5-2.5-2.5S0,12,0,13.3s1.1,2.5,2.5,2.5S5,14.7,5,13.3z M1.7,13.3c0-0.5,0.4-0.8,0.8-0.8
			c0.5,0,0.8,0.4,0.8,0.8c0,0.5-0.4,0.8-0.8,0.8S1.7,13.8,1.7,13.3C1.7,13.3,1.7,13.3,1.7,13.3z"/>
		<path class="st0" d="M2.5,5C3.9,5,5,3.9,5,2.5S3.9,0,2.5,0S0,1.1,0,2.5S1.1,5,2.5,5z M2.5,1.7C3,1.7,3.3,2,3.3,2.5
			C3.3,3,3,3.3,2.5,3.3C2,3.3,1.7,3,1.7,2.5S2,1.7,2.5,1.7C2.5,1.7,2.5,1.7,2.5,1.7z"/>
	</g>
	<path d="M329.2,328.3h5c0.5,0,0.8-0.4,0.8-0.8c0,0,0,0,0,0l0,0c0-0.5-0.4-0.8-0.8-0.8c0,0,0,0,0,0h-4.7l-0.8-0.8
		c-0.3-0.3-0.9-0.3-1.2,0l0,0c-0.3,0.3-0.3,0.9,0,1.2l1.1,1.1C328.7,328.2,328.9,328.3,329.2,328.3L329.2,328.3z"/>
	<path d="M343.2,338.4L343.2,338.4c0.5,0,0.8,0.4,0.8,0.8v0c0,0.5-0.4,0.8-0.8,0.8h0c-0.5,0-0.8-0.4-0.8-0.8v0
		C342.4,338.8,342.8,338.4,343.2,338.4z"/>
	<path d="M346.8,338.4L346.8,338.4c0.5,0,0.8,0.4,0.8,0.8v0c0,0.5-0.4,0.8-0.8,0.8h0c-0.5,0-0.8-0.4-0.8-0.8v0
		C345.9,338.8,346.3,338.4,346.8,338.4z"/>
	<path class="st0" d="M360.9,346.6L360.9,346.6c0.5,0,0.8,0.4,0.8,0.8v0c0,0.5-0.4,0.8-0.8,0.8h0c-0.5,0-0.8-0.4-0.8-0.8v0
		C360.1,347,360.5,346.6,360.9,346.6z"/>
	<path class="st0" d="M360.9,343.3L360.9,343.3c0.5,0,0.8,0.4,0.8,0.8v0c0,0.5-0.4,0.8-0.8,0.8h0c-0.5,0-0.8-0.4-0.8-0.8v0
		C360.1,343.7,360.5,343.3,360.9,343.3z"/>
	<path class="st0" d="M360.9,338.4L360.9,338.4c0.5,0,0.8,0.4,0.8,0.8v1.7c0,0.5-0.4,0.8-0.8,0.8h0c-0.5,0-0.8-0.4-0.8-0.8v-1.7
		C360.1,338.8,360.5,338.4,360.9,338.4z"/>
	<path class="st0" d="M329.1,346.6L329.1,346.6c0.5,0,0.8,0.4,0.8,0.8v0c0,0.5-0.4,0.8-0.8,0.8h0c-0.5,0-0.8-0.4-0.8-0.8v0
		C328.3,347,328.6,346.6,329.1,346.6z"/>
	<path class="st0" d="M329.1,343.3L329.1,343.3c0.5,0,0.8,0.4,0.8,0.8v0c0,0.5-0.4,0.8-0.8,0.8h0c-0.5,0-0.8-0.4-0.8-0.8v0
		C328.3,343.7,328.6,343.3,329.1,343.3z"/>
	<path class="st0" d="M329.1,338.4L329.1,338.4c0.5,0,0.8,0.4,0.8,0.8v1.7c0,0.5-0.4,0.8-0.8,0.8h0c-0.5,0-0.8-0.4-0.8-0.8v-1.7
		C328.3,338.8,328.6,338.4,329.1,338.4z"/>
</g>
</svg>
