<svg xmlns="http://www.w3.org/2000/svg" width="23.156" height="24" viewBox="0 0 23.156 24"><defs><style>.a{fill:#fff;}</style></defs><path class="a" d="M823.094,546.75h-3.419a.675.675,0,0,0,0,1.35h3.419a.675.675,0,0,0,0-1.35Zm0,0" transform="translate(-816.301 -534.297)"/><path class="a" d="M823.094,498.75h-3.419a.675.675,0,1,0,0,1.35h3.419a.675.675,0,1,0,0-1.35Zm0,0" transform="translate(-816.301 -489.305)"/><path class="a" d="M829.752,450.75H819.675a.675.675,0,0,0,0,1.35h10.077a.675.675,0,0,0,0-1.35Zm0,0" transform="translate(-816.301 -444.312)"/><path class="a" d="M829.752,408.75H819.675a.675.675,0,1,0,0,1.35h10.077a.675.675,0,0,0,0-1.35Zm0,0" transform="translate(-816.301 -404.944)"/><path class="a" d="M795.615,359.3h-4.084v-8.329A2.971,2.971,0,0,0,788.563,348h-11.6A2.971,2.971,0,0,0,774,350.968v16.157A4.881,4.881,0,0,0,778.876,372h14.765a3.52,3.52,0,0,0,3.516-3.516v-7.646a1.543,1.543,0,0,0-1.541-1.541Zm-16.74,11.3a3.473,3.473,0,0,1-3.469-3.469V350.968a1.563,1.563,0,0,1,1.561-1.561h11.6a1.563,1.563,0,0,1,1.562,1.561v17.517a3.5,3.5,0,0,0,.705,2.109Zm16.874-2.109a2.109,2.109,0,1,1-4.219,0V360.7h4.084a.135.135,0,0,1,.135.135Zm0,0" transform="translate(-774 -348)"/><path class="a" d="M923.1,503l-.344-.124v-2.088c.406.158.434.359.792.359a.675.675,0,0,0,.474-1.153,2.743,2.743,0,0,0-1.266-.605v-.359a.675.675,0,1,0-1.35,0v.406a2.219,2.219,0,0,0-1,3.761,4.892,4.892,0,0,0,1,.584v2.785a2.013,2.013,0,0,1-.867-.375.675.675,0,0,0-.739,1.13,3.246,3.246,0,0,0,1.606.6v.4a.675.675,0,0,0,1.35,0v-.467A2.541,2.541,0,0,0,923.1,503Zm-1.694-.749c-.059-.038-.114-.077-.164-.116a.878.878,0,0,1,.164-1.23Zm1.35,4.162v-2.1a1.172,1.172,0,0,1,0,2.1Zm0,0" transform="translate(-910.291 -488.366)"/></svg>