<svg xmlns="http://www.w3.org/2000/svg" width="21" height="24" viewBox="0 0 21 24"><defs><style>.a{fill:none;stroke-linecap:round;stroke-linejoin:round;}.b,.c{stroke:none;}.c{fill:#fff;}</style></defs><g transform="translate(-71.5 -240.5)"><g transform="translate(72 242)"><g class="a" transform="translate(1 3)"><path class="b" d="M0,18V15.5c0-2.75,4.05-5,9-5s9,2.25,9,5V18ZM4.5,1.5A4.5,4.5,0,1,1,9,6,4.5,4.5,0,0,1,4.5,1.5Z"/><path class="c" d="M 18 18 L 18 15.49979972839355 C 18 12.75029945373535 13.94999980926514 10.50029945373535 9 10.50029945373535 C 4.050000190734863 10.50029945373535 0 12.75029945373535 0 15.49979972839355 L 0 18 L 18 18 M 9 6.00029993057251 C 11.48490047454834 6.00029993057251 13.5 3.985199689865112 13.5 1.500299692153931 C 13.5 -0.9846002459526062 11.48490047454834 -2.999700307846069 9 -2.999700307846069 C 6.514200210571289 -2.999700307846069 4.5 -0.9846002459526062 4.5 1.500299692153931 C 4.5 3.985199689865112 6.514200210571289 6.00029993057251 9 6.00029993057251 M 18 19.5 L 0 19.5 C -0.8284299969673157 19.5 -1.5 18.82843017578125 -1.5 18 L -1.5 15.49979972839355 C -1.5 14.50513935089111 -1.147750020027161 13.51880931854248 -0.481330007314682 12.64743995666504 C 0.09955000132322311 11.88791942596436 0.9059000015258789 11.21848011016846 1.915320038795471 10.65773010253906 C 3.839309930801392 9.588919639587402 6.355370044708252 9.000299453735352 9 9.000299453735352 C 11.64463043212891 9.000299453735352 14.16069030761719 9.588919639587402 16.08468055725098 10.65773010253906 C 17.09410095214844 11.21848011016846 17.90044975280762 11.88791942596436 18.48133087158203 12.64743995666504 C 19.14775085449219 13.51880931854248 19.5 14.50513935089111 19.5 15.49979972839355 L 19.5 18 C 19.5 18.82843017578125 18.82843017578125 19.5 18 19.5 Z M 9 7.50029993057251 C 5.691589832305908 7.50029993057251 3 4.808709621429443 3 1.500299692153931 C 3 -1.808110237121582 5.691589832305908 -4.49970006942749 9 -4.49970006942749 C 12.30840969085693 -4.49970006942749 15 -1.808110237121582 15 1.500299692153931 C 15 4.808709621429443 12.30840969085693 7.50029993057251 9 7.50029993057251 Z"/></g></g></g></svg>