<svg xmlns="http://www.w3.org/2000/svg" xmlns:xlink="http://www.w3.org/1999/xlink" width="193.32" height="61.841" viewBox="0 0 193.32 61.841"><defs><style>.a{fill:none;}.b{fill:#161615;}.c{clip-path:url(#a);}.d{fill:#005fab;}.e{fill:#0060ac;}.f{fill:#0061ad;}.g{fill:#0062ae;}.h{fill:#0063af;}.i{fill:#0064b0;}.j{fill:#0065b0;}.k{fill:#0065b1;}.l{fill:#0066b1;}.m{fill:#0066b2;}.n{fill:#0067b2;}.o{fill:#0067b3;}.p{fill:#0068b3;}.q{fill:#0069b4;}.r{fill:#006ab5;}.s{fill:#006bb6;}.t{fill:#006bb7;}.u{fill:#006cb7;}.v{fill:#006cb8;}.w{fill:#006db8;}.x{fill:#006eb9;}.y{fill:#006fba;}.z{fill:#0070bb;}.aa{fill:#0071bc;}.ab{fill:#0072bd;}.ac{fill:#0073be;}.ad{clip-path:url(#b);}.ae{clip-path:url(#c);}.af{fill:#52c0f2;}.ag{fill:#51bff1;}.ah{fill:#4fbff1;}.ai{fill:#4dbef1;}.aj{fill:#4bbef1;}.ak{fill:#49bdf1;}.al{fill:#48bdf1;}.am{fill:#46bcf0;}.an{fill:#44bcf0;}.ao{fill:#42bbf0;}.ap{fill:#40bbf0;}.aq{fill:#3ebaf0;}.ar{fill:#3cbaf0;}.as{fill:#3abaf0;}.at{fill:#38b9ef;}.au{fill:#36b9ef;}.av{fill:#33b8ef;}.aw{fill:#31b8ef;}.ax{fill:#2fb7ef;}.ay{fill:#2cb7ef;}.az{fill:#2ab6ee;}.ba{fill:#27b6ee;}.bb{fill:#25b5ee;}.bc{fill:#22b5ee;}.bd{fill:#1fb4ee;}.be{fill:#1bb4ee;}.bf{fill:#18b4ee;}.bg{fill:#14b3ed;}.bh{fill:#0fb3ed;}.bi{fill:#08b2ed;}.bj{fill:#00b2ed;}.bk{fill:#00b1ed;}.bl{fill:#00b0ec;}.bm{fill:#00afec;}.bn{fill:#00aeec;}.bo{fill:#00aeeb;}.bp{fill:#00adeb;}.bq{fill:#00aceb;}.br{fill:#00abeb;}.bs{fill:#00abea;}.bt{fill:#00aaea;}.bu{fill:#00a9ea;}.bv{fill:#00a8e9;}.bw{fill:#00a7e9;}.bx{fill:#00a6e9;}.by{fill:#00a5e8;}.bz{fill:#00a4e8;}.ca{fill:#00a3e8;}.cb{fill:#00a3e7;}.cc{fill:#00a2e7;}.cd{fill:#00a1e7;}.ce{fill:#00a1e6;}.cf{fill:#00a0e6;}.cg{fill:#009fe6;}.ch{fill:#009ee5;}.ci{fill:#009de5;}.cj{fill:#009ce5;}.ck{fill:#009ce4;}.cl{fill:#009be4;}.cm{fill:#009ae4;}.cn{fill:#009ae3;}.co{fill:#0099e3;}.cp{fill:#0098e3;}.cq{fill:#0098e2;}.cr{fill:#0097e2;}.cs{fill:#0096e2;}.ct{fill:#0096e1;}.cu{fill:#0095e1;}.cv{fill:#0094e1;}.cw{fill:#0094e0;}.cx{fill:#0093e0;}.cy{fill:#0092e0;}.cz{fill:#0092df;}.da{fill:#0091df;}.db{fill:#0090df;}.dc{fill:#0090de;}.dd{fill:#008fdd;}.de{fill:#008edc;}.df{fill:#008ddb;}.dg{fill:#008cda;}.dh{fill:#008cd9;}.di{fill:#008bd9;}.dj{fill:#008bd8;}.dk{fill:#008ad8;}.dl{fill:#008ad7;}.dm{fill:#0089d7;}.dn{fill:#0089d6;}.do{fill:#0088d6;}.dp{fill:#0088d5;}.dq{fill:#0087d5;}.dr{fill:#0087d4;}.ds{fill:#0086d4;}.dt{fill:#0086d3;}.du{fill:#0085d2;}.dv{fill:#0084d1;}.dw{fill:#0083d0;}.dx{fill:#0083cf;}.dy{fill:#0082cf;}.dz{fill:#0081ce;}.ea{fill:#0081cd;}.eb{fill:#0080cd;}.ec{fill:#0080cc;}.ed{fill:#007fcc;}.ee{fill:#007fcb;}.ef{fill:#007ecb;}.eg{fill:#007eca;}.eh{fill:#007dca;}.ei{fill:#007dc9;}.ej{fill:#007cc9;}.ek{fill:#007cc8;}.el{fill:#007bc8;}.em{fill:#007bc7;}.en{fill:#007ac7;}.eo{fill:#007ac6;}.ep{fill:#0079c5;}.eq{fill:#0078c5;}.er{fill:#0078c4;}.es{fill:#0077c3;}.et{fill:#0076c3;}.eu{fill:#0076c2;}.ev{fill:#0075c1;}.ew{fill:#0074c0;}.ex{fill:#0073c0;}.ey{fill:#0073bf;}.ez{fill:#0072be;}.fa{fill:#0071be;}.fb{fill:#0071bd;}.fc{fill:#0070bd;}.fd{fill:#0070bc;}.fe{fill:#006fbb;}.ff{fill:#006eba;}.fg{fill:#006dba;}.fh{fill:#006db9;}.fi{fill:#006ab6;}.fj{fill:#0069b5;}.fk{fill:#0068b4;}.fl{fill:#0060ad;}.fm{fill:#005fac;}.fn{clip-path:url(#d);}.fo{clip-path:url(#e);}.fp{fill:#464545;}</style><clipPath id="a"><path class="a" d="M326.863,234.461l9.889,2.694-7.78,4.742-5.259-5.07Z" transform="translate(-323.713 -234.461)"/></clipPath><clipPath id="b"><path class="a" d="M321.093,197.977l-20.776,0-5.888,4.733.526.523h23.067l3.071-4.8Z" transform="translate(-294.429 -197.975)"/></clipPath><clipPath id="c"><path class="a" d="M316.647,156.535,314.06,163s-18.432-.381-28.456,11.828l-4.851-4.821S293.58,155.133,316.647,156.535Z" transform="translate(-280.753 -156.441)"/></clipPath><clipPath id="d"><path class="a" d="M310.41,207.573l4.527,4.635s3.556-5.39,14.982-7.545l2.48-6.683S321.4,197.548,310.41,207.573Z" transform="translate(-310.41 -197.976)"/></clipPath><clipPath id="e"><path class="a" d="M339.383,247.4l4.743,5.067,3.341-9.486S344.881,243.627,339.383,247.4Z" transform="translate(-339.383 -242.981)"/></clipPath></defs><g transform="translate(25.698 -284.118)"><g transform="translate(50.04 300.795)"><g transform="translate(0 0.999)"><path d="M205.773,377.543l-11.638-16.466v16.158h-2.921V354.712h1.23l11.331,15.574V354.712H206.7v22.831Z" transform="translate(-191.214 -354.712)"/></g><g transform="translate(18.788 6.749)"><path d="M265.573,381.721H253.7a5.941,5.941,0,0,0,1.584,4.443,4.957,4.957,0,0,0,3.6,1.354,6.136,6.136,0,0,0,4.182-1.461l1.23,2.106a5.5,5.5,0,0,1-2.076,1.168,11.213,11.213,0,0,1-3.905.646,7.284,7.284,0,0,1-5.273-2.106,8.257,8.257,0,0,1-2.414-6.242A8.8,8.8,0,0,1,253.1,375.1a7.187,7.187,0,0,1,5.242-2.2,7.492,7.492,0,0,1,5.519,1.983,6.78,6.78,0,0,1,1.937,5.058A6.528,6.528,0,0,1,265.573,381.721Zm-7.088-6.364a4.616,4.616,0,0,0-4.7,4.244H262.9a4.157,4.157,0,0,0-1.107-2.952A4.32,4.32,0,0,0,258.486,375.357Z" transform="translate(-250.629 -372.897)"/></g><g transform="translate(35.146 7.056)"><path d="M314.277,390.335l-4.49-6-4.013,6h-3.413l5.98-8.425-5.488-8.04h3.29l3.69,5.657,4.136-5.657H317.2l-5.981,8.04,6.55,8.425Z" transform="translate(-302.362 -373.869)"/></g><g transform="translate(51.95 2.49)"><path d="M357.411,366.3h-1.906v-2.305h1.906v-3.444l2.921-1.122v4.566h4.52V366.3h-4.52v8.179a4.8,4.8,0,0,0,.7,2.952,2.711,2.711,0,0,0,2.252.877,5.4,5.4,0,0,0,2.322-.569l.43,2.567a16.134,16.134,0,0,1-3.982.461,4.319,4.319,0,0,1-3.3-1.453,5.184,5.184,0,0,1-1.345-3.666Z" transform="translate(-355.505 -359.428)"/></g><g transform="translate(65.957)"><path d="M399.8,352.475l3.843-.922v18.51q0,3.043,1.814,3.628a3.156,3.156,0,0,1-3.043,1.691q-2.614,0-2.613-3.628Z" transform="translate(-399.8 -351.553)"/></g><g transform="translate(73.504 0.676)"><path d="M425.776,376.537V363.223H423.67v-3.152h6v16.466Zm1.983-22.846a2.231,2.231,0,1,1-1.576.654A2.148,2.148,0,0,1,427.76,353.691Z" transform="translate(-423.67 -353.691)"/></g><g transform="translate(83.974 6.749)"><path d="M467.374,389.67v-9.516a4.768,4.768,0,0,0-.807-3.075,3.249,3.249,0,0,0-2.636-.968,4.083,4.083,0,0,0-1.807.476,4.162,4.162,0,0,0-1.5,1.184v11.9h-3.844V373.2h2.768l.707,1.537a5.736,5.736,0,0,1,4.628-1.844,6.14,6.14,0,0,1,4.635,1.76,6.782,6.782,0,0,1,1.7,4.912v10.1Z" transform="translate(-456.781 -372.897)"/></g><g transform="translate(101.486 6.749)"><path d="M527.934,382.613H516.173a4.174,4.174,0,0,0,1.353,3.06,4.9,4.9,0,0,0,3.351,1.091,5.415,5.415,0,0,0,4-1.369l1.492,2.937q-2.03,1.645-6.058,1.645a8.018,8.018,0,0,1-5.958-2.206,8.359,8.359,0,0,1-2.191-6.158,8.539,8.539,0,0,1,2.406-6.3,8.439,8.439,0,0,1,11.523-.277,7.318,7.318,0,0,1,2.167,5.442A10.723,10.723,0,0,1,527.934,382.613Zm-11.623-2.89H524.4q-.4-3.613-4-3.613Q517.111,376.11,516.311,379.723Z" transform="translate(-512.16 -372.897)"/></g></g><g transform="translate(54.458 330.033)"><g transform="translate(0 0.133)"><path class="b" d="M207.15,444.968v3.787h-.589v-3.787h-1.373v-.53h3.4v.53Z" transform="translate(-205.188 -444.438)"/></g><g transform="translate(5.907 1.234)"><path class="b" d="M226.732,449.613h-2.274a1.14,1.14,0,0,0,.3.852.952.952,0,0,0,.689.259,1.177,1.177,0,0,0,.8-.279l.236.4a1.069,1.069,0,0,1-.4.224,2.158,2.158,0,0,1-.748.123,1.394,1.394,0,0,1-1.01-.4,1.581,1.581,0,0,1-.463-1.2,1.686,1.686,0,0,1,.474-1.252,1.377,1.377,0,0,1,1-.421,1.436,1.436,0,0,1,1.058.38,1.3,1.3,0,0,1,.371.97A1.255,1.255,0,0,1,226.732,449.613Zm-1.358-1.22a.884.884,0,0,0-.9.813h1.747a.8.8,0,0,0-.212-.566A.828.828,0,0,0,225.374,448.393Z" transform="translate(-223.868 -447.922)"/></g><g transform="translate(12.465 0)"><path class="b" d="M244.607,447.574v-3.556h.56v3.461a.54.54,0,0,0,.146.4.519.519,0,0,0,.382.146v.5Q244.607,448.526,244.607,447.574Z" transform="translate(-244.607 -444.018)"/></g><g transform="translate(17.01 1.234)"><path class="b" d="M261.847,449.613h-2.275a1.14,1.14,0,0,0,.3.852.952.952,0,0,0,.689.259,1.177,1.177,0,0,0,.8-.279l.236.4a1.069,1.069,0,0,1-.4.224,2.158,2.158,0,0,1-.748.123,1.4,1.4,0,0,1-1.011-.4,1.583,1.583,0,0,1-.463-1.2,1.687,1.687,0,0,1,.474-1.252,1.376,1.376,0,0,1,1-.421,1.437,1.437,0,0,1,1.058.38,1.3,1.3,0,0,1,.371.97A1.255,1.255,0,0,1,261.847,449.613Zm-1.358-1.22a.884.884,0,0,0-.9.813h1.747a.8.8,0,0,0-.212-.566A.829.829,0,0,0,260.488,448.393Z" transform="translate(-258.983 -447.922)"/></g><g transform="translate(23.318 1.234)"><path class="b" d="M281.517,448.237l-.277.395a.832.832,0,0,0-.3-.162,1.266,1.266,0,0,0-.426-.076.9.9,0,0,0-.725.319,1.324,1.324,0,0,0-.268.877,1.184,1.184,0,0,0,.274.844,1,1,0,0,0,.76.29,1.252,1.252,0,0,0,.76-.292l.221.471a2.008,2.008,0,0,1-1.116.292,1.423,1.423,0,0,1-1.066-.434,1.608,1.608,0,0,1-.421-1.172,1.678,1.678,0,0,1,.437-1.211,1.671,1.671,0,0,1,1.728-.353A1.517,1.517,0,0,1,281.517,448.237Z" transform="translate(-278.93 -447.922)"/></g><g transform="translate(29.322 1.234)"><path class="b" d="M297.918,449.551a1.723,1.723,0,0,1,.393-1.18,1.457,1.457,0,0,1,2.087-.018,2.092,2.092,0,0,1-.009,2.4,1.459,1.459,0,0,1-2.095,0A1.792,1.792,0,0,1,297.918,449.551Zm.589,0q0,1.187.84,1.187a.709.709,0,0,0,.614-.318,1.493,1.493,0,0,0,.222-.869q0-1.173-.837-1.173a.72.72,0,0,0-.611.312A1.433,1.433,0,0,0,298.507,449.551Z" transform="translate(-297.918 -447.922)"/></g><g transform="translate(35.783 1.234)"><path class="b" d="M322,451.137v-2q0-.746-.645-.746a.645.645,0,0,0-.38.125.659.659,0,0,0-.242.285v2.334h-.56v-2.243a.438.438,0,0,0-.175-.367.746.746,0,0,0-.464-.133.644.644,0,0,0-.358.13.79.79,0,0,0-.269.286v2.328h-.56V447.98h.365l.186.366a.983.983,0,0,1,.81-.424,1.04,1.04,0,0,1,.949.421.723.723,0,0,1,.35-.3,1.229,1.229,0,0,1,.527-.121.981.981,0,0,1,.757.29,1.157,1.157,0,0,1,.268.815v2.11Z" transform="translate(-318.35 -447.922)"/></g><g transform="translate(43.778 1.293)"><path class="b" d="M344.195,448.107v2.012q0,.731.633.73a.875.875,0,0,0,.507-.159.766.766,0,0,0,.3-.369v-2.215h.56v3.156h-.56v-.437a.876.876,0,0,1-.379.34,1.158,1.158,0,0,1-.555.155,1.029,1.029,0,0,1-.794-.3,1.2,1.2,0,0,1-.275-.846v-2.071Z" transform="translate(-343.635 -448.107)"/></g><g transform="translate(50.121 1.234)"><path class="b" d="M365.636,451.137V449.3a1.218,1.218,0,0,0-.152-.706.594.594,0,0,0-.508-.2.833.833,0,0,0-.4.115.9.9,0,0,0-.321.283v2.346h-.56V447.98h.383l.177.407a.97.97,0,0,1,.9-.466q1.037,0,1.037,1.261v1.953Z" transform="translate(-363.694 -447.922)"/></g><g transform="translate(56.272 0.1)"><path class="b" d="M383.58,448.683V446h-.433v-.471h.993v3.156Zm.306-4.349a.346.346,0,1,1-.345.345.343.343,0,0,1,.345-.345Z" transform="translate(-383.147 -444.334)"/></g><g transform="translate(60.965 1.234)"><path class="b" d="M400.576,448.237l-.277.395a.831.831,0,0,0-.3-.162,1.268,1.268,0,0,0-.426-.076.9.9,0,0,0-.725.319,1.324,1.324,0,0,0-.268.877,1.185,1.185,0,0,0,.274.844,1,1,0,0,0,.76.29,1.252,1.252,0,0,0,.76-.292l.221.471a2.009,2.009,0,0,1-1.117.292,1.424,1.424,0,0,1-1.066-.434,1.61,1.61,0,0,1-.421-1.172,1.677,1.677,0,0,1,.438-1.211,1.67,1.67,0,0,1,1.728-.353A1.52,1.52,0,0,1,400.576,448.237Z" transform="translate(-397.989 -447.922)"/></g><g transform="translate(67.013 1.234)"><path class="b" d="M419.06,450.773a1.234,1.234,0,0,1-1.028.422.884.884,0,0,1-.644-.27.9.9,0,0,1-.273-.669,1,1,0,0,1,.42-.812,1.675,1.675,0,0,1,1.071-.331,1.252,1.252,0,0,1,.4.077q0-.766-.684-.766a1.09,1.09,0,0,0-.807.283l-.236-.469a1.388,1.388,0,0,1,.44-.223,1.72,1.72,0,0,1,.538-.092,1.125,1.125,0,0,1,1.308,1.3v1.131a.579.579,0,0,0,.247.554v.28a1.057,1.057,0,0,1-.511-.1A.551.551,0,0,1,419.06,450.773Zm-.053-1.187a2,2,0,0,0-.371-.059,1.059,1.059,0,0,0-.693.218.646.646,0,0,0-.268.515q0,.492.581.492a.953.953,0,0,0,.751-.4Z" transform="translate(-417.115 -447.922)"/></g><g transform="translate(73.156 1.234)"><path class="b" d="M439.128,448.237l-.277.395a.838.838,0,0,0-.3-.162,1.27,1.27,0,0,0-.426-.076.9.9,0,0,0-.725.319,1.324,1.324,0,0,0-.268.877,1.186,1.186,0,0,0,.274.844,1,1,0,0,0,.761.29,1.252,1.252,0,0,0,.76-.292l.221.471a2.009,2.009,0,0,1-1.117.292,1.424,1.424,0,0,1-1.067-.434,1.609,1.609,0,0,1-.421-1.172,1.677,1.677,0,0,1,.438-1.211,1.67,1.67,0,0,1,1.728-.353A1.523,1.523,0,0,1,439.128,448.237Z" transform="translate(-436.541 -447.922)"/></g><g transform="translate(79.204 0.1)"><path class="b" d="M456.1,448.683V446h-.433v-.471h.993v3.156Zm.306-4.349a.346.346,0,1,1,0,.692.331.331,0,0,1-.243-.1.345.345,0,0,1,.243-.59Z" transform="translate(-455.668 -444.334)"/></g><g transform="translate(83.897 1.234)"><path class="b" d="M470.51,449.551a1.725,1.725,0,0,1,.393-1.18,1.457,1.457,0,0,1,2.087-.018,2.093,2.093,0,0,1-.008,2.4,1.46,1.46,0,0,1-2.095,0A1.792,1.792,0,0,1,470.51,449.551Zm.589,0q0,1.187.839,1.187a.71.71,0,0,0,.614-.318,1.494,1.494,0,0,0,.223-.869q0-1.173-.837-1.173a.719.719,0,0,0-.611.312A1.43,1.43,0,0,0,471.1,449.551Z" transform="translate(-470.51 -447.922)"/></g><g transform="translate(90.357 1.234)"><path class="b" d="M492.883,451.137V449.3a1.22,1.22,0,0,0-.151-.706.6.6,0,0,0-.509-.2.834.834,0,0,0-.4.115.892.892,0,0,0-.321.283v2.346h-.56V447.98h.383l.177.407a.97.97,0,0,1,.9-.466q1.037,0,1.037,1.261v1.953Z" transform="translate(-490.941 -447.922)"/></g><g transform="translate(96.465 1.234)"><path class="b" d="M513.119,449.613h-2.274a1.139,1.139,0,0,0,.3.852.953.953,0,0,0,.69.259,1.178,1.178,0,0,0,.8-.279l.236.4a1.063,1.063,0,0,1-.4.224,2.158,2.158,0,0,1-.748.123,1.4,1.4,0,0,1-1.011-.4,1.582,1.582,0,0,1-.463-1.2,1.686,1.686,0,0,1,.474-1.252,1.376,1.376,0,0,1,1-.421,1.436,1.436,0,0,1,1.057.38,1.3,1.3,0,0,1,.371.97A1.255,1.255,0,0,1,513.119,449.613Zm-1.358-1.22a.884.884,0,0,0-.9.813h1.747a.8.8,0,0,0-.212-.566A.828.828,0,0,0,511.761,448.393Z" transform="translate(-510.255 -447.922)"/></g><g transform="translate(102.772 1.234)"><path class="b" d="M530.2,450.947l.2-.53a1.519,1.519,0,0,0,.754.306q.518,0,.519-.436,0-.312-.5-.536a4.072,4.072,0,0,1-.52-.268,1.155,1.155,0,0,1-.232-.208.815.815,0,0,1-.147-.248.791.791,0,0,1-.049-.281.722.722,0,0,1,.283-.607,1.179,1.179,0,0,1,.74-.218,2.38,2.38,0,0,1,.869.218l-.159.518a1.071,1.071,0,0,0-.669-.265.582.582,0,0,0-.337.094.28.28,0,0,0-.137.239.5.5,0,0,0,.345.459l.4.183a1.407,1.407,0,0,1,.536.383.849.849,0,0,1,.168.539.805.805,0,0,1-.3.664,1.275,1.275,0,0,1-.825.241A1.878,1.878,0,0,1,530.2,450.947Z" transform="translate(-530.202 -447.922)"/></g></g><g transform="translate(-25.698 284.118)"><g transform="translate(0 4.213)"><g transform="translate(13.584 24.671)"><g class="c"><path class="d" d="M323.713,234.461v0Z" transform="translate(-323.713 -234.461)"/><rect class="d" width="0.1" height="7.436"/><rect class="e" width="0.1" height="7.436" transform="translate(0.1)"/><rect class="e" width="0.1" height="7.436" transform="translate(0.199)"/><rect class="f" width="0.1" height="7.436" transform="translate(0.299)"/><rect class="f" width="0.1" height="7.436" transform="translate(0.399)"/><rect class="g" width="0.1" height="7.436" transform="translate(0.499)"/><rect class="g" width="0.1" height="7.436" transform="translate(0.598)"/><rect class="h" width="0.1" height="7.436" transform="translate(0.698)"/><rect class="h" width="0.1" height="7.436" transform="translate(0.798)"/><rect class="i" width="0.1" height="7.436" transform="translate(0.898)"/><rect class="j" width="0.1" height="7.436" transform="translate(0.997)"/><rect class="k" width="0.1" height="7.436" transform="translate(1.097)"/><rect class="l" width="0.1" height="7.436" transform="translate(1.197)"/><rect class="m" width="0.1" height="7.436" transform="translate(1.296)"/><rect class="n" width="0.1" height="7.436" transform="translate(1.396)"/><rect class="o" width="0.1" height="7.436" transform="translate(1.496)"/><rect class="p" width="0.1" height="7.436" transform="translate(1.596)"/><rect class="q" width="0.1" height="7.436" transform="translate(1.695)"/><rect class="q" width="0.1" height="7.436" transform="translate(1.795)"/><rect class="r" width="0.1" height="7.436" transform="translate(1.895)"/><rect class="r" width="0.1" height="7.436" transform="translate(1.994)"/><rect class="s" width="0.1" height="7.436" transform="translate(2.094)"/><rect class="t" width="0.1" height="7.436" transform="translate(2.194)"/><rect class="u" width="0.1" height="7.436" transform="translate(2.294)"/><rect class="v" width="0.1" height="7.436" transform="translate(2.393)"/><rect class="w" width="0.1" height="7.436" transform="translate(2.493)"/><rect class="x" width="0.1" height="7.436" transform="translate(2.593)"/><rect class="x" width="0.1" height="7.436" transform="translate(2.693)"/><rect class="y" width="0.1" height="7.436" transform="translate(2.792)"/><rect class="y" width="0.1" height="7.436" transform="translate(2.892)"/><rect class="z" width="0.1" height="7.436" transform="translate(2.992)"/><rect class="z" width="0.1" height="7.436" transform="translate(3.092)"/><rect class="aa" width="0.1" height="7.436" transform="translate(3.191)"/><rect class="aa" width="0.1" height="7.436" transform="translate(3.291)"/><rect class="ab" width="0.1" height="7.436" transform="translate(3.391)"/><rect class="ab" width="0.1" height="7.436" transform="translate(3.49)"/><rect class="ac" width="0.1" height="7.436" transform="translate(3.59)"/><rect class="ac" width="0.1" height="7.436" transform="translate(3.69)"/><rect class="ac" width="0.127" height="7.436" transform="translate(3.79)"/><rect class="ac" width="0.127" height="7.436" transform="translate(3.916)"/><rect class="ab" width="0.127" height="7.436" transform="translate(4.043)"/><rect class="ab" width="0.127" height="7.436" transform="translate(4.17)"/><rect class="aa" width="0.127" height="7.436" transform="translate(4.297)"/><rect class="aa" width="0.127" height="7.436" transform="translate(4.423)"/><rect class="z" width="0.127" height="7.436" transform="translate(4.55)"/><rect class="z" width="0.127" height="7.436" transform="translate(4.677)"/><rect class="y" width="0.127" height="7.436" transform="translate(4.804)"/><rect class="y" width="0.127" height="7.436" transform="translate(4.93)"/><rect class="x" width="0.127" height="7.436" transform="translate(5.057)"/><rect class="x" width="0.127" height="7.436" transform="translate(5.184)"/><rect class="w" width="0.127" height="7.436" transform="translate(5.311)"/><rect class="v" width="0.127" height="7.436" transform="translate(5.438)"/><rect class="u" width="0.127" height="7.436" transform="translate(5.564)"/><rect class="t" width="0.127" height="7.436" transform="translate(5.691)"/><rect class="s" width="0.127" height="7.436" transform="translate(5.818)"/><rect class="r" width="0.127" height="7.436" transform="translate(5.945)"/><rect class="r" width="0.127" height="7.436" transform="translate(6.072)"/><rect class="q" width="0.127" height="7.436" transform="translate(6.198)"/><rect class="q" width="0.127" height="7.436" transform="translate(6.325)"/><rect class="p" width="0.127" height="7.436" transform="translate(6.452)"/><rect class="o" width="0.127" height="7.436" transform="translate(6.578)"/><rect class="n" width="0.127" height="7.436" transform="translate(6.705)"/><rect class="m" width="0.127" height="7.436" transform="translate(6.832)"/><rect class="l" width="0.127" height="7.436" transform="translate(6.959)"/><rect class="k" width="0.127" height="7.436" transform="translate(7.086)"/><rect class="j" width="0.127" height="7.436" transform="translate(7.212)"/><rect class="i" width="0.127" height="7.436" transform="translate(7.339)"/><rect class="h" width="0.127" height="7.436" transform="translate(7.466)"/><rect class="h" width="0.127" height="7.436" transform="translate(7.593)"/><rect class="g" width="0.127" height="7.436" transform="translate(7.72)"/><rect class="g" width="0.127" height="7.436" transform="translate(7.846)"/><rect class="f" width="0.127" height="7.436" transform="translate(7.973)"/><rect class="f" width="0.127" height="7.436" transform="translate(8.1)"/><rect class="e" width="0.127" height="7.436" transform="translate(8.227)"/><rect class="e" width="0.127" height="7.436" transform="translate(8.353)"/><rect class="d" width="0.127" height="7.436" transform="translate(8.48)"/><rect class="d" width="4.432" height="7.436" transform="translate(8.607)"/></g></g><g transform="translate(4.324 13.133)"><g class="ad"><path class="d" d="M300.317,197.975l-5.888,3.4v-3.4Z" transform="translate(-294.429 -197.975)"/><path class="d" d="M300.522,197.975l-6.093,3.518v-.118l5.888-3.4Z" transform="translate(-294.429 -197.975)"/><path class="e" d="M300.727,197.975l-6.3,3.636v-.119l6.093-3.518Z" transform="translate(-294.429 -197.975)"/><path class="e" d="M300.932,197.975l-6.5,3.755v-.119l6.3-3.636Z" transform="translate(-294.429 -197.975)"/><path class="f" d="M301.137,197.975l-6.708,3.873v-.118l6.5-3.755Z" transform="translate(-294.429 -197.975)"/><path class="f" d="M301.342,197.975l-6.913,3.991v-.118l6.708-3.873Z" transform="translate(-294.429 -197.975)"/><path class="g" d="M301.547,197.975l-7.119,4.11v-.119l6.913-3.991Z" transform="translate(-294.429 -197.975)"/><path class="g" d="M301.752,197.975l-7.324,4.228v-.118l7.119-4.11Z" transform="translate(-294.429 -197.975)"/><path class="h" d="M301.957,197.975l-7.529,4.347V202.2l7.324-4.228Z" transform="translate(-294.429 -197.975)"/><path class="h" d="M302.163,197.975l-7.734,4.465v-.118l7.529-4.347Z" transform="translate(-294.429 -197.975)"/><path class="i" d="M302.367,197.975l-7.939,4.583v-.118l7.734-4.465Z" transform="translate(-294.429 -197.975)"/><path class="j" d="M302.572,197.975l-8.144,4.7v-.119l7.939-4.583Z" transform="translate(-294.429 -197.975)"/><path class="k" d="M302.777,197.975l-8.349,4.82v-.118l8.144-4.7Z" transform="translate(-294.429 -197.975)"/><path class="l" d="M302.983,197.975l-8.554,4.939v-.118l8.349-4.82Z" transform="translate(-294.429 -197.975)"/><path class="m" d="M303.187,197.975l-8.759,5.057v-.118l8.554-4.939Z" transform="translate(-294.429 -197.975)"/><path class="n" d="M303.392,197.975l-8.964,5.175v-.118l8.759-5.057Z" transform="translate(-294.429 -197.975)"/><path class="o" d="M303.6,197.975l-9.1,5.256h-.065v-.081l8.964-5.175Z" transform="translate(-294.429 -197.975)"/><path class="p" d="M303.944,197.975l-9.1,5.256h-.205l9.1-5.256Z" transform="translate(-294.57 -197.975)"/><path class="q" d="M304.593,197.975l-9.1,5.256h-.2l9.1-5.256Z" transform="translate(-295.014 -197.975)"/><path class="q" d="M305.24,197.975l-9.1,5.256h-.205l9.1-5.256Z" transform="translate(-295.456 -197.975)"/><path class="r" d="M305.889,197.975l-9.1,5.256h-.205l9.1-5.256Z" transform="translate(-295.9 -197.975)"/><path class="r" d="M306.538,197.975l-9.1,5.256h-.205l9.1-5.256Z" transform="translate(-296.344 -197.975)"/><path class="s" d="M307.186,197.975l-9.1,5.256h-.2l9.1-5.256Z" transform="translate(-296.787 -197.975)"/><path class="t" d="M307.834,197.975l-9.1,5.256h-.205l9.1-5.256Z" transform="translate(-297.23 -197.975)"/><path class="u" d="M308.483,197.975l-9.1,5.256h-.2l9.1-5.256Z" transform="translate(-297.674 -197.975)"/><path class="v" d="M309.131,197.975l-9.1,5.256h-.205l9.1-5.256Z" transform="translate(-298.117 -197.975)"/><path class="w" d="M309.78,197.975l-9.1,5.256h-.2l9.1-5.256Z" transform="translate(-298.561 -197.975)"/><path class="x" d="M310.428,197.975l-9.1,5.256h-.205l9.1-5.256Z" transform="translate(-299.003 -197.975)"/><path class="x" d="M311.077,197.975l-9.1,5.256h-.205l9.1-5.256Z" transform="translate(-299.447 -197.975)"/><path class="y" d="M311.726,197.975l-9.1,5.256h-.2l9.1-5.256Z" transform="translate(-299.891 -197.975)"/><path class="y" d="M312.373,197.975l-9.1,5.256h-.2l9.1-5.256Z" transform="translate(-300.334 -197.975)"/><path class="z" d="M313.022,197.975l-9.1,5.256h-.205l9.1-5.256Z" transform="translate(-300.777 -197.975)"/><path class="z" d="M313.67,197.975l-9.1,5.256h-.205l9.1-5.256Z" transform="translate(-301.221 -197.975)"/><path class="aa" d="M314.319,197.975l-9.1,5.256h-.2l9.1-5.256Z" transform="translate(-301.664 -197.975)"/><path class="aa" d="M314.967,197.975l-9.1,5.256h-.205l9.1-5.256Z" transform="translate(-302.107 -197.975)"/><path class="ab" d="M315.616,197.975l-9.1,5.256h-.2l9.1-5.256Z" transform="translate(-302.551 -197.975)"/><path class="ab" d="M316.264,197.975l-9.1,5.256h-.205l9.1-5.256Z" transform="translate(-302.994 -197.975)"/><path class="ac" d="M316.913,197.975l-9.1,5.256H307.6l9.1-5.256Z" transform="translate(-303.438 -197.975)"/><path class="ac" d="M317.561,197.975l-9.1,5.256h-.2l9.1-5.256Z" transform="translate(-303.882 -197.975)"/><path class="ac" d="M318.264,197.975l-9.1,5.256h-.26l9.1-5.256Z" transform="translate(-304.324 -197.975)"/><path class="ac" d="M319.088,197.975l-9.1,5.256h-.261l9.1-5.256Z" transform="translate(-304.887 -197.975)"/><path class="ab" d="M319.912,197.975l-9.1,5.256h-.261l9.1-5.256Z" transform="translate(-305.451 -197.975)"/><path class="ab" d="M320.737,197.975l-9.1,5.256h-.261l9.1-5.256Z" transform="translate(-306.015 -197.975)"/><path class="aa" d="M321.562,197.975l-9.1,5.256h-.26l9.1-5.256Z" transform="translate(-306.579 -197.975)"/><path class="aa" d="M322.385,197.975l-9.1,5.256h-.261l9.1-5.256Z" transform="translate(-307.142 -197.975)"/><path class="z" d="M323.21,197.975l-9.1,5.256h-.261l9.1-5.256Z" transform="translate(-307.706 -197.975)"/><path class="z" d="M324.034,197.975l-9.1,5.256h-.261l9.1-5.256Z" transform="translate(-308.269 -197.975)"/><path class="y" d="M324.858,197.975l-9.1,5.256h-.261l9.1-5.256Z" transform="translate(-308.833 -197.975)"/><path class="y" d="M325.683,197.975l-9.1,5.256h-.26l9.1-5.256Z" transform="translate(-309.397 -197.975)"/><path class="x" d="M326.507,197.975l-9.1,5.256h-.261l9.1-5.256Z" transform="translate(-309.96 -197.975)"/><path class="x" d="M327.332,197.975l-9.1,5.256h-.26l9.1-5.256Z" transform="translate(-310.524 -197.975)"/><path class="w" d="M328.155,197.975l-9.1,5.256h-.261l9.1-5.256Z" transform="translate(-311.087 -197.975)"/><path class="v" d="M328.98,197.975l-9.1,5.256h-.261l9.1-5.256Z" transform="translate(-311.651 -197.975)"/><path class="u" d="M329.8,197.975l-9.1,5.256h-.26l9.1-5.256Z" transform="translate(-312.215 -197.975)"/><path class="t" d="M330.628,197.975l-9.1,5.256h-.261l9.1-5.256Z" transform="translate(-312.779 -197.975)"/><path class="s" d="M331.452,197.975l-9.1,5.256h-.261l9.1-5.256Z" transform="translate(-313.342 -197.975)"/><path class="r" d="M332.277,197.975l-9.1,5.256h-.261l9.1-5.256Z" transform="translate(-313.905 -197.975)"/><path class="r" d="M333.1,197.975l-9.1,5.256h-.26l9.1-5.256Z" transform="translate(-314.47 -197.975)"/><path class="q" d="M333.925,197.975l-9.1,5.256h-.261l9.1-5.256Z" transform="translate(-315.033 -197.975)"/><path class="q" d="M334.75,197.975l-9.1,5.256h-.261l9.1-5.256Z" transform="translate(-315.597 -197.975)"/><path class="p" d="M335.574,197.975l-9.1,5.256h-.26l9.1-5.256Z" transform="translate(-316.16 -197.975)"/><path class="o" d="M336.4,197.975l-9.1,5.256h-.261l9.1-5.256Z" transform="translate(-316.723 -197.975)"/><path class="n" d="M337.222,197.975l-9.1,5.256h-.261l9.1-5.256Z" transform="translate(-317.287 -197.975)"/><path class="m" d="M338.047,197.975l-9.1,5.256h-.261l9.1-5.256Z" transform="translate(-317.851 -197.975)"/><path class="l" d="M338.871,197.975l-9.1,5.256h-.26l9.1-5.256Z" transform="translate(-318.415 -197.975)"/><path class="k" d="M339.695,197.975l-9.1,5.256h-.261l9.1-5.256Z" transform="translate(-318.978 -197.975)"/><path class="j" d="M340.52,197.975l-9.1,5.256h-.261l9.1-5.256Z" transform="translate(-319.542 -197.975)"/><path class="i" d="M341.344,197.975l-9.1,5.256h-.26l9.1-5.256Z" transform="translate(-320.106 -197.975)"/><path class="h" d="M342.168,197.975l-9.1,5.256h-.26l9.1-5.256Z" transform="translate(-320.669 -197.975)"/><path class="h" d="M342.992,197.975l-9.1,5.256h-.261l9.1-5.256Z" transform="translate(-321.232 -197.975)"/><path class="g" d="M343.817,197.975l-9.1,5.256h-.261l9.1-5.256Z" transform="translate(-321.797 -197.975)"/><path class="g" d="M344.641,197.975l-9.1,5.256h-.26l9.1-5.256Z" transform="translate(-322.361 -197.975)"/><path class="f" d="M345.465,197.975l-9.1,5.256h-.26l9.1-5.256Z" transform="translate(-322.924 -197.975)"/><path class="f" d="M346.289,197.975l-9.1,5.256h-.261l9.1-5.256Z" transform="translate(-323.487 -197.975)"/><path class="e" d="M347.114,197.975l-9.1,5.256h-.261l9.1-5.256Z" transform="translate(-324.051 -197.975)"/><path class="e" d="M347.938,197.975l-9.1,5.256h-.26l9.1-5.256Z" transform="translate(-324.615 -197.975)"/><path class="d" d="M348.762,197.975l-9.1,5.256H339.4l9.1-5.256Z" transform="translate(-325.178 -197.975)"/><path class="d" d="M340.224,203.231l9.1-5.256h3.08v5.256Z" transform="translate(-325.743 -197.975)"/></g></g><g transform="translate(0 0)"><g class="ae"><path class="af" d="M280.753,214.6h0Z" transform="translate(-280.753 -196.208)"/><rect class="af" width="35.894" height="0.058" transform="translate(0 18.332)"/><rect class="ag" width="35.894" height="0.057" transform="translate(0 18.274)"/><rect class="ah" width="35.894" height="0.057" transform="translate(0 18.217)"/><rect class="ai" width="35.894" height="0.057" transform="translate(0 18.159)"/><rect class="aj" width="35.894" height="0.057" transform="translate(0 18.102)"/><rect class="ak" width="35.894" height="0.057" transform="translate(0 18.045)"/><rect class="al" width="35.894" height="0.057" transform="translate(0 17.987)"/><rect class="am" width="35.894" height="0.057" transform="translate(0 17.93)"/><rect class="an" width="35.894" height="0.058" transform="translate(0 17.872)"/><rect class="ao" width="35.894" height="0.057" transform="translate(0 17.815)"/><rect class="ap" width="35.894" height="0.057" transform="translate(0 17.757)"/><rect class="aq" width="35.894" height="0.057" transform="translate(0 17.7)"/><rect class="ar" width="35.894" height="0.057" transform="translate(0 17.642)"/><rect class="as" width="35.894" height="0.057" transform="translate(0 17.585)"/><rect class="at" width="35.894" height="0.057" transform="translate(0 17.528)"/><rect class="au" width="35.894" height="0.057" transform="translate(0 17.47)"/><rect class="av" width="35.894" height="0.057" transform="translate(0 17.413)"/><rect class="aw" width="35.894" height="0.057" transform="translate(0 17.355)"/><rect class="ax" width="35.894" height="0.057" transform="translate(0 17.298)"/><rect class="ay" width="35.894" height="0.057" transform="translate(0 17.241)"/><rect class="az" width="35.894" height="0.057" transform="translate(0 17.183)"/><rect class="ba" width="35.894" height="0.057" transform="translate(0 17.126)"/><rect class="bb" width="35.894" height="0.057" transform="translate(0 17.068)"/><rect class="bc" width="35.894" height="0.057" transform="translate(0 17.011)"/><rect class="bd" width="35.894" height="0.057" transform="translate(0 16.953)"/><rect class="be" width="35.894" height="0.057" transform="translate(0 16.896)"/><rect class="bf" width="35.894" height="0.057" transform="translate(0 16.839)"/><rect class="bg" width="35.894" height="0.057" transform="translate(0 16.781)"/><rect class="bh" width="35.894" height="0.057" transform="translate(0 16.724)"/><rect class="bi" width="35.894" height="0.057" transform="translate(0 16.666)"/><rect class="bj" width="35.894" height="0.057" transform="translate(0 16.609)"/><rect class="bk" width="35.894" height="0.057" transform="translate(0 16.551)"/><rect class="bk" width="35.894" height="0.057" transform="translate(0 16.494)"/><rect class="bl" width="35.894" height="0.057" transform="translate(0 16.437)"/><rect class="bl" width="35.894" height="0.057" transform="translate(0 16.379)"/><rect class="bm" width="35.894" height="0.057" transform="translate(0 16.322)"/><rect class="bm" width="35.894" height="0.057" transform="translate(0 16.264)"/><rect class="bn" width="35.894" height="0.057" transform="translate(0 16.207)"/><rect class="bn" width="35.894" height="0.057" transform="translate(0 16.15)"/><rect class="bo" width="35.894" height="0.057" transform="translate(0 16.092)"/><rect class="bp" width="35.894" height="0.057" transform="translate(0 16.035)"/><rect class="bp" width="35.894" height="0.057" transform="translate(0 15.977)"/><rect class="bq" width="35.894" height="0.057" transform="translate(0 15.92)"/><rect class="bq" width="35.894" height="0.057" transform="translate(0 15.862)"/><rect class="br" width="35.894" height="0.057" transform="translate(0 15.805)"/><rect class="bs" width="35.894" height="0.057" transform="translate(0 15.748)"/><rect class="bt" width="35.894" height="0.058" transform="translate(0 15.69)"/><rect class="bt" width="35.894" height="0.057" transform="translate(0 15.632)"/><rect class="bu" width="35.894" height="0.057" transform="translate(0 15.575)"/><rect class="bu" width="35.894" height="0.057" transform="translate(0 15.518)"/><rect class="bu" width="35.894" height="0.057" transform="translate(0 15.461)"/><rect class="bv" width="35.894" height="0.057" transform="translate(0 15.403)"/><rect class="bv" width="35.894" height="0.057" transform="translate(0 15.346)"/><rect class="bw" width="35.894" height="0.058" transform="translate(0 15.288)"/><rect class="bw" width="35.894" height="0.057" transform="translate(0 15.231)"/><rect class="bx" width="35.894" height="0.057" transform="translate(0 15.173)"/><rect class="bx" width="35.894" height="0.057" transform="translate(0 15.116)"/><rect class="by" width="35.894" height="0.057" transform="translate(0 15.058)"/><rect class="by" width="35.894" height="0.057" transform="translate(0 15.001)"/><rect class="by" width="35.894" height="0.057" transform="translate(0 14.944)"/><rect class="bz" width="35.894" height="0.057" transform="translate(0 14.886)"/><rect class="bz" width="35.894" height="0.058" transform="translate(0 14.829)"/><rect class="ca" width="35.894" height="0.057" transform="translate(0 14.771)"/><rect class="cb" width="35.894" height="0.057" transform="translate(0 14.714)"/><rect class="cc" width="35.894" height="0.057" transform="translate(0 14.656)"/><rect class="cc" width="35.894" height="0.057" transform="translate(0 14.599)"/><rect class="cc" width="35.894" height="0.057" transform="translate(0 14.542)"/><rect class="cd" width="35.894" height="0.057" transform="translate(0 14.484)"/><rect class="ce" width="35.894" height="0.057" transform="translate(0 14.427)"/><rect class="cf" width="35.894" height="0.057" transform="translate(0 14.369)"/><rect class="cf" width="35.894" height="0.057" transform="translate(0 14.312)"/><rect class="cf" width="35.894" height="0.057" transform="translate(0 14.254)"/><rect class="cg" width="35.894" height="0.057" transform="translate(0 14.197)"/><rect class="cg" width="35.894" height="0.057" transform="translate(0 14.14)"/><rect class="ch" width="35.894" height="0.057" transform="translate(0 14.082)"/><rect class="ch" width="35.894" height="0.057" transform="translate(0 14.025)"/><rect class="ch" width="35.894" height="0.057" transform="translate(0 13.967)"/><rect class="ci" width="35.894" height="0.057" transform="translate(0 13.91)"/><rect class="ci" width="35.894" height="0.057" transform="translate(0 13.852)"/><rect class="cj" width="35.894" height="0.057" transform="translate(0 13.795)"/><rect class="ck" width="35.894" height="0.057" transform="translate(0 13.738)"/><rect class="ck" width="35.894" height="0.057" transform="translate(0 13.68)"/><rect class="cl" width="35.894" height="0.057" transform="translate(0 13.623)"/><rect class="cl" width="35.894" height="0.057" transform="translate(0 13.565)"/><rect class="cm" width="35.894" height="0.057" transform="translate(0 13.508)"/><rect class="cm" width="35.894" height="0.057" transform="translate(0 13.451)"/><rect class="cn" width="35.894" height="0.057" transform="translate(0 13.393)"/><rect class="co" width="35.894" height="0.057" transform="translate(0 13.336)"/><rect class="co" width="35.894" height="0.057" transform="translate(0 13.278)"/><rect class="co" width="35.894" height="0.057" transform="translate(0 13.221)"/><rect class="cp" width="35.894" height="0.057" transform="translate(0 13.163)"/><rect class="cq" width="35.894" height="0.057" transform="translate(0 13.106)"/><rect class="cr" width="35.894" height="0.057" transform="translate(0 13.049)"/><rect class="cr" width="35.894" height="0.057" transform="translate(0 12.991)"/><rect class="cr" width="35.894" height="0.057" transform="translate(0 12.934)"/><rect class="cs" width="35.894" height="0.057" transform="translate(0 12.876)"/><rect class="cs" width="35.894" height="0.057" transform="translate(0 12.819)"/><rect class="ct" width="35.894" height="0.057" transform="translate(0 12.761)"/><rect class="cu" width="35.894" height="0.057" transform="translate(0 12.704)"/><rect class="cu" width="35.894" height="0.058" transform="translate(0 12.646)"/><rect class="cv" width="35.894" height="0.057" transform="translate(0 12.589)"/><rect class="cv" width="35.894" height="0.057" transform="translate(0 12.532)"/><rect class="cw" width="35.894" height="0.057" transform="translate(0 12.474)"/><rect class="cx" width="35.894" height="0.057" transform="translate(0 12.417)"/><rect class="cx" width="35.894" height="0.057" transform="translate(0 12.36)"/><rect class="cx" width="35.894" height="0.057" transform="translate(0 12.302)"/><rect class="cy" width="35.894" height="0.057" transform="translate(0 12.245)"/><rect class="cz" width="35.894" height="0.058" transform="translate(0 12.187)"/><rect class="da" width="35.894" height="0.057" transform="translate(0 12.13)"/><rect class="da" width="35.894" height="0.057" transform="translate(0 12.072)"/><rect class="da" width="35.894" height="0.057" transform="translate(0 12.015)"/><rect class="db" width="35.894" height="0.057" transform="translate(0 11.957)"/><rect class="db" width="35.894" height="0.094" transform="translate(0 11.864)"/><rect class="dc" width="35.894" height="0.093" transform="translate(0 11.771)"/><rect class="dc" width="35.894" height="0.094" transform="translate(0 11.677)"/><rect class="dc" width="35.894" height="0.093" transform="translate(0 11.584)"/><rect class="dd" width="35.894" height="0.094" transform="translate(0 11.49)"/><rect class="dd" width="35.894" height="0.093" transform="translate(0 11.397)"/><rect class="dd" width="35.894" height="0.094" transform="translate(0 11.303)"/><rect class="de" width="35.894" height="0.093" transform="translate(0 11.21)"/><rect class="de" width="35.894" height="0.094" transform="translate(0 11.117)"/><rect class="de" width="35.894" height="0.093" transform="translate(0 11.023)"/><rect class="df" width="35.894" height="0.094" transform="translate(0 10.93)"/><rect class="df" width="35.894" height="0.093" transform="translate(0 10.836)"/><rect class="df" width="35.894" height="0.094" transform="translate(0 10.743)"/><rect class="dg" width="35.894" height="0.093" transform="translate(0 10.65)"/><rect class="dg" width="35.894" height="0.094" transform="translate(0 10.556)"/><rect class="dg" width="35.894" height="0.093" transform="translate(0 10.463)"/><rect class="dh" width="35.894" height="0.094" transform="translate(0 10.369)"/><rect class="di" width="35.894" height="0.093" transform="translate(0 10.276)"/><rect class="di" width="35.894" height="0.094" transform="translate(0 10.182)"/><rect class="dj" width="35.894" height="0.093" transform="translate(0 10.089)"/><rect class="dk" width="35.894" height="0.094" transform="translate(0 9.996)"/><rect class="dl" width="35.894" height="0.093" transform="translate(0 9.902)"/><rect class="dl" width="35.894" height="0.094" transform="translate(0 9.809)"/><rect class="dm" width="35.894" height="0.093" transform="translate(0 9.715)"/><rect class="dn" width="35.894" height="0.094" transform="translate(0 9.622)"/><rect class="dn" width="35.894" height="0.093" transform="translate(0 9.529)"/><rect class="do" width="35.894" height="0.094" transform="translate(0 9.435)"/><rect class="dp" width="35.894" height="0.093" transform="translate(0 9.342)"/><rect class="dp" width="35.894" height="0.094" transform="translate(0 9.248)"/><rect class="dq" width="35.894" height="0.093" transform="translate(0 9.155)"/><rect class="dr" width="35.894" height="0.094" transform="translate(0 9.061)"/><rect class="dr" width="35.894" height="0.093" transform="translate(0 8.968)"/><rect class="ds" width="35.894" height="0.094" transform="translate(0 8.875)"/><rect class="dt" width="35.894" height="0.093" transform="translate(0 8.781)"/><rect class="dt" width="35.894" height="0.094" transform="translate(0 8.688)"/><rect class="du" width="35.894" height="0.093" transform="translate(0 8.594)"/><rect class="du" width="35.894" height="0.093" transform="translate(0 8.501)"/><rect class="du" width="35.894" height="0.093" transform="translate(0 8.408)"/><rect class="dv" width="35.894" height="0.093" transform="translate(0 8.314)"/><rect class="dv" width="35.894" height="0.093" transform="translate(0 8.221)"/><rect class="dv" width="35.894" height="0.093" transform="translate(0 8.127)"/><rect class="dw" width="35.894" height="0.093" transform="translate(0 8.034)"/><rect class="dw" width="35.894" height="0.093" transform="translate(0 7.941)"/><rect class="dx" width="35.894" height="0.093" transform="translate(0 7.847)"/><rect class="dy" width="35.894" height="0.093" transform="translate(0 7.754)"/><rect class="dy" width="35.894" height="0.093" transform="translate(0 7.66)"/><rect class="dz" width="35.894" height="0.093" transform="translate(0 7.567)"/><rect class="dz" width="35.894" height="0.093" transform="translate(0 7.473)"/><rect class="ea" width="35.894" height="0.093" transform="translate(0 7.38)"/><rect class="eb" width="35.894" height="0.093" transform="translate(0 7.286)"/><rect class="eb" width="35.894" height="0.093" transform="translate(0 7.193)"/><rect class="ec" width="35.894" height="0.093" transform="translate(0 7.1)"/><rect class="ed" width="35.894" height="0.093" transform="translate(0 7.006)"/><rect class="ee" width="35.894" height="0.093" transform="translate(0 6.913)"/><rect class="ef" width="35.894" height="0.093" transform="translate(0 6.819)"/><rect class="ef" width="35.894" height="0.093" transform="translate(0 6.726)"/><rect class="eg" width="35.894" height="0.093" transform="translate(0 6.633)"/><rect class="eh" width="35.894" height="0.094" transform="translate(0 6.539)"/><rect class="eh" width="35.894" height="0.093" transform="translate(0 6.446)"/><rect class="ei" width="35.894" height="0.094" transform="translate(0 6.352)"/><rect class="ej" width="35.894" height="0.093" transform="translate(0 6.259)"/><rect class="ek" width="35.894" height="0.094" transform="translate(0 6.165)"/><rect class="ek" width="35.894" height="0.093" transform="translate(0 6.072)"/><rect class="el" width="35.894" height="0.094" transform="translate(0 5.979)"/><rect class="em" width="35.894" height="0.093" transform="translate(0 5.885)"/><rect class="en" width="35.894" height="0.094" transform="translate(0 5.792)"/><rect class="eo" width="35.894" height="0.093" transform="translate(0 5.699)"/><rect class="eo" width="35.894" height="0.094" transform="translate(0 5.605)"/><rect class="ep" width="35.894" height="0.093" transform="translate(0 5.512)"/><rect class="ep" width="35.894" height="0.094" transform="translate(0 5.418)"/><rect class="eq" width="35.894" height="0.093" transform="translate(0 5.325)"/><rect class="er" width="35.894" height="0.094" transform="translate(0 5.231)"/><rect class="er" width="35.894" height="0.093" transform="translate(0 5.138)"/><rect class="es" width="35.894" height="0.094" transform="translate(0 5.044)"/><rect class="es" width="35.894" height="0.093" transform="translate(0 4.951)"/><rect class="et" width="35.894" height="0.094" transform="translate(0 4.858)"/><rect class="eu" width="35.894" height="0.093" transform="translate(0 4.764)"/><rect class="eu" width="35.894" height="0.094" transform="translate(0 4.671)"/><rect class="ev" width="35.894" height="0.093" transform="translate(0 4.578)"/><rect class="ev" width="35.894" height="0.094" transform="translate(0 4.484)"/><rect class="ew" width="35.894" height="0.093" transform="translate(0 4.391)"/><rect class="ew" width="35.894" height="0.094" transform="translate(0 4.297)"/><rect class="ex" width="35.894" height="0.093" transform="translate(0 4.204)"/><rect class="ey" width="35.894" height="0.094" transform="translate(0 4.11)"/><rect class="ey" width="35.894" height="0.093" transform="translate(0 4.017)"/><rect class="ez" width="35.894" height="0.094" transform="translate(0 3.924)"/><rect class="ez" width="35.894" height="0.093" transform="translate(0 3.83)"/><rect class="fa" width="35.894" height="0.094" transform="translate(0 3.737)"/><rect class="fb" width="35.894" height="0.093" transform="translate(0 3.643)"/><rect class="fc" width="35.894" height="0.094" transform="translate(0 3.55)"/><rect class="fd" width="35.894" height="0.093" transform="translate(0 3.457)"/><rect class="fd" width="35.894" height="0.094" transform="translate(0 3.363)"/><rect class="fe" width="35.894" height="0.094" transform="translate(0 3.27)"/><rect class="fe" width="35.894" height="0.093" transform="translate(0 3.176)"/><rect class="ff" width="35.894" height="0.094" transform="translate(0 3.083)"/><rect class="ff" width="35.894" height="0.093" transform="translate(0 2.989)"/><rect class="fg" width="35.894" height="0.094" transform="translate(0 2.896)"/><rect class="fh" width="35.894" height="0.093" transform="translate(0 2.803)"/><rect class="fh" width="35.894" height="0.094" transform="translate(0 2.709)"/><rect class="v" width="35.894" height="0.093" transform="translate(0 2.616)"/><rect class="v" width="35.894" height="0.094" transform="translate(0 2.522)"/><rect class="t" width="35.894" height="0.093" transform="translate(0 2.429)"/><rect class="t" width="35.894" height="0.094" transform="translate(0 2.335)"/><rect class="fi" width="35.894" height="0.093" transform="translate(0 2.242)"/><rect class="fi" width="35.894" height="0.094" transform="translate(0 2.149)"/><rect class="fj" width="35.894" height="0.093" transform="translate(0 2.055)"/><rect class="fj" width="35.894" height="0.094" transform="translate(0 1.962)"/><rect class="q" width="35.894" height="0.093" transform="translate(0 1.868)"/><rect class="fk" width="35.894" height="0.094" transform="translate(0 1.775)"/><rect class="fk" width="35.894" height="0.093" transform="translate(0 1.682)"/><rect class="o" width="35.894" height="0.094" transform="translate(0 1.588)"/><rect class="o" width="35.894" height="0.093" transform="translate(0 1.495)"/><rect class="m" width="35.894" height="0.093" transform="translate(0 1.401)"/><rect class="m" width="35.894" height="0.093" transform="translate(0 1.308)"/><rect class="k" width="35.894" height="0.093" transform="translate(0 1.214)"/><rect class="k" width="35.894" height="0.093" transform="translate(0 1.121)"/><rect class="i" width="35.894" height="0.093" transform="translate(0 1.028)"/><rect class="i" width="35.894" height="0.093" transform="translate(0 0.934)"/><rect class="h" width="35.894" height="0.093" transform="translate(0 0.841)"/><rect class="h" width="35.894" height="0.093" transform="translate(0 0.747)"/><rect class="g" width="35.894" height="0.093" transform="translate(0 0.654)"/><rect class="g" width="35.894" height="0.093" transform="translate(0 0.561)"/><rect class="f" width="35.894" height="0.093" transform="translate(0 0.467)"/><rect class="f" width="35.894" height="0.093" transform="translate(0 0.374)"/><rect class="fl" width="35.894" height="0.094" transform="translate(0 0.28)"/><rect class="e" width="35.894" height="0.093" transform="translate(0 0.187)"/><rect class="fm" width="35.894" height="0.094" transform="translate(0 0.093)"/><rect class="d" width="35.894" height="0.093" transform="translate(0 0)"/><rect class="d" width="35.894" height="1.308" transform="translate(0 -1.308)"/></g></g><g transform="translate(9.378 13.134)"><g class="fn"><path class="af" d="M310.41,196.621v0Z" transform="translate(-310.41 -197.05)"/><rect class="af" width="0.069" height="14.66" transform="translate(0 -0.429)"/><rect class="ag" width="0.068" height="14.66" transform="translate(0.069 -0.429)"/><rect class="ah" width="0.069" height="14.66" transform="translate(0.137 -0.429)"/><rect class="ai" width="0.069" height="14.66" transform="translate(0.206 -0.429)"/><rect class="aj" width="0.069" height="14.66" transform="translate(0.275 -0.429)"/><rect class="ak" width="0.069" height="14.66" transform="translate(0.343 -0.429)"/><rect class="al" width="0.069" height="14.66" transform="translate(0.412 -0.429)"/><rect class="am" width="0.069" height="14.66" transform="translate(0.481 -0.429)"/><rect class="an" width="0.069" height="14.66" transform="translate(0.549 -0.429)"/><rect class="ao" width="0.069" height="14.66" transform="translate(0.618 -0.429)"/><rect class="ap" width="0.069" height="14.66" transform="translate(0.687 -0.429)"/><rect class="aq" width="0.069" height="14.66" transform="translate(0.755 -0.429)"/><rect class="ar" width="0.069" height="14.66" transform="translate(0.824 -0.429)"/><rect class="as" width="0.069" height="14.66" transform="translate(0.893 -0.429)"/><rect class="at" width="0.069" height="14.66" transform="translate(0.961 -0.429)"/><rect class="au" width="0.069" height="14.66" transform="translate(1.03 -0.429)"/><rect class="av" width="0.069" height="14.66" transform="translate(1.099 -0.429)"/><rect class="aw" width="0.069" height="14.66" transform="translate(1.167 -0.429)"/><rect class="ax" width="0.068" height="14.66" transform="translate(1.236 -0.429)"/><rect class="ay" width="0.069" height="14.66" transform="translate(1.305 -0.429)"/><rect class="az" width="0.069" height="14.66" transform="translate(1.373 -0.429)"/><rect class="ba" width="0.068" height="14.66" transform="translate(1.442 -0.429)"/><rect class="bb" width="0.069" height="14.66" transform="translate(1.511 -0.429)"/><rect class="bc" width="0.069" height="14.66" transform="translate(1.579 -0.429)"/><rect class="bd" width="0.069" height="14.66" transform="translate(1.648 -0.429)"/><rect class="be" width="0.068" height="14.66" transform="translate(1.717 -0.429)"/><rect class="bf" width="0.069" height="14.66" transform="translate(1.785 -0.429)"/><rect class="bg" width="0.069" height="14.66" transform="translate(1.854 -0.429)"/><rect class="bh" width="0.069" height="14.66" transform="translate(1.923 -0.429)"/><rect class="bi" width="0.069" height="14.66" transform="translate(1.991 -0.429)"/><rect class="bj" width="0.069" height="14.66" transform="translate(2.06 -0.429)"/><rect class="bk" width="0.069" height="14.66" transform="translate(2.129 -0.429)"/><rect class="bk" width="0.069" height="14.66" transform="translate(2.197 -0.429)"/><rect class="bl" width="0.069" height="14.66" transform="translate(2.266 -0.429)"/><rect class="bl" width="0.069" height="14.66" transform="translate(2.335 -0.429)"/><rect class="bm" width="0.069" height="14.66" transform="translate(2.403 -0.429)"/><rect class="bm" width="0.069" height="14.66" transform="translate(2.472 -0.429)"/><rect class="bn" width="0.069" height="14.66" transform="translate(2.541 -0.429)"/><rect class="bn" width="0.069" height="14.66" transform="translate(2.609 -0.429)"/><rect class="bo" width="0.069" height="14.66" transform="translate(2.678 -0.429)"/><rect class="bp" width="0.069" height="14.66" transform="translate(2.747 -0.429)"/><rect class="bp" width="0.069" height="14.66" transform="translate(2.815 -0.429)"/><rect class="bq" width="0.068" height="14.66" transform="translate(2.884 -0.429)"/><rect class="bq" width="0.069" height="14.66" transform="translate(2.953 -0.429)"/><rect class="br" width="0.069" height="14.66" transform="translate(3.021 -0.429)"/><rect class="bs" width="0.068" height="14.66" transform="translate(3.09 -0.429)"/><rect class="bt" width="0.069" height="14.66" transform="translate(3.159 -0.429)"/><rect class="bt" width="0.069" height="14.66" transform="translate(3.227 -0.429)"/><rect class="bu" width="0.068" height="14.66" transform="translate(3.296 -0.429)"/><rect class="bu" width="0.069" height="14.66" transform="translate(3.365 -0.429)"/><rect class="bu" width="0.069" height="14.66" transform="translate(3.433 -0.429)"/><rect class="bv" width="0.069" height="14.66" transform="translate(3.502 -0.429)"/><rect class="bv" width="0.069" height="14.66" transform="translate(3.571 -0.429)"/><rect class="bw" width="0.069" height="14.66" transform="translate(3.639 -0.429)"/><rect class="bw" width="0.069" height="14.66" transform="translate(3.708 -0.429)"/><rect class="bx" width="0.069" height="14.66" transform="translate(3.777 -0.429)"/><rect class="bx" width="0.069" height="14.66" transform="translate(3.845 -0.429)"/><rect class="by" width="0.069" height="14.66" transform="translate(3.914 -0.429)"/><rect class="by" width="0.069" height="14.66" transform="translate(3.983 -0.429)"/><rect class="by" width="0.069" height="14.66" transform="translate(4.051 -0.429)"/><rect class="bz" width="0.069" height="14.66" transform="translate(4.12 -0.429)"/><rect class="bz" width="0.069" height="14.66" transform="translate(4.189 -0.429)"/><rect class="ca" width="0.069" height="14.66" transform="translate(4.257 -0.429)"/><rect class="cb" width="0.069" height="14.66" transform="translate(4.326 -0.429)"/><rect class="cc" width="0.069" height="14.66" transform="translate(4.395 -0.429)"/><rect class="cc" width="0.069" height="14.66" transform="translate(4.463 -0.429)"/><rect class="cc" width="0.069" height="14.66" transform="translate(4.532 -0.429)"/><rect class="cd" width="0.069" height="14.66" transform="translate(4.601 -0.429)"/><rect class="ce" width="0.069" height="14.66" transform="translate(4.669 -0.429)"/><rect class="cf" width="0.068" height="14.66" transform="translate(4.738 -0.429)"/><rect class="cf" width="0.069" height="14.66" transform="translate(4.807 -0.429)"/><rect class="cf" width="0.069" height="14.66" transform="translate(4.875 -0.429)"/><rect class="cg" width="0.068" height="14.66" transform="translate(4.944 -0.429)"/><rect class="cg" width="0.069" height="14.66" transform="translate(5.013 -0.429)"/><rect class="ch" width="0.069" height="14.66" transform="translate(5.081 -0.429)"/><rect class="ch" width="0.069" height="14.66" transform="translate(5.15 -0.429)"/><rect class="ch" width="0.069" height="14.66" transform="translate(5.219 -0.429)"/><rect class="ci" width="0.069" height="14.66" transform="translate(5.287 -0.429)"/><rect class="ci" width="0.069" height="14.66" transform="translate(5.356 -0.429)"/><rect class="cj" width="0.069" height="14.66" transform="translate(5.425 -0.429)"/><rect class="ck" width="0.069" height="14.66" transform="translate(5.493 -0.429)"/><rect class="ck" width="0.069" height="14.66" transform="translate(5.562 -0.429)"/><rect class="cl" width="0.069" height="14.66" transform="translate(5.631 -0.429)"/><rect class="cl" width="0.069" height="14.66" transform="translate(5.699 -0.429)"/><rect class="cm" width="0.069" height="14.66" transform="translate(5.768 -0.429)"/><rect class="cm" width="0.069" height="14.66" transform="translate(5.837 -0.429)"/><rect class="cn" width="0.069" height="14.66" transform="translate(5.905 -0.429)"/><rect class="co" width="0.069" height="14.66" transform="translate(5.974 -0.429)"/><rect class="co" width="0.069" height="14.66" transform="translate(6.043 -0.429)"/><rect class="co" width="0.068" height="14.66" transform="translate(6.112 -0.429)"/><rect class="cp" width="0.069" height="14.66" transform="translate(6.18 -0.429)"/><rect class="cq" width="0.069" height="14.66" transform="translate(6.249 -0.429)"/><rect class="cr" width="0.068" height="14.66" transform="translate(6.318 -0.429)"/><rect class="cr" width="0.069" height="14.66" transform="translate(6.386 -0.429)"/><rect class="cr" width="0.069" height="14.66" transform="translate(6.455 -0.429)"/><rect class="cs" width="0.069" height="14.66" transform="translate(6.524 -0.429)"/><rect class="cs" width="0.069" height="14.66" transform="translate(6.592 -0.429)"/><rect class="ct" width="0.069" height="14.66" transform="translate(6.661 -0.429)"/><rect class="cu" width="0.069" height="14.66" transform="translate(6.73 -0.429)"/><rect class="cu" width="0.069" height="14.66" transform="translate(6.798 -0.429)"/><rect class="cv" width="0.069" height="14.66" transform="translate(6.867 -0.429)"/><rect class="cv" width="0.069" height="14.66" transform="translate(6.935 -0.429)"/><rect class="cw" width="0.069" height="14.66" transform="translate(7.004 -0.429)"/><rect class="cx" width="0.069" height="14.66" transform="translate(7.073 -0.429)"/><rect class="cx" width="0.069" height="14.66" transform="translate(7.141 -0.429)"/><rect class="cx" width="0.069" height="14.66" transform="translate(7.21 -0.429)"/><rect class="cy" width="0.069" height="14.66" transform="translate(7.279 -0.429)"/><rect class="cz" width="0.069" height="14.66" transform="translate(7.347 -0.429)"/><rect class="da" width="0.069" height="14.66" transform="translate(7.416 -0.429)"/><rect class="da" width="0.069" height="14.66" transform="translate(7.485 -0.429)"/><rect class="da" width="0.069" height="14.66" transform="translate(7.553 -0.429)"/><rect class="db" width="0.069" height="14.66" transform="translate(7.622 -0.429)"/><rect class="db" width="0.112" height="14.66" transform="translate(7.691 -0.429)"/><rect class="dc" width="0.112" height="14.66" transform="translate(7.803 -0.429)"/><rect class="dc" width="0.112" height="14.66" transform="translate(7.914 -0.429)"/><rect class="dc" width="0.112" height="14.66" transform="translate(8.026 -0.429)"/><rect class="dd" width="0.112" height="14.66" transform="translate(8.138 -0.429)"/><rect class="dd" width="0.112" height="14.66" transform="translate(8.249 -0.429)"/><rect class="dd" width="0.112" height="14.66" transform="translate(8.361 -0.429)"/><rect class="de" width="0.112" height="14.66" transform="translate(8.473 -0.429)"/><rect class="de" width="0.112" height="14.66" transform="translate(8.584 -0.429)"/><rect class="de" width="0.112" height="14.66" transform="translate(8.696 -0.429)"/><rect class="df" width="0.112" height="14.66" transform="translate(8.808 -0.429)"/><rect class="df" width="0.112" height="14.66" transform="translate(8.92 -0.429)"/><rect class="df" width="0.112" height="14.66" transform="translate(9.031 -0.429)"/><rect class="dg" width="0.112" height="14.66" transform="translate(9.143 -0.429)"/><rect class="dg" width="0.112" height="14.66" transform="translate(9.255 -0.429)"/><rect class="dg" width="0.112" height="14.66" transform="translate(9.366 -0.429)"/><rect class="dh" width="0.112" height="14.66" transform="translate(9.478 -0.429)"/><rect class="di" width="0.112" height="14.66" transform="translate(9.59 -0.429)"/><rect class="di" width="0.112" height="14.66" transform="translate(9.702 -0.429)"/><rect class="dj" width="0.112" height="14.66" transform="translate(9.813 -0.429)"/><rect class="dk" width="0.112" height="14.66" transform="translate(9.925 -0.429)"/><rect class="dl" width="0.112" height="14.66" transform="translate(10.037 -0.429)"/><rect class="dl" width="0.112" height="14.66" transform="translate(10.148 -0.429)"/><rect class="dm" width="0.112" height="14.66" transform="translate(10.26 -0.429)"/><rect class="dn" width="0.112" height="14.66" transform="translate(10.372 -0.429)"/><rect class="dn" width="0.112" height="14.66" transform="translate(10.483 -0.429)"/><rect class="do" width="0.112" height="14.66" transform="translate(10.595 -0.429)"/><rect class="dp" width="0.112" height="14.66" transform="translate(10.707 -0.429)"/><rect class="dp" width="0.112" height="14.66" transform="translate(10.819 -0.429)"/><rect class="dq" width="0.112" height="14.66" transform="translate(10.93 -0.429)"/><rect class="dr" width="0.112" height="14.66" transform="translate(11.042 -0.429)"/><rect class="dr" width="0.112" height="14.66" transform="translate(11.154 -0.429)"/><rect class="ds" width="0.112" height="14.66" transform="translate(11.265 -0.429)"/><rect class="dt" width="0.112" height="14.66" transform="translate(11.377 -0.429)"/><rect class="dt" width="0.112" height="14.66" transform="translate(11.489 -0.429)"/><rect class="du" width="0.112" height="14.66" transform="translate(11.6 -0.429)"/><rect class="du" width="0.112" height="14.66" transform="translate(11.712 -0.429)"/><rect class="du" width="0.112" height="14.66" transform="translate(11.824 -0.429)"/><rect class="dv" width="0.112" height="14.66" transform="translate(11.936 -0.429)"/><rect class="dv" width="0.112" height="14.66" transform="translate(12.047 -0.429)"/><rect class="dv" width="0.112" height="14.66" transform="translate(12.159 -0.429)"/><rect class="dw" width="0.112" height="14.66" transform="translate(12.271 -0.429)"/><rect class="dw" width="0.112" height="14.66" transform="translate(12.382 -0.429)"/><rect class="dx" width="0.112" height="14.66" transform="translate(12.494 -0.429)"/><rect class="dy" width="0.112" height="14.66" transform="translate(12.606 -0.429)"/><rect class="dy" width="0.112" height="14.66" transform="translate(12.718 -0.429)"/><rect class="dz" width="0.112" height="14.66" transform="translate(12.829 -0.429)"/><rect class="dz" width="0.112" height="14.66" transform="translate(12.941 -0.429)"/><rect class="ea" width="0.112" height="14.66" transform="translate(13.053 -0.429)"/><rect class="eb" width="0.112" height="14.66" transform="translate(13.164 -0.429)"/><rect class="eb" width="0.112" height="14.66" transform="translate(13.276 -0.429)"/><rect class="ec" width="0.112" height="14.66" transform="translate(13.388 -0.429)"/><rect class="ed" width="0.112" height="14.66" transform="translate(13.5 -0.429)"/><rect class="ee" width="0.112" height="14.66" transform="translate(13.611 -0.429)"/><rect class="ef" width="0.112" height="14.66" transform="translate(13.723 -0.429)"/><rect class="ef" width="0.112" height="14.66" transform="translate(13.835 -0.429)"/><rect class="eg" width="0.112" height="14.66" transform="translate(13.947 -0.429)"/><rect class="eh" width="0.112" height="14.66" transform="translate(14.058 -0.429)"/><rect class="eh" width="0.112" height="14.66" transform="translate(14.17 -0.429)"/><rect class="ei" width="0.112" height="14.66" transform="translate(14.282 -0.429)"/><rect class="ej" width="0.112" height="14.66" transform="translate(14.393 -0.429)"/><rect class="ek" width="0.112" height="14.66" transform="translate(14.505 -0.429)"/><rect class="ek" width="0.112" height="14.66" transform="translate(14.617 -0.429)"/><rect class="el" width="0.112" height="14.66" transform="translate(14.728 -0.429)"/><rect class="em" width="0.112" height="14.66" transform="translate(14.84 -0.429)"/><rect class="en" width="0.112" height="14.66" transform="translate(14.952 -0.429)"/><rect class="eo" width="0.112" height="14.66" transform="translate(15.064 -0.429)"/><rect class="eo" width="0.112" height="14.66" transform="translate(15.175 -0.429)"/><rect class="ep" width="0.112" height="14.66" transform="translate(15.287 -0.429)"/><rect class="ep" width="0.112" height="14.66" transform="translate(15.399 -0.429)"/><rect class="eq" width="0.112" height="14.66" transform="translate(15.51 -0.429)"/><rect class="er" width="0.112" height="14.66" transform="translate(15.622 -0.429)"/><rect class="er" width="0.112" height="14.66" transform="translate(15.734 -0.429)"/><rect class="es" width="0.112" height="14.66" transform="translate(15.846 -0.429)"/><rect class="es" width="0.112" height="14.66" transform="translate(15.957 -0.429)"/><rect class="et" width="0.112" height="14.66" transform="translate(16.069 -0.429)"/><rect class="eu" width="0.112" height="14.66" transform="translate(16.181 -0.429)"/><rect class="eu" width="0.112" height="14.66" transform="translate(16.292 -0.429)"/><rect class="ev" width="0.112" height="14.66" transform="translate(16.404 -0.429)"/><rect class="ev" width="0.112" height="14.66" transform="translate(16.516 -0.429)"/><rect class="ew" width="0.112" height="14.66" transform="translate(16.627 -0.429)"/><rect class="ew" width="0.112" height="14.66" transform="translate(16.739 -0.429)"/><rect class="ex" width="0.112" height="14.66" transform="translate(16.851 -0.429)"/><rect class="ey" width="0.112" height="14.66" transform="translate(16.963 -0.429)"/><rect class="ey" width="0.112" height="14.66" transform="translate(17.074 -0.429)"/><rect class="ez" width="0.112" height="14.66" transform="translate(17.186 -0.429)"/><rect class="ez" width="0.112" height="14.66" transform="translate(17.298 -0.429)"/><rect class="fa" width="0.112" height="14.66" transform="translate(17.409 -0.429)"/><rect class="fb" width="0.112" height="14.66" transform="translate(17.521 -0.429)"/><rect class="fc" width="0.112" height="14.66" transform="translate(17.633 -0.429)"/><rect class="fd" width="0.112" height="14.66" transform="translate(17.744 -0.429)"/><rect class="fd" width="0.112" height="14.66" transform="translate(17.856 -0.429)"/><rect class="fe" width="0.112" height="14.66" transform="translate(17.968 -0.429)"/><rect class="fe" width="0.112" height="14.66" transform="translate(18.079 -0.429)"/><rect class="ff" width="0.112" height="14.66" transform="translate(18.191 -0.429)"/><rect class="ff" width="0.112" height="14.66" transform="translate(18.303 -0.429)"/><rect class="fg" width="0.112" height="14.66" transform="translate(18.415 -0.429)"/><rect class="fh" width="0.112" height="14.66" transform="translate(18.526 -0.429)"/><rect class="fh" width="0.112" height="14.66" transform="translate(18.638 -0.429)"/><rect class="v" width="0.112" height="14.66" transform="translate(18.75 -0.429)"/><rect class="v" width="0.112" height="14.66" transform="translate(18.862 -0.429)"/><rect class="t" width="0.112" height="14.66" transform="translate(18.973 -0.429)"/><rect class="t" width="0.112" height="14.66" transform="translate(19.085 -0.429)"/><rect class="fi" width="0.112" height="14.66" transform="translate(19.197 -0.429)"/><rect class="fi" width="0.112" height="14.66" transform="translate(19.308 -0.429)"/><rect class="fj" width="0.112" height="14.66" transform="translate(19.42 -0.429)"/><rect class="fj" width="0.112" height="14.66" transform="translate(19.532 -0.429)"/><rect class="q" width="0.112" height="14.66" transform="translate(19.643 -0.429)"/><rect class="fk" width="0.112" height="14.66" transform="translate(19.755 -0.429)"/><rect class="fk" width="0.112" height="14.66" transform="translate(19.867 -0.429)"/><rect class="o" width="0.112" height="14.66" transform="translate(19.979 -0.429)"/><rect class="o" width="0.112" height="14.66" transform="translate(20.09 -0.429)"/><rect class="m" width="0.112" height="14.66" transform="translate(20.202 -0.429)"/><rect class="m" width="0.112" height="14.66" transform="translate(20.314 -0.429)"/><rect class="k" width="0.112" height="14.66" transform="translate(20.425 -0.429)"/><rect class="k" width="0.112" height="14.66" transform="translate(20.537 -0.429)"/><rect class="i" width="0.112" height="14.66" transform="translate(20.649 -0.429)"/><rect class="i" width="0.112" height="14.66" transform="translate(20.76 -0.429)"/><rect class="h" width="0.112" height="14.66" transform="translate(20.872 -0.429)"/><rect class="h" width="0.112" height="14.66" transform="translate(20.984 -0.429)"/><rect class="g" width="0.112" height="14.66" transform="translate(21.096 -0.429)"/><rect class="g" width="0.112" height="14.66" transform="translate(21.207 -0.429)"/><rect class="f" width="0.112" height="14.66" transform="translate(21.319 -0.429)"/><rect class="f" width="0.112" height="14.66" transform="translate(21.431 -0.429)"/><rect class="fl" width="0.112" height="14.66" transform="translate(21.542 -0.429)"/><rect class="e" width="0.112" height="14.66" transform="translate(21.654 -0.429)"/><rect class="fm" width="0.112" height="14.66" transform="translate(21.766 -0.429)"/><rect class="d" width="0.112" height="14.66" transform="translate(21.878 -0.429)"/><path class="d" d="M379.95,211.28v0Z" transform="translate(-357.961 -197.05)"/></g></g><g transform="translate(18.539 27.364)"><g class="fo"><path class="af" d="M339.383,242.981v0Z" transform="translate(-339.383 -242.981)"/><rect class="af" width="0.025" height="9.486" transform="translate(0 0)"/><rect class="ag" width="0.025" height="9.486" transform="translate(0.025 0)"/><rect class="ah" width="0.025" height="9.486" transform="translate(0.051 0)"/><rect class="ai" width="0.025" height="9.486" transform="translate(0.076 0)"/><rect class="aj" width="0.025" height="9.486" transform="translate(0.101 0)"/><rect class="ak" width="0.025" height="9.486" transform="translate(0.126 0)"/><rect class="al" width="0.025" height="9.486" transform="translate(0.152 0)"/><rect class="am" width="0.025" height="9.486" transform="translate(0.177 0)"/><rect class="an" width="0.025" height="9.486" transform="translate(0.202 0)"/><rect class="ao" width="0.025" height="9.486" transform="translate(0.227 0)"/><rect class="ap" width="0.025" height="9.486" transform="translate(0.253 0)"/><rect class="aq" width="0.025" height="9.486" transform="translate(0.278 0)"/><rect class="ar" width="0.025" height="9.486" transform="translate(0.303 0)"/><rect class="as" width="0.025" height="9.486" transform="translate(0.328 0)"/><rect class="at" width="0.025" height="9.486" transform="translate(0.354 0)"/><rect class="au" width="0.025" height="9.486" transform="translate(0.379 0)"/><rect class="av" width="0.025" height="9.486" transform="translate(0.404 0)"/><rect class="aw" width="0.025" height="9.486" transform="translate(0.429 0)"/><rect class="ax" width="0.025" height="9.486" transform="translate(0.455 0)"/><rect class="ay" width="0.025" height="9.486" transform="translate(0.48 0)"/><rect class="az" width="0.025" height="9.486" transform="translate(0.505 0)"/><rect class="ba" width="0.025" height="9.486" transform="translate(0.53 0)"/><rect class="bb" width="0.025" height="9.486" transform="translate(0.555 0)"/><rect class="bc" width="0.025" height="9.486" transform="translate(0.581 0)"/><rect class="bd" width="0.025" height="9.486" transform="translate(0.606 0)"/><rect class="be" width="0.025" height="9.486" transform="translate(0.631 0)"/><rect class="bf" width="0.025" height="9.486" transform="translate(0.657 0)"/><rect class="bg" width="0.025" height="9.486" transform="translate(0.682 0)"/><rect class="bh" width="0.025" height="9.486" transform="translate(0.707 0)"/><rect class="bi" width="0.025" height="9.486" transform="translate(0.732 0)"/><rect class="bj" width="0.025" height="9.486" transform="translate(0.758 0)"/><rect class="bk" width="0.025" height="9.486" transform="translate(0.783 0)"/><rect class="bk" width="0.025" height="9.486" transform="translate(0.808 0)"/><rect class="bl" width="0.025" height="9.486" transform="translate(0.833 0)"/><rect class="bl" width="0.025" height="9.486" transform="translate(0.858 0)"/><rect class="bm" width="0.025" height="9.486" transform="translate(0.884 0)"/><rect class="bm" width="0.025" height="9.486" transform="translate(0.909 0)"/><rect class="bn" width="0.025" height="9.486" transform="translate(0.934 0)"/><rect class="bn" width="0.025" height="9.486" transform="translate(0.959 0)"/><rect class="bo" width="0.025" height="9.486" transform="translate(0.985 0)"/><rect class="bp" width="0.025" height="9.486" transform="translate(1.01 0)"/><rect class="bp" width="0.025" height="9.486" transform="translate(1.035 0)"/><rect class="bq" width="0.025" height="9.486" transform="translate(1.06 0)"/><rect class="bq" width="0.025" height="9.486" transform="translate(1.086 0)"/><rect class="br" width="0.025" height="9.486" transform="translate(1.111 0)"/><rect class="bs" width="0.025" height="9.486" transform="translate(1.136 0)"/><rect class="bt" width="0.025" height="9.486" transform="translate(1.161 0)"/><rect class="bt" width="0.025" height="9.486" transform="translate(1.187 0)"/><rect class="bu" width="0.025" height="9.486" transform="translate(1.212 0)"/><rect class="bu" width="0.025" height="9.486" transform="translate(1.237 0)"/><rect class="bu" width="0.025" height="9.486" transform="translate(1.262 0)"/><rect class="bv" width="0.025" height="9.486" transform="translate(1.288 0)"/><rect class="bv" width="0.025" height="9.486" transform="translate(1.313 0)"/><rect class="bw" width="0.025" height="9.486" transform="translate(1.338 0)"/><rect class="bw" width="0.025" height="9.486" transform="translate(1.363 0)"/><rect class="bx" width="0.025" height="9.486" transform="translate(1.389 0)"/><rect class="bx" width="0.025" height="9.486" transform="translate(1.414 0)"/><rect class="by" width="0.025" height="9.486" transform="translate(1.439 0)"/><rect class="by" width="0.025" height="9.486" transform="translate(1.464 0)"/><rect class="by" width="0.025" height="9.486" transform="translate(1.49 0)"/><rect class="bz" width="0.025" height="9.486" transform="translate(1.515 0)"/><rect class="bz" width="0.025" height="9.486" transform="translate(1.54 0)"/><rect class="ca" width="0.025" height="9.486" transform="translate(1.565 0)"/><rect class="cb" width="0.025" height="9.486" transform="translate(1.591 0)"/><rect class="cc" width="0.025" height="9.486" transform="translate(1.616 0)"/><rect class="cc" width="0.025" height="9.486" transform="translate(1.641 0)"/><rect class="cc" width="0.025" height="9.486" transform="translate(1.666 0)"/><rect class="cd" width="0.025" height="9.486" transform="translate(1.691 0)"/><rect class="ce" width="0.025" height="9.486" transform="translate(1.717 0)"/><rect class="cf" width="0.025" height="9.486" transform="translate(1.742 0)"/><rect class="cf" width="0.025" height="9.486" transform="translate(1.767 0)"/><rect class="cf" width="0.025" height="9.486" transform="translate(1.793 0)"/><rect class="cg" width="0.025" height="9.486" transform="translate(1.818 0)"/><rect class="cg" width="0.025" height="9.486" transform="translate(1.843 0)"/><rect class="ch" width="0.025" height="9.486" transform="translate(1.868 0)"/><rect class="ch" width="0.025" height="9.486" transform="translate(1.893 0)"/><rect class="ch" width="0.025" height="9.486" transform="translate(1.919 0)"/><rect class="ci" width="0.025" height="9.486" transform="translate(1.944 0)"/><rect class="ci" width="0.025" height="9.486" transform="translate(1.969 0)"/><rect class="cj" width="0.025" height="9.486" transform="translate(1.994 0)"/><rect class="ck" width="0.025" height="9.486" transform="translate(2.02 0)"/><rect class="ck" width="0.025" height="9.486" transform="translate(2.045 0)"/><rect class="cl" width="0.025" height="9.486" transform="translate(2.07 0)"/><rect class="cl" width="0.025" height="9.486" transform="translate(2.096 0)"/><rect class="cm" width="0.025" height="9.486" transform="translate(2.121 0)"/><rect class="cm" width="0.025" height="9.486" transform="translate(2.146 0)"/><rect class="cn" width="0.025" height="9.486" transform="translate(2.171 0)"/><rect class="co" width="0.025" height="9.486" transform="translate(2.196 0)"/><rect class="co" width="0.025" height="9.486" transform="translate(2.222 0)"/><rect class="co" width="0.025" height="9.486" transform="translate(2.247 0)"/><rect class="cp" width="0.025" height="9.486" transform="translate(2.272 0)"/><rect class="cq" width="0.025" height="9.486" transform="translate(2.297 0)"/><rect class="cr" width="0.025" height="9.486" transform="translate(2.323 0)"/><rect class="cr" width="0.025" height="9.486" transform="translate(2.348 0)"/><rect class="cr" width="0.025" height="9.486" transform="translate(2.373 0)"/><rect class="cs" width="0.025" height="9.486" transform="translate(2.399 0)"/><rect class="cs" width="0.025" height="9.486" transform="translate(2.424 0)"/><rect class="ct" width="0.025" height="9.486" transform="translate(2.449 0)"/><rect class="cu" width="0.025" height="9.486" transform="translate(2.474 0)"/><rect class="cu" width="0.025" height="9.486" transform="translate(2.499 0)"/><rect class="cv" width="0.025" height="9.486" transform="translate(2.525 0)"/><rect class="cv" width="0.025" height="9.486" transform="translate(2.55 0)"/><rect class="cw" width="0.025" height="9.486" transform="translate(2.575 0)"/><rect class="cx" width="0.025" height="9.486" transform="translate(2.6 0)"/><rect class="cx" width="0.025" height="9.486" transform="translate(2.626 0)"/><rect class="cx" width="0.025" height="9.486" transform="translate(2.651 0)"/><rect class="cy" width="0.025" height="9.486" transform="translate(2.676 0)"/><rect class="cz" width="0.025" height="9.486" transform="translate(2.701 0)"/><rect class="da" width="0.025" height="9.486" transform="translate(2.726 0)"/><rect class="da" width="0.025" height="9.486" transform="translate(2.752 0)"/><rect class="da" width="0.025" height="9.486" transform="translate(2.777 0)"/><rect class="db" width="0.025" height="9.486" transform="translate(2.802 0)"/><rect class="db" width="0.041" height="9.486" transform="translate(2.828 0)"/><rect class="dc" width="0.041" height="9.486" transform="translate(2.869 0)"/><rect class="dc" width="0.041" height="9.486" transform="translate(2.91 0)"/><rect class="dc" width="0.041" height="9.486" transform="translate(2.951 0)"/><rect class="dd" width="0.041" height="9.486" transform="translate(2.992 0)"/><rect class="dd" width="0.041" height="9.486" transform="translate(3.033 0)"/><rect class="dd" width="0.041" height="9.486" transform="translate(3.074 0)"/><rect class="de" width="0.041" height="9.486" transform="translate(3.115 0)"/><rect class="de" width="0.041" height="9.486" transform="translate(3.156 0)"/><rect class="de" width="0.041" height="9.486" transform="translate(3.197 0)"/><rect class="df" width="0.041" height="9.486" transform="translate(3.238 0)"/><rect class="df" width="0.041" height="9.486" transform="translate(3.279 0)"/><rect class="df" width="0.041" height="9.486" transform="translate(3.32 0)"/><rect class="dg" width="0.041" height="9.486" transform="translate(3.362 0)"/><rect class="dg" width="0.041" height="9.486" transform="translate(3.403 0)"/><rect class="dg" width="0.041" height="9.486" transform="translate(3.444 0)"/><rect class="dh" width="0.041" height="9.486" transform="translate(3.485 0)"/><rect class="di" width="0.041" height="9.486" transform="translate(3.526 0)"/><rect class="di" width="0.041" height="9.486" transform="translate(3.567 0)"/><rect class="dj" width="0.041" height="9.486" transform="translate(3.608 0)"/><rect class="dk" width="0.041" height="9.486" transform="translate(3.649 0)"/><rect class="dl" width="0.041" height="9.486" transform="translate(3.69 0)"/><rect class="dl" width="0.041" height="9.486" transform="translate(3.731 0)"/><rect class="dm" width="0.041" height="9.486" transform="translate(3.772 0)"/><rect class="dn" width="0.041" height="9.486" transform="translate(3.813 0)"/><rect class="dn" width="0.041" height="9.486" transform="translate(3.854 0)"/><rect class="do" width="0.041" height="9.486" transform="translate(3.895 0)"/><rect class="dp" width="0.041" height="9.486" transform="translate(3.936 0)"/><rect class="dp" width="0.041" height="9.486" transform="translate(3.978 0)"/><rect class="dq" width="0.041" height="9.486" transform="translate(4.019 0)"/><rect class="dr" width="0.041" height="9.486" transform="translate(4.06 0)"/><rect class="dr" width="0.041" height="9.486" transform="translate(4.101 0)"/><rect class="ds" width="0.041" height="9.486" transform="translate(4.142 0)"/><rect class="dt" width="0.041" height="9.486" transform="translate(4.183 0)"/><rect class="dt" width="0.041" height="9.486" transform="translate(4.224 0)"/><rect class="du" width="0.041" height="9.486" transform="translate(4.265 0)"/><rect class="du" width="0.041" height="9.486" transform="translate(4.306 0)"/><rect class="du" width="0.041" height="9.486" transform="translate(4.347 0)"/><rect class="dv" width="0.041" height="9.486" transform="translate(4.388 0)"/><rect class="dv" width="0.041" height="9.486" transform="translate(4.429 0)"/><rect class="dv" width="0.041" height="9.486" transform="translate(4.47 0)"/><rect class="dw" width="0.041" height="9.486" transform="translate(4.511 0)"/><rect class="dw" width="0.041" height="9.486" transform="translate(4.553 0)"/><rect class="dx" width="0.041" height="9.486" transform="translate(4.594 0)"/><rect class="dy" width="0.041" height="9.486" transform="translate(4.635 0)"/><rect class="dy" width="0.041" height="9.486" transform="translate(4.676 0)"/><rect class="dz" width="0.041" height="9.486" transform="translate(4.717 0)"/><rect class="dz" width="0.041" height="9.486" transform="translate(4.758 0)"/><rect class="ea" width="0.041" height="9.486" transform="translate(4.799 0)"/><rect class="eb" width="0.041" height="9.486" transform="translate(4.84 0)"/><rect class="eb" width="0.041" height="9.486" transform="translate(4.881 0)"/><rect class="ec" width="0.041" height="9.486" transform="translate(4.922 0)"/><rect class="ed" width="0.041" height="9.486" transform="translate(4.963 0)"/><rect class="ee" width="0.041" height="9.486" transform="translate(5.004 0)"/><rect class="ef" width="0.041" height="9.486" transform="translate(5.045 0)"/><rect class="ef" width="0.041" height="9.486" transform="translate(5.086 0)"/><rect class="eg" width="0.041" height="9.486" transform="translate(5.127 0)"/><rect class="eh" width="0.041" height="9.486" transform="translate(5.168 0)"/><rect class="eh" width="0.041" height="9.486" transform="translate(5.209 0)"/><rect class="ei" width="0.041" height="9.486" transform="translate(5.25 0)"/><rect class="ej" width="0.041" height="9.486" transform="translate(5.292 0)"/><rect class="ek" width="0.041" height="9.486" transform="translate(5.333 0)"/><rect class="ek" width="0.041" height="9.486" transform="translate(5.374 0)"/><rect class="el" width="0.041" height="9.486" transform="translate(5.415 0)"/><rect class="em" width="0.041" height="9.486" transform="translate(5.456 0)"/><rect class="en" width="0.041" height="9.486" transform="translate(5.497 0)"/><rect class="eo" width="0.041" height="9.486" transform="translate(5.538 0)"/><rect class="eo" width="0.041" height="9.486" transform="translate(5.579 0)"/><rect class="ep" width="0.041" height="9.486" transform="translate(5.62 0)"/><rect class="ep" width="0.041" height="9.486" transform="translate(5.661 0)"/><rect class="eq" width="0.041" height="9.486" transform="translate(5.702 0)"/><rect class="er" width="0.041" height="9.486" transform="translate(5.743 0)"/><rect class="er" width="0.041" height="9.486" transform="translate(5.784 0)"/><rect class="es" width="0.041" height="9.486" transform="translate(5.825 0)"/><rect class="es" width="0.041" height="9.486" transform="translate(5.866 0)"/><rect class="et" width="0.041" height="9.486" transform="translate(5.908 0)"/><rect class="eu" width="0.041" height="9.486" transform="translate(5.949 0)"/><rect class="eu" width="0.041" height="9.486" transform="translate(5.99 0)"/><rect class="ev" width="0.041" height="9.486" transform="translate(6.031 0)"/><rect class="ev" width="0.041" height="9.486" transform="translate(6.072 0)"/><rect class="ew" width="0.041" height="9.486" transform="translate(6.113 0)"/><rect class="ew" width="0.041" height="9.486" transform="translate(6.154 0)"/><rect class="ex" width="0.041" height="9.486" transform="translate(6.195 0)"/><rect class="ey" width="0.041" height="9.486" transform="translate(6.236 0)"/><rect class="ey" width="0.041" height="9.486" transform="translate(6.277 0)"/><rect class="ez" width="0.041" height="9.486" transform="translate(6.318 0)"/><rect class="ez" width="0.041" height="9.486" transform="translate(6.359 0)"/><rect class="fa" width="0.041" height="9.486" transform="translate(6.4 0)"/><rect class="fb" width="0.041" height="9.486" transform="translate(6.441 0)"/><rect class="fc" width="0.041" height="9.486" transform="translate(6.483 0)"/><rect class="fd" width="0.041" height="9.486" transform="translate(6.524 0)"/><rect class="fd" width="0.041" height="9.486" transform="translate(6.565 0)"/><rect class="fe" width="0.041" height="9.486" transform="translate(6.606 0)"/><rect class="fe" width="0.041" height="9.486" transform="translate(6.647 0)"/><rect class="ff" width="0.041" height="9.486" transform="translate(6.688 0)"/><rect class="ff" width="0.041" height="9.486" transform="translate(6.729 0)"/><rect class="fg" width="0.041" height="9.486" transform="translate(6.77 0)"/><rect class="fh" width="0.041" height="9.486" transform="translate(6.811 0)"/><rect class="fh" width="0.041" height="9.486" transform="translate(6.852 0)"/><rect class="v" width="0.041" height="9.486" transform="translate(6.893 0)"/><rect class="v" width="0.041" height="9.486" transform="translate(6.934 0)"/><rect class="t" width="0.041" height="9.486" transform="translate(6.975 0)"/><rect class="t" width="0.041" height="9.486" transform="translate(7.016 0)"/><rect class="fi" width="0.041" height="9.486" transform="translate(7.057 0)"/><rect class="fi" width="0.041" height="9.486" transform="translate(7.099 0)"/><rect class="fj" width="0.041" height="9.486" transform="translate(7.14 0)"/><rect class="fj" width="0.041" height="9.486" transform="translate(7.181 0)"/><rect class="q" width="0.041" height="9.486" transform="translate(7.222 0)"/><rect class="fk" width="0.041" height="9.486" transform="translate(7.263 0)"/><rect class="fk" width="0.041" height="9.486" transform="translate(7.304 0)"/><rect class="o" width="0.041" height="9.486" transform="translate(7.345 0)"/><rect class="o" width="0.041" height="9.486" transform="translate(7.386 0)"/><rect class="m" width="0.041" height="9.486" transform="translate(7.427 0)"/><rect class="m" width="0.041" height="9.486" transform="translate(7.468 0)"/><rect class="k" width="0.041" height="9.486" transform="translate(7.509 0)"/><rect class="k" width="0.041" height="9.486" transform="translate(7.55 0)"/><rect class="i" width="0.041" height="9.486" transform="translate(7.591 0)"/><rect class="i" width="0.041" height="9.486" transform="translate(7.632 0)"/><rect class="h" width="0.041" height="9.486" transform="translate(7.674 0)"/><rect class="h" width="0.041" height="9.486" transform="translate(7.715 0)"/><rect class="g" width="0.041" height="9.486" transform="translate(7.756 0)"/><rect class="g" width="0.041" height="9.486" transform="translate(7.797 0)"/><rect class="f" width="0.041" height="9.486" transform="translate(7.838 0)"/><rect class="f" width="0.041" height="9.486" transform="translate(7.879 0)"/><rect class="fl" width="0.041" height="9.486" transform="translate(7.92 0)"/><rect class="e" width="0.041" height="9.486" transform="translate(7.961 0)"/><rect class="fm" width="0.041" height="9.486" transform="translate(8.002 0)"/><rect class="d" width="0.041" height="9.486" transform="translate(8.043 0)"/><path class="d" d="M364.949,252.467v0Z" transform="translate(-356.865 -242.981)"/></g></g></g><g transform="translate(22.704 0)"><path class="fp" d="M367.225,168.095l-5.7.786c3.575-12.528,13.786-18.6,23.471-25.762,0,1.419.062,2.461-.01,3.492-.433,6.1-.967,12.2-1.29,18.307a6.6,6.6,0,0,0,1.07,3.572,47.781,47.781,0,0,0,4.065,5.407c.879,1.043.739,1.947.456,3.185a14.745,14.745,0,0,1-8.181,10.575c-5.947,3.112-9.292,8.9-11.47,15.164a2.652,2.652,0,0,1-3.121,2.132c-3.053-.127-6.118.042-9.176-.024-1.1-.023-2.817-.018-3.161-.635-.881-1.578-1.932-3.7-1.535-5.248,2.816-10.984,6.473-21.643,14.366-30.247C367.091,168.7,367.092,168.534,367.225,168.095Zm-9.759,25.168,4.02,6,4.032-6Zm8.5-15.828c6.045,1.519,8.824.109,9.775-4.871Z" transform="translate(-352.553 -143.118)"/></g></g></g></svg>