<svg xmlns="http://www.w3.org/2000/svg" xmlns:xlink="http://www.w3.org/1999/xlink" width="292.986" height="74.369" viewBox="0 0 292.986 74.369"><defs><style>.a{font-size:56px;}.a,.c{font-family:TrebuchetMS, Trebuchet MS;}.b{font-family:TrebuchetMS-Bold, Trebuchet MS;font-weight:700;}.c{fill:#161615;font-size:10px;letter-spacing:0.5em;}.d{fill:url(#a);}.e{fill:url(#b);}.f{fill:url(#c);}.g{fill:url(#d);}.h{fill:#464545;}</style><linearGradient id="a" y1="0.5" x2="1" y2="0.5" gradientUnits="objectBoundingBox"><stop offset="0" stop-color="#005fab"/><stop offset="0.291" stop-color="#0073be"/><stop offset="0.66" stop-color="#005fab"/></linearGradient><linearGradient id="b" x1="0.392" y1="-0.501" x2="0.643" y2="1.708" xlink:href="#a"/><linearGradient id="c" x1="0.5" y1="1" x2="0.5" gradientUnits="objectBoundingBox"><stop offset="0" stop-color="#52c0f2"/><stop offset="0.35" stop-color="#0090df"/><stop offset="1" stop-color="#005fab"/></linearGradient><linearGradient id="d" x1="0" y1="0.5" x2="1" y2="0.5" xlink:href="#c"/></defs><g transform="translate(-1122 -979.669)"><g transform="translate(1198.986 979.669)"><text class="a" transform="translate(0 53)"><tspan x="0" y="0">Next</tspan><tspan class="b" y="0">line</tspan></text><text class="c" transform="translate(12.357 72.369)"><tspan x="0" y="0">Telecomunicaciones</tspan></text></g><g transform="translate(1122 982.681)"><g transform="translate(0 4.851)"><path class="d" d="M1141.781,1017.126l11.387,3.1-8.959,5.461-6.055-5.838Z" transform="translate(-1122.512 -988.718)"/><path class="e" d="M1157.845,1003.409l-23.923,0-6.78,5.45.606.6h26.561l3.536-5.522Z" transform="translate(-1122.163 -988.284)"/><path class="f" d="M1163.331,987.9l-2.979,7.447s-21.225-.439-32.767,13.62l-5.585-5.552S1136.77,986.282,1163.331,987.9Z" transform="translate(-1122 -987.789)"/><path class="g" d="M1133.151,1014.457l5.213,5.338s4.095-6.207,17.252-8.689l2.855-7.7S1145.812,1002.913,1133.151,1014.457Z" transform="translate(-1122.353 -988.284)"/><path class="g" d="M1144.046,1025.418l5.461,5.834,3.847-10.923S1150.376,1021.074,1144.046,1025.418Z" transform="translate(-1122.698 -988.82)"/></g><path class="h" d="M1165.892,1011.539l-6.566.9c4.116-14.425,15.875-21.417,27.026-29.665,0,1.634.073,2.833-.012,4.021-.5,7.027-1.114,14.047-1.485,21.08a7.6,7.6,0,0,0,1.233,4.114,54.853,54.853,0,0,0,4.681,6.225c1.012,1.2.85,2.243.524,3.668a16.979,16.979,0,0,1-9.42,12.177c-6.848,3.583-10.7,10.242-13.208,17.461-.687,1.977-1.617,2.537-3.593,2.454-3.516-.147-7.046.048-10.567-.027-1.265-.027-3.244-.021-3.641-.732-1.014-1.817-2.224-4.258-1.766-6.042,3.243-12.649,7.454-24.923,16.542-34.83C1165.739,1012.241,1165.74,1012.045,1165.892,1011.539Zm-11.237,28.981,4.628,6.9,4.643-6.9Zm9.783-18.226c6.961,1.749,10.162.125,11.257-5.609Z" transform="translate(-1122.855 -982.779)"/></g></g></svg>