<?xml version="1.0" encoding="utf-8"?>
<!-- Generator: Adobe Illustrator 24.2.3, SVG Export Plug-In . SVG Version: 6.00 Build 0)  -->
<svg version="1.1" id="Capa_1" xmlns="http://www.w3.org/2000/svg" xmlns:xlink="http://www.w3.org/1999/xlink" x="0px" y="0px"
	 viewBox="0 0 50 50" style="enable-background:new 0 0 50 50;" xml:space="preserve">
<style type="text/css">
	.st0{fill:#0099F7;}
</style>
<g transform="translate(-313.871 -314)">
	<path d="M314.5,362.8h48.8c0.3,0,0.6,0.3,0.6,0.6l0,0c0,0.3-0.3,0.6-0.6,0.6h-48.8c-0.3,0-0.6-0.3-0.6-0.6l0,0
		C313.9,363,314.2,362.8,314.5,362.8z"/>
	<path class="st0" d="M316.4,355.5v2.4c0,0.7,0.5,1.2,1.2,1.2H328c0.7,0,1.2-0.5,1.2-1.2v-2.4c0-0.7-0.5-1.2-1.2-1.2h-10.5
		C316.9,354.3,316.4,354.9,316.4,355.5z M327.6,357.5H318v-1.6h9.6V357.5z"/>
	<path class="st0" d="M332.4,355.5v2.4c0,0.7,0.5,1.2,1.2,1.2h10.5c0.7,0,1.2-0.5,1.2-1.2v-2.4c0-0.7-0.5-1.2-1.2-1.2h-10.5
		C333,354.3,332.4,354.9,332.4,355.5z M343.7,357.5H334v-1.6h9.6V357.5z"/>
	<path class="st0" d="M348.5,355.5v2.4c0,0.7,0.5,1.2,1.2,1.2h10.5c0.7,0,1.2-0.5,1.2-1.2v-2.4c0-0.7-0.5-1.2-1.2-1.2h-10.5
		C349.1,354.3,348.5,354.9,348.5,355.5z M359.8,357.5h-9.7v-1.6h9.7V357.5z"/>
	<path d="M363.8,327.3v-2.6c0-0.4-0.2-0.7-0.4-0.9l-11-9.4c-0.2-0.2-0.5-0.3-0.8-0.3h-1.3c-0.3,0-0.6,0.1-0.8,0.3l-10.6,9.1
		l-10.6-9.1c-0.2-0.2-0.5-0.3-0.8-0.3h-1.3c-0.3,0-0.6,0.1-0.8,0.3l-11,9.4c-0.3,0.2-0.4,0.6-0.4,0.9v2.6c0,0.7,0.5,1.2,1.2,1.2h0.4
		V343h-0.8c-0.4,0-0.8,0.4-0.8,0.8l0,0c0,0.4,0.4,0.8,0.8,0.8h0.8v4.8h-0.8c-0.4,0-0.8,0.4-0.8,0.8l0,0c0,0.4,0.4,0.8,0.8,0.8H363
		c0.4,0,0.8-0.4,0.8-0.8l0,0c0-0.4-0.4-0.8-0.8-0.8h-0.8v-4.8h0.8c0.4,0,0.8-0.4,0.8-0.8l0,0c0-0.4-0.4-0.8-0.8-0.8h-0.8v-14.5h0.4
		C363.3,328.5,363.8,327.9,363.8,327.3z M339.7,326.9v-1.6h22.5v1.6H339.7z M328.4,344.6v4.8h-4.8v-4.8H328.4z M333.2,343h-6.4v-9.7
		h6.4L333.2,343z M330,344.6h4.8v4.8H330V344.6z M336.5,344.6h4.8v4.8h-4.8V344.6z M342.9,344.6h4.8v4.8h-4.8L342.9,344.6z
		 M349.3,344.6h4.8v4.8h-4.8V344.6z M350.9,343h-6.4v-9.7h6.4V343z M339.7,343h-1.6v-14.5h1.6V343z M315.5,326.9v-1.6h22.5v1.6
		H315.5z M321.8,323.7l5-4.2l5,4.2H321.8z M346.5,323.7l4.4-4.1l4.4,4.1H346.5z M350.4,315.6h1l9.4,8h-3.1l-5.9-5.5
		c-0.5-0.4-1.2-0.4-1.6,0l-5.9,5.5H341L350.4,315.6z M326.3,315.6h1l9.4,8h-2.4l-6.8-5.6c-0.4-0.4-1.1-0.4-1.5,0l-6.8,5.6h-2.4
		L326.3,315.6z M317.2,328.5h19.3V343h-1.6v-10.1c0-0.7-0.5-1.2-1.2-1.2h-7.2c-0.7,0-1.2,0.5-1.2,1.2V343h-8L317.2,328.5z
		 M317.2,344.6h4.8v4.8h-4.8V344.6z M360.6,349.4h-4.8v-4.8h4.8V349.4z M360.6,343h-8v-10.1c0-0.7-0.5-1.2-1.2-1.2h-7.2
		c-0.7,0-1.2,0.5-1.2,1.2V343h-1.6v-14.5h19.3L360.6,343z"/>
	<path class="st0" d="M357.8,330.1h-2.4c-0.7,0-1.2,0.5-1.2,1.2c0,0,0,0,0,0v2.4c0,0.7,0.5,1.2,1.2,1.2h2.4c0.7,0,1.2-0.5,1.2-1.2
		v-2.4C359,330.7,358.4,330.1,357.8,330.1z M357.4,333.3h-1.6v-1.6h1.6V333.3z"/>
	<path class="st0" d="M357.8,336.6h-2.4c-0.7,0-1.2,0.5-1.2,1.2c0,0,0,0,0,0v2.4c0,0.7,0.5,1.2,1.2,1.2h2.4c0.7,0,1.2-0.5,1.2-1.2
		v-2.4C359,337.1,358.4,336.6,357.8,336.6z M357.4,339.8h-1.6v-1.6h1.6V339.8z"/>
	<path class="st0" d="M318.8,331.3v2.4c0,0.7,0.5,1.2,1.2,1.2h2.4c0.7,0,1.2-0.5,1.2-1.2v-2.4c0-0.7-0.5-1.2-1.2-1.2H320
		C319.3,330.1,318.8,330.7,318.8,331.3z M322,333.3h-1.6v-1.6h1.6V333.3z"/>
	<path class="st0" d="M320,341.4h2.4c0.7,0,1.2-0.5,1.2-1.2v-2.4c0-0.7-0.5-1.2-1.2-1.2c0,0,0,0,0,0H320c-0.7,0-1.2,0.5-1.2,1.2v2.4
		C318.8,340.9,319.3,341.4,320,341.4C320,341.4,320,341.4,320,341.4z M320.4,338.2h1.6v1.6h-1.6V338.2z"/>
</g>
</svg>
