<svg xmlns="http://www.w3.org/2000/svg" width="80" height="79.999" viewBox="0 0 80 79.999"><defs><style>.a{fill:#005fab;}.b{fill:#0090df;}</style></defs><g transform="translate(-319.999 -319.998)"><path class="a" d="M406.666,528V506.667H408a1.333,1.333,0,0,0,1.333-1.333V500A1.333,1.333,0,0,0,408,498.667H393.333V496h1.333A1.333,1.333,0,0,0,396,494.667v-5.333A1.333,1.333,0,0,0,394.666,488h-32a1.333,1.333,0,0,0-1.333,1.333v5.333A1.333,1.333,0,0,0,362.666,496H364v2.667H349.333A1.333,1.333,0,0,0,348,500v5.333a1.333,1.333,0,0,0,1.333,1.333h1.333V528h-5.333A1.333,1.333,0,0,0,344,529.333h0a1.333,1.333,0,0,0,1.333,1.333H412a1.333,1.333,0,0,0,1.333-1.333h0A1.333,1.333,0,0,0,412,528ZM364,528H353.333V506.667H364Zm0-24H350.667v-2.667H364Zm0-13.333h29.333v2.667H364ZM381.333,528H376v-5.333h5.333Zm9.333,0H384v-5.333h0a1.333,1.333,0,0,0,1.333-1.333h0A1.333,1.333,0,0,0,384,520H373.333A1.333,1.333,0,0,0,372,521.333h0a1.333,1.333,0,0,0,1.333,1.333h0V528h-6.667V496h24ZM404,528H393.333V506.667H404Zm-10.667-24v-2.667h13.333V504Zm0,0" transform="translate(-18.668 -130.669)"/><rect class="b" width="2.642" height="2.642" rx="1.321" transform="translate(350.565 367.922)"/><rect class="b" width="2.642" height="2.642" rx="1.321" transform="translate(355.848 367.922)"/><rect class="b" width="2.642" height="2.642" rx="1.321" transform="translate(361.508 367.922)"/><rect class="b" width="2.642" height="2.642" rx="1.321" transform="translate(366.791 367.922)"/><rect class="b" width="2.642" height="2.642" rx="1.321" transform="translate(350.565 373.205)"/><rect class="b" width="2.642" height="2.642" rx="1.321" transform="translate(355.848 373.205)"/><rect class="b" width="2.642" height="2.642" rx="1.321" transform="translate(361.508 373.205)"/><rect class="b" width="2.642" height="2.642" rx="1.321" transform="translate(366.791 373.205)"/><rect class="b" width="2.642" height="2.64" rx="1.32" transform="translate(350.565 378.488)"/><rect class="b" width="2.642" height="2.643" rx="1.321" transform="translate(355.848 378.488)"/><rect class="b" width="2.642" height="2.643" rx="1.321" transform="translate(361.508 378.488)"/><rect class="b" width="2.642" height="2.643" rx="1.321" transform="translate(366.791 378.488)"/><rect class="b" width="2.642" height="2.642" rx="1.321" transform="translate(350.565 384.149)"/><rect class="b" width="2.642" height="2.642" rx="1.321" transform="translate(355.848 384.149)"/><rect class="b" width="2.642" height="2.642" rx="1.321" transform="translate(361.508 384.149)"/><rect class="b" width="2.642" height="2.642" rx="1.321" transform="translate(366.791 384.149)"/><rect class="b" width="5.283" height="3.019" rx="1.509" transform="translate(377.357 378.488)"/><rect class="b" width="5.283" height="2.642" rx="1.321" transform="translate(377.357 384.149)"/><rect class="b" width="5.283" height="2.642" rx="1.321" transform="translate(377.357 389.432)"/><rect class="b" width="5.283" height="3.019" rx="1.509" transform="translate(337.357 378.488)"/><rect class="b" width="5.283" height="2.642" rx="1.321" transform="translate(337.357 384.149)"/><rect class="b" width="5.283" height="2.642" rx="1.321" transform="translate(337.357 389.432)"/><rect class="a" width="2.642" height="2.642" rx="1.321" transform="translate(397.357 397.356)"/><rect class="a" width="2.642" height="2.642" rx="1.321" transform="translate(319.999 397.356)"/><rect class="b" width="3.019" height="2.642" rx="1.321" transform="translate(358.489 337.356)"/><path class="b" d="M482.2,377.033a1.331,1.331,0,0,0,1.618.2,4,4,0,0,1,4.065,0,1.331,1.331,0,0,0,1.618-.2h0a1.333,1.333,0,0,0-.259-2.088,6.69,6.69,0,0,0-6.784,0,1.333,1.333,0,0,0-.259,2.088Z" transform="translate(-125.854 -42.018)"/><g transform="translate(346.665 319.998)"><path class="b" d="M479.8,352.544a12.018,12.018,0,0,0-14.73,0,1.332,1.332,0,0,0-.118,1.991h0a1.321,1.321,0,0,0,1.741.124,9.349,9.349,0,0,1,11.482,0,1.321,1.321,0,0,0,1.741-.124h0A1.332,1.332,0,0,0,479.8,352.544Z" transform="translate(-459.107 -343.351)"/><path class="b" d="M453.333,346.665A13.333,13.333,0,1,0,440,333.332a13.333,13.333,0,0,0,13.333,13.333Zm0-24a10.667,10.667,0,1,1-10.667,10.667,10.667,10.667,0,0,1,10.667-10.667Zm0,0" transform="translate(-440 -319.998)"/></g><path class="a" d="M558,410h-6.667a1.333,1.333,0,0,0-.942.39l-8,8a1.333,1.333,0,0,0-.39.942v4a1.333,1.333,0,0,0,1.333,1.333h0a1.333,1.333,0,0,0,1.333-1.333v-3.448l7.219-7.219H558a1.333,1.333,0,0,0,1.333-1.333h0A1.333,1.333,0,0,0,558,410Zm1.333,0" transform="translate(-172.668 -70.002)"/><g transform="translate(389.332 319.999)"><path class="b" d="M636,398a4,4,0,1,0,4,4,4,4,0,0,0-4-4Zm0,5.333A1.333,1.333,0,1,1,637.334,402,1.333,1.333,0,0,1,636,403.333Zm0,0" transform="translate(-632.001 -380.667)"/><path class="b" d="M636,328a4,4,0,1,0-4-4,4,4,0,0,0,4,4Zm0-5.333A1.333,1.333,0,1,1,634.667,324,1.333,1.333,0,0,1,636,322.667Zm0,0" transform="translate(-632 -320.001)"/></g><path class="a" d="M582.276,364.243,584,362.519a1.333,1.333,0,0,0,0-1.885h0a1.333,1.333,0,0,0-1.885,0l-1.333,1.333h-7.448A1.333,1.333,0,0,0,572,363.3h0a1.333,1.333,0,0,0,1.333,1.333h8a1.334,1.334,0,0,0,.943-.391Zm0,0" transform="translate(-196.002 -31.301)"/><path class="a" d="M397.333,423.333v-4a1.333,1.333,0,0,0-.391-.943l-8-8A1.333,1.333,0,0,0,388,410h-6.666A1.333,1.333,0,0,0,380,411.333h0a1.333,1.333,0,0,0,1.333,1.333h6.115l7.219,7.219v3.448A1.333,1.333,0,0,0,396,424.666h0A1.333,1.333,0,0,0,397.333,423.333Zm0,1.333" transform="translate(-46.668 -70.002)"/><g transform="translate(322.666 319.999)"><path class="b" d="M340,402a4,4,0,1,0-4,4,4,4,0,0,0,4-4Zm-5.333,0A1.333,1.333,0,1,1,336,403.334,1.334,1.334,0,0,1,334.667,402Zm0,0" transform="translate(-332.001 -380.668)"/><path class="b" d="M336,328a4,4,0,1,0-4-4,4,4,0,0,0,4,4Zm0-5.333A1.333,1.333,0,1,1,334.667,324,1.334,1.334,0,0,1,336,322.667Zm0,0" transform="translate(-332 -320.001)"/></g><path class="a" d="M375.3,364.633h8a1.333,1.333,0,0,0,1.333-1.333h0a1.333,1.333,0,0,0-1.333-1.333h-7.448l-1.333-1.333a1.333,1.333,0,0,0-1.885,0h0a1.333,1.333,0,0,0,0,1.885l1.724,1.724a1.334,1.334,0,0,0,.943.391Zm0,0" transform="translate(-40.634 -31.301)"/><rect class="a" width="2.642" height="2.642" rx="1.321" transform="translate(355.848 349.432)"/><rect class="a" width="2.642" height="2.642" rx="1.321" transform="translate(361.508 349.432)"/><rect class="b" width="2.642" height="2.642" rx="1.321" transform="translate(384.15 362.639)"/><rect class="b" width="2.642" height="2.642" rx="1.321" transform="translate(384.15 357.356)"/><rect class="b" width="2.642" height="5.283" rx="1.321" transform="translate(384.15 349.432)"/><rect class="b" width="2.642" height="2.642" rx="1.321" transform="translate(333.206 362.639)"/><rect class="b" width="2.642" height="2.642" rx="1.321" transform="translate(333.206 357.356)"/><rect class="b" width="2.642" height="5.283" rx="1.321" transform="translate(333.206 349.432)"/></g></svg>