<svg xmlns="http://www.w3.org/2000/svg" width="80" height="80" viewBox="0 0 80 80"><defs><style>.a{fill:#005fab;}</style></defs><g transform="translate(-313.871 -314)"><rect class="a" width="80" height="2" rx="1" transform="translate(313.871 392)"/><path class="a" d="M332,615.93v3.86a1.93,1.93,0,0,0,1.93,1.93h16.727a1.93,1.93,0,0,0,1.93-1.93v-3.86a1.93,1.93,0,0,0-1.93-1.93H333.93A1.93,1.93,0,0,0,332,615.93Zm18.013,3.217h-15.44v-2.573h15.44Zm0,0" transform="translate(-14.156 -235.481)"/><path class="a" d="M452,615.93v3.86a1.93,1.93,0,0,0,1.93,1.93h16.726a1.93,1.93,0,0,0,1.93-1.93v-3.86a1.93,1.93,0,0,0-1.93-1.93H453.93A1.93,1.93,0,0,0,452,615.93Zm18.013,3.217h-15.44v-2.573h15.44Zm0,0" transform="translate(-108.422 -235.481)"/><path class="a" d="M572,615.93v3.86a1.93,1.93,0,0,0,1.93,1.93h16.727a1.93,1.93,0,0,0,1.93-1.93v-3.86a1.93,1.93,0,0,0-1.93-1.93H573.93A1.93,1.93,0,0,0,572,615.93Zm18.013,3.217h-15.44v-2.573h15.44Zm0,0" transform="translate(-202.689 -235.481)"/><path class="a" d="M393.773,335.23v-4.208a1.93,1.93,0,0,0-.674-1.466l-17.608-15.092a1.929,1.929,0,0,0-1.256-.465h-2.1a1.929,1.929,0,0,0-1.256.465l-17,14.567-17-14.567a1.93,1.93,0,0,0-1.256-.465h-2.1a1.929,1.929,0,0,0-1.256.465l-17.608,15.092a1.93,1.93,0,0,0-.674,1.466v4.208a1.93,1.93,0,0,0,1.93,1.93h.643v23.16h-1.287A1.287,1.287,0,0,0,314,361.606h0a1.287,1.287,0,0,0,1.287,1.287h1.287v7.72h-1.287A1.287,1.287,0,0,0,314,371.9h0a1.287,1.287,0,0,0,1.287,1.287h77.2a1.287,1.287,0,0,0,1.287-1.287h0a1.287,1.287,0,0,0-1.287-1.287H391.2v-7.72h1.287a1.287,1.287,0,0,0,1.287-1.287h0a1.287,1.287,0,0,0-1.287-1.287H391.2V337.16h.643A1.93,1.93,0,0,0,393.773,335.23Zm-38.6-.643v-2.573H391.2v2.573ZM337.16,362.893v7.72h-7.72v-7.72Zm7.72-2.573H334.587V344.88H344.88Zm-5.147,2.573h7.72v7.72h-7.72Zm10.293,0h7.72v7.72h-7.72Zm10.293,0h7.72v7.72h-7.72Zm10.293,0h7.72v7.72h-7.72Zm2.573-2.573H362.893V344.88h10.293Zm-18.013,0H352.6V337.16h2.573Zm-38.6-25.733v-2.573H352.6v2.573Zm10-5.147,8.015-6.652,8.015,6.652Zm39.584,0,7.031-6.565,7.03,6.565Zm6.22-12.867H374l15.011,12.867h-5.022l-9.483-8.855a1.93,1.93,0,0,0-2.634,0l-9.483,8.855h-5.022Zm-38.6,0H335.4l15.011,12.867H346.63l-10.811-8.974a1.93,1.93,0,0,0-2.465,0l-10.811,8.974h-3.778ZM319.147,337.16h30.88v23.16h-2.573V344.237a1.93,1.93,0,0,0-1.93-1.93h-11.58a1.93,1.93,0,0,0-1.93,1.93V360.32H319.147Zm0,25.733h7.72v7.72h-7.72Zm69.48,7.72h-7.72v-7.72h7.72Zm0-10.293H375.76V344.237a1.93,1.93,0,0,0-1.93-1.93H362.25a1.93,1.93,0,0,0-1.93,1.93V360.32h-2.573V337.16h30.88Zm0,0" transform="translate(-0.016)"/><path class="a" d="M619.79,434h-3.86a1.93,1.93,0,0,0-1.93,1.93v3.86a1.93,1.93,0,0,0,1.93,1.93h3.86a1.93,1.93,0,0,0,1.93-1.93v-3.86A1.93,1.93,0,0,0,619.79,434Zm-.643,5.147h-2.573v-2.573h2.573Zm0,0" transform="translate(-235.683 -94.2)"/><path class="a" d="M619.79,482h-3.86a1.93,1.93,0,0,0-1.93,1.93v3.86a1.93,1.93,0,0,0,1.93,1.93h3.86a1.93,1.93,0,0,0,1.93-1.93v-3.86A1.93,1.93,0,0,0,619.79,482Zm-.643,5.147h-2.573v-2.573h2.573Zm0,0" transform="translate(-235.683 -131.881)"/><path class="a" d="M350,435.93v3.86a1.93,1.93,0,0,0,1.93,1.93h3.86a1.93,1.93,0,0,0,1.93-1.93v-3.86a1.93,1.93,0,0,0-1.93-1.93h-3.86A1.93,1.93,0,0,0,350,435.93Zm5.147,3.217h-2.573v-2.573h2.573Zm0,0" transform="translate(-28.296 -94.2)"/><path class="a" d="M351.93,489.72h3.86a1.93,1.93,0,0,0,1.93-1.93v-3.86a1.93,1.93,0,0,0-1.93-1.93h-3.86a1.93,1.93,0,0,0-1.93,1.93v3.86A1.93,1.93,0,0,0,351.93,489.72Zm.643-5.147h2.573v2.573h-2.573Zm0,0" transform="translate(-28.296 -131.881)"/></g></svg>