<svg xmlns="http://www.w3.org/2000/svg" xmlns:xlink="http://www.w3.org/1999/xlink" width="437.563" height="352.467" viewBox="0 0 437.563 352.467"><defs><style>.a{fill:#d5ecf6;}.b{fill:#ddf7fc;}.c{fill:#abb8fc;}.d{fill:#e6e9f8;}.e{fill:#b5eff9;}.f{fill:#a7d9f7;}.g{fill:#cce9f1;}.h{fill:#fff;}.ab,.ae,.ah,.ai,.aj,.al,.i,.j,.l,.r{mix-blend-mode:soft-light;isolation:isolate;}.i{fill:url(#a);}.j{fill:url(#b);}.k{fill:#1d70b7;}.m{fill:url(#c);}.n{fill:url(#d);}.o{fill:url(#e);}.p{fill:#009ee2;}.q{fill:#185386;}.r{fill:url(#f);}.s{fill:#a8cfef;}.t{fill:#6dc8f2;}.af,.u{opacity:0.1;}.v{fill:#edb6a4;}.w{fill:#393768;}.x{fill:#9ffbfb;}.y{fill:#385575;}.z{fill:#7285b5;}.aa{fill:#e0a494;}.ab{fill:url(#g);}.ac{fill:#9f91d3;}.ad{fill:#adadea;}.ae{fill:url(#h);}.ag{fill:#a8beef;}.ah{fill:url(#i);}.ai{fill:url(#j);}.aj{fill:url(#k);}.ak{fill:#7ea3ef;}.al{fill:url(#l);}</style><linearGradient id="a" x1="0.464" y1="-0.546" x2="0.51" y2="0.991" gradientUnits="objectBoundingBox"><stop offset="0" stop-color="#fff"/><stop offset="0.098" stop-color="#f9f9f9"/><stop offset="0.222" stop-color="#e9e9e9"/><stop offset="0.36" stop-color="#cfcfcf"/><stop offset="0.508" stop-color="#ababab"/><stop offset="0.665" stop-color="#7c7c7c"/><stop offset="0.829" stop-color="#434343"/><stop offset="0.996" stop-color="#010101"/><stop offset="1"/></linearGradient><linearGradient id="b" x1="-22.137" y1="-0.546" x2="-22.091" y2="0.991" xlink:href="#a"/><linearGradient id="c" x1="0.497" y1="-0.57" x2="0.507" y2="3.313" gradientUnits="objectBoundingBox"><stop offset="0" stop-color="#fff"/><stop offset="1"/></linearGradient><linearGradient id="d" x1="0.492" y1="-1.814" x2="0.509" y2="3.281" xlink:href="#c"/><linearGradient id="e" x1="0.479" y1="-4.183" x2="0.513" y2="3.219" xlink:href="#c"/><linearGradient id="f" x1="0.123" y1="-0.236" x2="0.97" y2="1.419" xlink:href="#c"/><linearGradient id="g" x1="-0.383" y1="0.187" x2="0.996" y2="0.864" xlink:href="#c"/><linearGradient id="h" x1="-188.991" y1="-0.135" x2="-189.65" y2="0.757" xlink:href="#c"/><linearGradient id="i" x1="0.588" y1="0.334" x2="0.357" y2="0.734" xlink:href="#c"/><linearGradient id="j" x1="0.017" y1="0.184" x2="0.946" y2="1.032" xlink:href="#c"/><linearGradient id="k" x1="-0.128" y1="0.155" x2="0.978" y2="0.772" xlink:href="#c"/><linearGradient id="l" x1="0.397" y1="0.296" x2="0.637" y2="0.963" xlink:href="#c"/></defs><g transform="translate(-1723.948 1.636)"><g transform="translate(1781.092 270.492)"><path class="a" d="M1947.482,374.245c-123.319,0-169.6,23.876-134.427,27.658s49.156,25.475,10.7,29.438-11.542,19.7,62,16.921,51.329-19.381,126.761-17.789,260.232-36.152,116.059-55.393C2017.19,360.215,1947.482,374.245,1947.482,374.245Z" transform="translate(-1801.62 -368.25)"/></g><g transform="translate(1723.948 -1.636)"><g transform="translate(0 117.138)"><g transform="translate(60.941)"><path class="b" d="M1869.7,269.735c-20.8-5.356-31.879-12.094-29.353-25.606s1.136-13.948-10.4-22.147-4.825-12.576-4.629-21.1-8.5-12.4-15.778-20.211.8-26.833,12.958-22.442,3.189,17.785,13.339,25.549,28.242,2.382,28.335,14.235-12.025,23.117.624,29,21.241,10.1,17.227,24.1S1869.7,269.735,1869.7,269.735Z" transform="translate(-1806.781 -157.582)"/><path class="c" d="M1828.494,185.651q17.029,31.169,33.831,62.459c5.627,10.416,11.411,20.75,16.71,31.336,5.23,10.624,10.51,21.22,15.205,32.123l-.274.143c-6.264-10.084-11.94-20.473-17.669-30.836-5.658-10.4-10.832-21.052-16.163-31.622q-16.071-31.67-31.914-63.459Z" transform="translate(-1812.447 -165)"/></g><g transform="translate(16.578 8.606)"><path class="d" d="M1833.167,207.5c-1.074,1.641-3.278,3.291-5.836,5.2-3.765,2.816-8.337,6.258-10.849,11.082a37.428,37.428,0,0,0-10.272-14.423c-.481-.415-1-.768-1.488-1.165-.529-4.956,1.744-9.713,3.757-13.917,1.292-2.691,2.408-5.018,2.6-7.034a.8.8,0,1,0-1.584-.152c-.17,1.735-1.227,3.943-2.456,6.5-1.819,3.8-4.018,8.433-3.975,13.308a76.822,76.822,0,0,0-18.41-9.975.738.738,0,0,0-.024-.784c-2.609-3.883-2.744-8.828-2.865-13.192-.076-2.768-.141-5.162-.834-6.909a.738.738,0,1,0-1.371.546c.595,1.5.659,3.774.729,6.405.114,4.113.283,9.168,2.723,13.3-2.657-.988-5.346-1.883-8.052-2.706a.709.709,0,0,0-.573-.248c-.058,0-.114.02-.172.025q-4.082-1.223-8.169-2.3c2.329.827,4.661,1.643,6.988,2.472-4.506.791-8.386,3.644-11.556,6-2.111,1.571-3.934,2.924-5.484,3.387a.738.738,0,1,0,.419,1.415c1.8-.535,3.723-1.964,5.945-3.616,3.5-2.6,7.474-5.555,12.14-5.906a.736.736,0,0,0,.632-.468c.006-.015,0-.035.008-.051a110.954,110.954,0,0,1,11.439,4.789q2.37,1.121,4.688,2.356c-4.591,1.069-8.516,4.094-11.751,6.588-2.244,1.735-4.183,3.228-5.844,3.757a.8.8,0,1,0,.479,1.517c1.931-.611,3.974-2.188,6.338-4.012,3.726-2.874,7.948-6.131,12.968-6.6a.16.16,0,0,1,.039-.015,59.191,59.191,0,0,1,11.321,8.2,36.79,36.79,0,0,1,3.4,3.62c-5.293,1.741-9.458,5.874-12.851,9.276-2.252,2.262-4.2,4.211-5.973,5.043a.9.9,0,0,0,.755,1.623c2.065-.963,4.115-3.021,6.485-5.4,3.567-3.576,7.6-7.576,12.763-9.029.77,1.028,1.51,2.077,2.188,3.163a41.03,41.03,0,0,1,4.186,9.839,72.686,72.686,0,0,1,1.745,9.39c-4.062-.115-8,1.535-11.246,2.9a19.684,19.684,0,0,1-5.717,1.842.688.688,0,0,0,.063,1.374c1.749-.082,3.807-.947,6.186-1.947,3.347-1.4,7.09-2.964,10.91-2.774.418,3.587.689,7.219.992,10.858.371,3.968.814,7.96,1.434,11.932a23.806,23.806,0,0,0-8.625-.913,15.779,15.779,0,0,1-4.8-.3.55.55,0,1,0-.354,1.042,16.314,16.314,0,0,0,5.176.358c2.86-.067,6.054-.141,8.816,1.061.494,2.96,1.073,5.91,1.86,8.82a80.235,80.235,0,0,0,8.574,20.616c7.574,12.905,18.366,23.443,29.968,32.464-5.392-5.026-10.846-9.982-15.526-15.644a97.827,97.827,0,0,1-12.665-17.832,86.507,86.507,0,0,1-8-20.209c-.028-.108-.045-.219-.073-.327a.533.533,0,0,0,.187-.162c1.89-2.932,5.237-4.481,8.19-5.851a16.293,16.293,0,0,0,4.486-2.608.551.551,0,0,0-.779-.778,15.735,15.735,0,0,1-4.172,2.387c-2.744,1.273-6.1,2.852-8.214,5.664a135.888,135.888,0,0,1-2.829-19.958c-.029-.313-.059-.631-.089-.945,3.314-2.511,7.676-3.093,11.554-3.593,2.56-.329,4.773-.612,6.328-1.418a.688.688,0,0,0-.634-1.221,19.7,19.7,0,0,1-5.871,1.273c-3.61.466-8.007,1.049-11.524,3.372-.6-6.493-1.229-13.079-3.015-19.531-.219-.751-.471-1.495-.73-2.237,2.044-5.25,6.812-8.821,11.027-11.974,2.689-2.011,5.016-3.749,6.261-5.657a.895.895,0,1,0-1.5-.977Z" transform="translate(-1748.856 -170.943)"/><path class="e" d="M1788.6,188.875a.61.61,0,0,1-1.03.035c-5.842-8.564-2.37-13.283-3.869-18.37-1.323-4.49,4.725,4.348,7.989,5.839C1794.429,177.628,1790.079,186.152,1788.6,188.875Z" transform="translate(-1756.27 -169.279)"/><path class="e" d="M1823.275,201.521a.656.656,0,0,1-1-.474c-1.383-11.088,4.27-13.9,5.338-19.518.943-4.956,2.389,6.5,4.784,9.533C1834.4,193.608,1826.032,199.639,1823.275,201.521Z" transform="translate(-1766.455 -172.192)"/><path class="e" d="M1846.274,227.427a.739.739,0,0,1-.754-1c4.4-11.776,11.5-11.635,15.5-16.676,3.524-4.45-1,7.721-.2,12C1861.492,225.338,1850,226.988,1846.274,227.427Z" transform="translate(-1772.645 -179.722)"/><path class="e" d="M1852.794,269.846a.568.568,0,0,1-.128-.951c7.4-6.217,12.095-3.439,16.672-5.3,4.039-1.646-3.59,4.787-4.668,7.953C1863.767,274.2,1855.457,270.961,1852.794,269.846Z" transform="translate(-1774.492 -194.135)"/><path class="e" d="M1854.909,297.44a.454.454,0,0,1-.327-.7c4.143-6.525,8.4-5.538,11.44-8.064,2.685-2.229-1.585,4.517-1.644,7.192C1864.329,298.115,1857.209,297.649,1854.909,297.44Z" transform="translate(-1775.033 -200.718)"/><path class="e" d="M1764.946,204.53a.609.609,0,0,0-.61-.831c-10.342.7-11.905,6.35-16.829,8.318-4.347,1.736,6.339,1.025,9.529,2.668C1759.71,216.064,1763.72,207.374,1764.946,204.53Z" transform="translate(-1746.482 -178.376)"/><path class="e" d="M1789.557,215.647a.657.657,0,0,0-.673-.884c-11.133.959-12.707,7.075-17.976,9.29-4.651,1.956,6.851.982,10.321,2.692C1784.137,228.178,1788.291,218.736,1789.557,215.647Z" transform="translate(-1752.649 -181.3)"/><path class="e" d="M1811.2,235.379a.738.738,0,0,0-.879-.887c-12.281,2.691-13.146,9.743-18.7,12.982-4.9,2.86,7.786.1,11.906,1.5C1806.976,250.148,1810.234,239.01,1811.2,235.379Z" transform="translate(-1758.117 -186.51)"/><path class="e" d="M1825.778,263.239a.568.568,0,0,0-.367-.888c-9.515-1.669-12.188,3.092-17.082,3.775-4.32.6,5.507,2.34,8.027,4.539C1818.468,272.509,1824.034,265.54,1825.778,263.239Z" transform="translate(-1762.541 -193.784)"/><path class="e" d="M1832.588,292.9a.454.454,0,0,0-.013-.768c-6.6-4.024-9.981-1.26-13.826-2.182-3.393-.814,3.417,3.353,4.651,5.727C1824.435,297.671,1830.617,294.108,1832.588,292.9Z" transform="translate(-1765.334 -201.145)"/><path class="e" d="M1768.446,194.41a.551.551,0,0,1-.458.811c-9.364.474-11.371-4.43-16-5.671-4.089-1.095,5.583-1.6,8.272-3.416C1762.511,184.611,1767.041,191.986,1768.446,194.41Z" transform="translate(-1747.673 -173.68)"/></g><g transform="translate(0 84.223)"><path class="d" d="M1789.213,283.841a19.75,19.75,0,0,1-1.833,5.739c-1.393,3.345-3.077,7.42-2.851,11.606a28.848,28.848,0,0,0-12.471-5.54c-.481-.087-.962-.119-1.443-.189-2.295-3.08-2.653-7.128-2.965-10.706a18.175,18.175,0,0,0-1.032-5.687.613.613,0,0,0-1.111.52,17.552,17.552,0,0,1,.92,5.275c.282,3.232.641,7.17,2.581,10.387a59.208,59.208,0,0,0-16.125.6.566.566,0,0,0-.323-.511c-3.254-1.553-5.283-4.78-7.074-7.628a16.85,16.85,0,0,0-3.263-4.256.569.569,0,0,0-.7.9,16.268,16.268,0,0,1,3,3.963c1.689,2.683,3.783,5.97,7.02,7.752-2.151.386-4.284.847-6.4,1.362a.549.549,0,0,0-.478.061c-.037.026-.068.057-.1.084-2.125.526-4.238,1.085-6.322,1.677,1.87-.365,3.737-.738,5.605-1.1-2.679,2.291-4.135,5.705-5.314,8.509a16.265,16.265,0,0,1-2.31,4.4.569.569,0,0,0,.834.775,16.825,16.825,0,0,0,2.526-4.731c1.3-3.1,2.781-6.616,5.739-8.678a.568.568,0,0,0,.235-.558c0-.013-.012-.024-.015-.038A85.443,85.443,0,0,1,1755,296.52q2.012-.185,4.034-.275c-2.626,2.509-4.044,6.056-5.211,8.978a17.561,17.561,0,0,1-2.4,4.784.613.613,0,0,0,.913.819,18.17,18.17,0,0,0,2.631-5.147c1.345-3.368,2.868-7.184,6.015-9.463.01-.007.011-.018.02-.025a45.6,45.6,0,0,1,10.727,1,28.271,28.271,0,0,1,3.673,1.069c-2.828,3.23-3.971,7.6-4.888,11.193a19.716,19.716,0,0,1-1.985,5.687.69.69,0,1,0,1.138.781c.992-1.449,1.545-3.617,2.185-6.125.965-3.771,2.07-8.006,4.926-10.994.915.38,1.817.786,2.692,1.24a31.607,31.607,0,0,1,6.635,4.885,55.957,55.957,0,0,1,4.84,5.544c-2.739,1.517-4.705,4.155-6.324,6.332a15.175,15.175,0,0,1-3.071,3.464.53.53,0,0,0,.581.887,15.646,15.646,0,0,0,3.34-3.717c1.669-2.244,3.541-4.746,6.15-6.118,1.683,2.215,3.287,4.519,4.917,6.814,1.8,2.486,3.661,4.96,5.629,7.353a18.334,18.334,0,0,0-6.079,2.776,12.171,12.171,0,0,1-3.3,1.683.424.424,0,1,0,.174.83,12.535,12.535,0,0,0,3.574-1.792c1.872-1.165,3.961-2.467,6.265-2.753,1.489,1.77,3.029,3.5,4.693,5.122a61.85,61.85,0,0,0,13.773,10.314c10.085,5.591,21.376,8.35,32.61,9.783a131.057,131.057,0,0,1-16.434-4.29,75.354,75.354,0,0,1-15.395-6.863,66.679,66.679,0,0,1-13.233-10.268c-.061-.061-.115-.128-.177-.189a.411.411,0,0,0,.061-.18c.1-2.686,1.716-5.027,3.139-7.094a12.541,12.541,0,0,0,1.953-3.489.424.424,0,1,0-.821-.211,12.133,12.133,0,0,1-1.831,3.219c-1.321,1.92-2.927,4.284-3.227,6.978a104.674,104.674,0,0,1-9.7-12.13l-.428-.592c1.214-2.966,3.878-5.062,6.255-6.914a15.679,15.679,0,0,0,3.641-3.423.53.53,0,1,0-.9-.561,15.175,15.175,0,0,1-3.394,3.147c-2.213,1.724-4.9,3.836-6.323,6.756a85.043,85.043,0,0,0-9.66-11.774c-.439-.413-.9-.808-1.361-1.2-.7-4.284,1.061-8.523,2.62-12.267,1-2.389,1.858-4.454,1.936-6.208a.69.69,0,1,0-1.378-.061Z" transform="translate(-1727.151 -273.818)"/><path class="e" d="M1748.445,294.1a.47.47,0,0,1-.67.427c-7.234-3.391-6.782-7.882-9.77-10.669-2.638-2.46,4.84,1.031,7.59.74C1747.9,284.351,1748.357,291.711,1748.445,294.1Z" transform="translate(-1727.517 -274.944)"/><path class="e" d="M1777.806,288.068a.506.506,0,0,1-.852.079c-5.265-6.813-2.619-10.9-4.112-15.041-1.318-3.657,4.131,3.373,6.911,4.448C1782.084,278.455,1778.9,285.737,1777.806,288.068Z" transform="translate(-1736.818 -272.06)"/><path class="e" d="M1804.164,294.749a.569.569,0,0,1-.891-.365c-1.7-9.538,3.068-12.23,3.74-17.14.593-4.333,2.362,5.516,4.572,8.038C1813.441,287.4,1806.467,292.995,1804.164,294.749Z" transform="translate(-1744.817 -273.143)"/><path class="e" d="M1823.583,320.16a.438.438,0,0,1-.458-.581c2.468-7.024,6.675-7.024,8.98-10.055,2.034-2.676-.5,4.583.022,7.106C1832.568,318.745,1825.786,319.856,1823.583,320.16Z" transform="translate(-1750.153 -281.807)"/><path class="e" d="M1836.2,338.427a.35.35,0,0,1-.49-.333c.189-5.953,3.4-6.968,4.427-9.836.906-2.532.719,3.618,1.73,5.416C1842.711,335.182,1837.8,337.664,1836.2,338.427Z" transform="translate(-1753.486 -286.754)"/><path class="e" d="M1740.129,311.257a.469.469,0,0,0-.73-.312c-6.585,4.523-5.407,8.881-7.9,12.118-2.2,2.856,4.608-1.806,7.368-1.967C1741.179,320.962,1740.432,313.626,1740.129,311.257Z" transform="translate(-1725.829 -282.316)"/><path class="e" d="M1760.962,308.807a.506.506,0,0,0-.793-.322c-7.009,5-5.655,9.676-8.282,13.212-2.318,3.121,4.93-2.035,7.9-2.262C1762.281,319.245,1761.333,311.353,1760.962,308.807Z" transform="translate(-1731.213 -281.662)"/><path class="e" d="M1783.605,313.29a.569.569,0,0,0-.931-.244c-7.091,6.6-4.9,11.618-7.314,15.946-2.131,3.819,5.2-2.989,8.486-3.674C1786.6,324.742,1784.391,316.076,1783.605,313.29Z" transform="translate(-1737.435 -282.852)"/><path class="e" d="M1802.881,326.41a.438.438,0,0,0-.592-.445c-6.966,2.624-6.872,6.83-9.851,9.2-2.629,2.094,4.571-.607,7.1-.137C1801.667,335.425,1802.626,328.619,1802.881,326.41Z" transform="translate(-1741.9 -286.299)"/><path class="e" d="M1818.411,344.367a.35.35,0,0,0-.31-.5c-5.957-.082-7.116,3.078-10.027,3.974-2.571.791,3.582.884,5.331,1.975C1814.872,350.727,1817.576,345.939,1818.411,344.367Z" transform="translate(-1746.019 -291.037)"/><path class="e" d="M1737.653,304.245a.425.425,0,0,1,.014.718c-6.026,3.986-9.281,1.52-12.84,2.513-3.142.878,3.077-3.25,4.149-5.51C1729.873,300.072,1735.77,303.187,1737.653,304.245Z" transform="translate(-1723.949 -279.806)"/></g><path class="f" d="M1893.479,307.049c-6.234-5.493-4.3,12.564-13.654,14.868s-12.246-15.211-4.307-19.621-.022-22.192-6.9-25.009-.69,19.613-8.22,19.472-7.568-4.293-6.857-9.761-6.4-15.158-12.565-12.347,4.572,14.554,8.842,21.976-3.92,6.909-11.434-3.225-33.078-23.332-41.6-19.036-10.152,9.461,2.644,20.635,29.937,8.939,40.767,14,5.533,14.011-8.863,9.106-32.054-10.575-40.009-4.216,6.013,17.763,26.106,14.159,30.007,1.151,34.976,9.1-7.954,5.362-18.463,5.488-6.977,11.915,7.47,10.979c24.761-3.783,25.439,8.686,38.173,2.226,10.8-5.478,2.534-22.62,10.9-27.009S1899.712,312.543,1893.479,307.049Zm-26.05-8.9a21.363,21.363,0,0,1,1.143-6.038c1.222-5.748,2.022-8.882,3.966-5.985s3.892,6.937,1.225,9.338S1867.524,300.571,1867.429,298.152Zm-56.53-6.141c-7.056.074-9.81-3.119-11.778-7.987s-.834-2.267,6.961-1.922,6.7,5.433,10.358,9.628S1810.9,292.011,1810.9,292.011Zm-4.8,30.874c-3.574,1.126-8.847-.887-11.092-2.487s4.088-5.291,10.828-2.989c0,0,8.178,2.737,8.363,3.657S1809.677,321.76,1806.1,322.885Zm40.547,26.266c-1.391,1.494-5.343,1.752-10.918.656s.718-3.626,6.548-2.918C1845.362,347.264,1848.041,347.657,1846.65,349.151Zm-2.487-66.114c-1.841-2.145-1.944-5.221,1.434-5.043s3.481,3.062,2.171,7.863A10.133,10.133,0,0,1,1844.163,283.036Zm26.975,59.834c-4.9,1.354-8.544-7.832-8.544-7.832-1.9-7.384-11.329-6.862-10.183-15.78s4.169-15.867,7.04-6.66c2.428,7.786,3,13.177,15.981,14.733C1885.244,328.508,1876.165,341.483,1871.138,342.87Zm22.941-23.564c-2.387,1.908-6.638,4.225-3.7-2.1,1.723-3.712,1.745-7.245,3.186-5.042S1896.466,317.4,1894.079,319.306Z" transform="translate(-1741.153 -188.226)"/></g><g transform="translate(89.226)"><path class="g" d="M1947.716,38.172a18.558,18.558,0,0,1-18.548,18.549h-62.68a8.265,8.265,0,0,1-.982-.039,21.231,21.231,0,0,1,.982-42.442,21.626,21.626,0,0,1,4.558.472,29.2,29.2,0,0,1,54.427,5.305,16.367,16.367,0,0,1,3.694-.394A18.583,18.583,0,0,1,1947.716,38.172Z" transform="translate(-1845.227 1.636)"/><g transform="translate(37.964 6.155)"><path class="h" d="M1898.795,14.325a1.964,1.964,0,0,1-1.108-3.586,22.887,22.887,0,0,1,12.99-4.009,1.965,1.965,0,0,1,0,3.93,18.992,18.992,0,0,0-10.772,3.321A1.952,1.952,0,0,1,1898.795,14.325Z" transform="translate(-1896.83 -6.73)"/></g><g transform="translate(30.93 14.316)"><path class="h" d="M1889.234,25.39a1.964,1.964,0,0,1-1.766-2.828,22.973,22.973,0,0,1,2.483-3.98,1.964,1.964,0,1,1,3.1,2.41,19.019,19.019,0,0,0-2.053,3.3A1.965,1.965,0,0,1,1889.234,25.39Z" transform="translate(-1887.269 -17.822)"/></g><path class="i" d="M1929.167,19.624a16.36,16.36,0,0,0-3.693.394,29.2,29.2,0,0,0-54.428-5.305,21.578,21.578,0,0,0-4.558-.472,21.232,21.232,0,0,0-.982,42.442,8.265,8.265,0,0,0,.982.039h62.68a18.549,18.549,0,0,0,0-37.1Z" transform="translate(-1845.227 1.636)"/></g><g transform="translate(303.584 115.528)"><path class="g" d="M2136.59,195.512a18.7,18.7,0,0,0,18.692,18.692h63.167a8.394,8.394,0,0,0,.99-.039,21.4,21.4,0,0,0-.99-42.772,21.755,21.755,0,0,0-4.594.475A29.428,29.428,0,0,0,2159,177.215a16.483,16.483,0,0,0-3.722-.4A18.727,18.727,0,0,0,2136.59,195.512Z" transform="translate(-2136.59 -155.394)"/><g transform="translate(49.091 6.203)"><path class="h" d="M2217.27,171.479a1.98,1.98,0,0,0,1.117-3.615,23.071,23.071,0,0,0-13.092-4.039,1.98,1.98,0,1,0,0,3.96,19.138,19.138,0,0,1,10.856,3.347A1.967,1.967,0,0,0,2217.27,171.479Z" transform="translate(-2203.316 -163.825)"/></g><g transform="translate(65.868 14.427)"><path class="h" d="M2230.386,182.63a1.959,1.959,0,0,0,.871-.2,1.982,1.982,0,0,0,.909-2.649,23.217,23.217,0,0,0-2.5-4.011,1.979,1.979,0,1,0-3.125,2.429,19.171,19.171,0,0,1,2.069,3.322A1.981,1.981,0,0,0,2230.386,182.63Z" transform="translate(-2226.121 -175.003)"/></g><path class="j" d="M2155.282,176.819a16.483,16.483,0,0,1,3.722.4,29.428,29.428,0,0,1,54.852-5.346,21.755,21.755,0,0,1,4.594-.475,21.4,21.4,0,0,1,.99,42.771,8.24,8.24,0,0,1-.99.04h-63.167a18.693,18.693,0,0,1,0-37.385Z" transform="translate(-2136.59 -155.394)"/></g><g transform="translate(219.33 42.245)"><path class="k" d="M2022.069,78.753l9.256,9.256a65.451,65.451,0,0,1,90.941-1.527l9.256-9.256A78.574,78.574,0,0,0,2022.069,78.753Z" transform="translate(-2022.069 -55.785)"/><g transform="translate(18.512 26.18)"><path class="k" d="M2047.231,106.67l9.256,9.256a39.249,39.249,0,0,1,53.87-1.481l9.3-9.3A52.421,52.421,0,0,0,2047.231,106.67Z" transform="translate(-2047.231 -91.37)"/></g><g transform="translate(37.024 52.343)"><path class="k" d="M2072.393,134.58l9.256,9.256a13.087,13.087,0,0,1,16.8-1.435l9.3-9.3A26.16,26.16,0,0,0,2072.393,134.58Z" transform="translate(-2072.393 -126.932)"/></g></g><g class="l" transform="translate(219.33 42.245)"><path class="m" d="M2022.069,78.753l9.256,9.256a65.451,65.451,0,0,1,90.941-1.527l9.256-9.256A78.574,78.574,0,0,0,2022.069,78.753Z" transform="translate(-2022.069 -55.785)"/><g transform="translate(18.512 26.18)"><path class="n" d="M2047.231,106.67l9.256,9.256a39.249,39.249,0,0,1,53.87-1.481l9.3-9.3A52.421,52.421,0,0,0,2047.231,106.67Z" transform="translate(-2047.231 -91.37)"/></g><g transform="translate(37.024 52.343)"><path class="o" d="M2072.393,134.58l9.256,9.256a13.087,13.087,0,0,1,16.8-1.435l9.3-9.3A26.16,26.16,0,0,0,2072.393,134.58Z" transform="translate(-2072.393 -126.932)"/></g></g><g transform="translate(119.674 236.542)"><path class="k" d="M2160.439,332.34l.092-.281-.209.109a22.587,22.587,0,0,0-19.914-12.288H1975.822a22.193,22.193,0,0,0-11.2,3.354l-.093-.363-58.282,29.26,71.154,21.219-2.018-7.914c.154,0,.28.088.435.088h123.3l-11.276,28.946,62.464-31.2.093-.288a22.66,22.66,0,0,0,12.821-20.275h0A22.267,22.267,0,0,0,2160.439,332.34Z" transform="translate(-1891.804 -319.88)"/><rect class="p" width="210.226" height="45.641" rx="22.821" transform="translate(0 30.648)"/><circle class="q" cx="4.852" cy="4.852" r="4.852" transform="translate(20.796 41.376)"/><circle class="q" cx="4.852" cy="4.852" r="4.852" transform="translate(37.909 41.376)"/><circle class="q" cx="4.852" cy="4.852" r="4.852" transform="translate(55.022 41.376)"/><g transform="translate(19.718 42.3)"><path class="g" d="M1923.12,382.228a4.852,4.852,0,1,1-4.853-4.852A4.853,4.853,0,0,1,1923.12,382.228Z" transform="translate(-1913.415 -377.376)"/><path class="g" d="M1946.38,382.228a4.852,4.852,0,1,1-4.852-4.852A4.852,4.852,0,0,1,1946.38,382.228Z" transform="translate(-1919.563 -377.376)"/><path class="g" d="M1969.641,382.228a4.852,4.852,0,1,1-4.853-4.852A4.853,4.853,0,0,1,1969.641,382.228Z" transform="translate(-1925.71 -377.376)"/></g><path class="q" d="M2109.653,406.7h-50.97a6.29,6.29,0,0,1-6.29-6.289h0a6.29,6.29,0,0,1,6.29-6.29h50.97a6.289,6.289,0,0,1,6.289,6.29h0A6.289,6.289,0,0,1,2109.653,406.7Z" transform="translate(-1930.428 -339.502)"/><path class="r" d="M2155.249,332.34l.092-.281-.209.108a22.586,22.586,0,0,0-19.914-12.286H1970.632a22.19,22.19,0,0,0-11.2,3.353l-.093-.363-58.281,29.26.055.017a22.792,22.792,0,0,0,8.319,44.022h164.584a22.713,22.713,0,0,0,8.65-1.721l-.007.02.094-.047c.274-.114.521-.27.79-.394l61.579-30.763.093-.288a22.66,22.66,0,0,0,12.821-20.274v0A22.261,22.261,0,0,0,2155.249,332.34Z" transform="translate(-1886.614 -319.88)"/></g><g transform="translate(326.186 78.628)"><path class="s" d="M2221.638,201.21l-28.225,60.528a13.678,13.678,0,1,1-24.792-11.561l28.224-60.527a13.678,13.678,0,0,1,10.587-7.877l33.715-72.3a7.336,7.336,0,0,1,9.749-3.548,7.241,7.241,0,0,1,3.548,9.748l-33.714,72.3A13.812,13.812,0,0,1,2221.638,201.21Z" transform="translate(-2167.312 -105.237)"/><path class="t" d="M2221.638,201.21l-28.225,60.528a13.678,13.678,0,1,1-24.792-11.561l28.224-60.527a13.678,13.678,0,0,1,10.587-7.877l33.715-72.3a7.336,7.336,0,0,1,9.749-3.548,7.241,7.241,0,0,1,3.548,9.748l-33.714,72.3A13.812,13.812,0,0,1,2221.638,201.21Z" transform="translate(-2167.312 -105.237)"/></g><g transform="translate(149.097 78.628)"><path class="s" d="M1960.126,201.21l28.224,60.528a13.678,13.678,0,1,0,24.793-11.561l-28.225-60.527a13.675,13.675,0,0,0-10.586-7.877l-33.715-72.3a7.337,7.337,0,0,0-9.749-3.548,7.242,7.242,0,0,0-3.548,9.748l33.715,72.3A13.81,13.81,0,0,0,1960.126,201.21Z" transform="translate(-1926.606 -105.237)"/><path class="t" d="M1960.126,201.21l28.224,60.528a13.678,13.678,0,1,0,24.793-11.561l-28.225-60.527a13.675,13.675,0,0,0-10.586-7.877l-33.715-72.3a7.337,7.337,0,0,0-9.749-3.548,7.242,7.242,0,0,0-3.548,9.748l33.715,72.3A13.81,13.81,0,0,0,1960.126,201.21Z" transform="translate(-1926.606 -105.237)"/></g><g transform="translate(107.832 133.163)"><g class="u" transform="translate(23.838 103.396)"><path d="M1974.979,319.9a21.793,21.793,0,0,0-11.212,3.386l-.117-.466-57.228,28.731v.117l-.117.116a5.1,5.1,0,0,1-.116.584c-.117.584-.234,1.051-.351,1.635l-2.92,39.358a22.41,22.41,0,0,0,10.861,2.8h.818c3.27-12.147,7.241-28.147,8.876-38.658,0-.234.117-.351.117-.585,3.62-1.985,7.007-3.62,10.161-5.254a18.86,18.86,0,0,0-3.271,7.941l-.116,2.92v.233l-.234,6.657v1.753l-.818,24.993h12.847c1.868-8.175,3.737-17.285,5.022-25.11.116-.467.116-.934.233-1.4.233-1.635.467-3.27.7-4.789q.175-1.225.351-2.452v-.234c.349-.234.583-.583,1.051-.7,8.993-5.256,17.051-5.139,21.724-10.978,2.919-3.387,4.437-8.993,4.321-19.154.35-.233.7-.467.7-.7.116-1.168.116-2.569.116-3.97,2.452-2.22,5.022-4.555,7.242-6.774Z" transform="translate(-1902.918 -319.902)"/></g><path class="v" d="M1928.05,431.049s-.019,3.321-1.166,4.327,9.814,1.718,9.814,1.718-1.882-3.106-.361-5.177S1928.05,431.049,1928.05,431.049Z" transform="translate(-1885.392 -245.79)"/><path class="w" d="M1908.894,446.641l24.291-2.12c1.5-2.34,1.088-4.622-.807-6.857a25.223,25.223,0,0,1-11.138-.471c-2.905,2.532-7.429,4.711-12.665,6.734C1906.909,444.706,1907.342,445.634,1908.894,446.641Z" transform="translate(-1880.295 -247.505)"/><path class="x" d="M1933.826,448.046,1909.5,450.17l-.106-.9,24.33-2.124Z" transform="translate(-1880.792 -250.137)"/><path class="y" d="M1952.886,324.033c-5.358,6.295-22.262,15.435-23.594,27.438l-1.736,52.265a31.713,31.713,0,0,0,9.215,1.09c3.247-11.331,8.771-36.482,10.432-50.891,14.789-9.177,27.658-3.05,27.089-31Z" transform="translate(-1885.592 -217.309)"/><path class="v" d="M1891.647,423.272s-.152,3.319-1.337,4.289,9.739,2.009,9.739,2.009-1.756-3.161-.154-5.185S1891.647,423.272,1891.647,423.272Z" transform="translate(-1875.725 -243.772)"/><path class="w" d="M1871.836,438.368l24.361-1.4c1.591-2.294,1.273-4.586-.532-6.877a25.185,25.185,0,0,1-11.112-.8c-3.005,2.444-7.613,4.487-12.927,6.354C1869.929,436.375,1870.325,437.316,1871.836,438.368Z" transform="translate(-1870.517 -245.417)"/><path class="x" d="M1896.78,440.624l-24.4,1.4-.07-.9,24.4-1.4Z" transform="translate(-1870.991 -248.174)"/><path class="y" d="M1919.654,317.654c-5.607,6.132-22.867,14.765-24.676,26.721l-3.824,52.182a31.57,31.57,0,0,0,9.166,1.363c3.7-11.228,10.224-36.2,12.459-50.551,15.148-8.733,28.621-10.838,28.789-29.275Z" transform="translate(-1875.972 -215.912)"/><path class="z" d="M1934.864,299.272c.784,3.108,40.532,1.053,41.156-2.314.811-17.7-2.459-61.77-4.841-67.581-3.3-.854-11.485-1.568-14.756-2.008l-.039-.021a74.988,74.988,0,0,0-16.036-.769,69.019,69.019,0,0,0-9.187,1.19c.293,6.434.361,12.156.329,17.453-.005,1.438-.02,2.845-.082,4.2C1931.29,256.74,1933.294,288.467,1934.864,299.272Z" transform="translate(-1886.545 -191.806)"/><path class="aa" d="M1957.252,212.578c-.631,3.564-.246,6.8,2.433,11.091,2.821.984-2.627,7.533-8.468,7.189a8.957,8.957,0,0,1-7.586-7.94c2.86-1.288,2.27-4.952,2.2-8.261Z" transform="translate(-1889.841 -188.142)"/><path class="v" d="M1959.312,208.478c-3.751,2.9-12.758,6-15.456,4.857-4.827-1.428-6.362-21.93-1.113-26.879l14.43,3.313,6.462,9.764C1962.643,203.233,1962.181,206.416,1959.312,208.478Z" transform="translate(-1888.738 -181.238)"/><path class="ab" d="M1959.312,208.478c-3.751,2.9-12.758,6-15.456,4.857-4.827-1.428-6.362-21.93-1.113-26.879l14.43,3.313,6.462,9.764C1962.643,203.233,1962.181,206.416,1959.312,208.478Z" transform="translate(-1888.738 -181.238)"/><path class="w" d="M1953.421,193.133c-6.892,1.324-8.761-1.967-12.6-.93-1.329.689-.916,2.792-1.866,4.005-2.105-4.713-2.386-10.493,2.526-13.959,3.166-1.777,8.892-4.4,14.556-1.777,8.5,4.11,8.962,10.9,7.088,17.186,6.229,15.448,5.519,17.338-6.82,26.406-17.756,13.049,1.49-11.118-1.153-20.482,1.137-.18,1.619-1.449,1.6-2.5.162-1.368.651-2.273-.662-2.9-.458-.165-2.118.311-2.929,2.253C1952.095,198.551,1952.687,195.719,1953.421,193.133Z" transform="translate(-1888.224 -179.363)"/><path class="z" d="M1916.989,270.485c-.578-16.665,1.488-39.638,8.587-42.238l4.135,19.473-3.049,29.843-7.288,29.086-9.345-2.252C1912.266,296.447,1917.121,274.3,1916.989,270.485Z" transform="translate(-1880.96 -192.283)"/><path class="ac" d="M1954.8,339.757l11.711-11.64a1.108,1.108,0,0,0-.7-1.9c-7.874-.465-31.93-1.883-32.2-1.883-.325,0-8.118,12.177-8.118,12.177Z" transform="translate(-1885.047 -217.677)"/><path class="ad" d="M1911.648,329.605l35.274,4.341c1.858.228,2.868-1.235,2.257-3.268l-6.227-20.715a6.038,6.038,0,0,0-4.47-4.1l-35.274-4.34c-1.858-.229-2.868,1.234-2.257,3.267l6.227,20.715A6.039,6.039,0,0,0,1911.648,329.605Z" transform="translate(-1878.513 -211.644)"/><path class="z" d="M1981.323,230.431c6.573,0,22.057,34.972,22.112,41.264.082,9.435-17.9,22.015-27.807,32.405l-6.085-3.874,21.242-28.632-16.68-27.542Z" transform="translate(-1896.689 -192.86)"/><path class="v" d="M1967.915,325.3l-2.8,1.309-1.731,2.565,1.386,4.61h2.328l3.32-3.488,3.584-1.122Z" transform="translate(-1895.061 -217.933)"/><path class="ae" d="M1967.915,325.3l-2.8,1.309-1.731,2.565,1.386,4.61h2.328l3.32-3.488,3.584-1.122Z" transform="translate(-1895.061 -217.933)"/></g><g transform="translate(231.41 133.163)"><path class="af" d="M2160.886,367.436c-5.84-1.168-11.1-2.57-14.717-4.788a3.841,3.841,0,0,0-.7.35,12.881,12.881,0,0,1-.818-1.869l.818-.234c-1.519-12.5-2.57-28.38-4.555-40.994h-14.949c.349,7.825,4.671,26.4,8.643,42.746l.934-.117c.233,1.519.467,2.8.467,3.269-.117,0-.234.117-.351.117a1.484,1.484,0,0,0-.7.117c-1.167,3.037-.933,5.839,1.168,8.176l.117,1.168.584-.117,24.643-3.5-.117-1.052C2162.637,369.072,2162.754,367.9,2160.886,367.436Zm-122.4-47.534c1.051,7.007,2.452,12.03,2.686,15.183.234,0,.467.117.7.117.117,5.722,1.985,10.978,6.423,13.314a30.458,30.458,0,0,0,6.774,1.986,70.818,70.818,0,0,0,19.271,0c7.475-.818,15.533-2.453,23.592-4.088l-1.869,4.088-7.007,15.066-4.087,8.993-5.722,12.5-.351.7.234.117a15.061,15.061,0,0,1-2.1,2.8,5.018,5.018,0,0,0-.818-.583c-2.919,1.051-4.672,3.036-4.905,6.073h15.183c0-.117-.116-.351-.116-.468-.234,0-.467-.232-.7-.232a17.953,17.953,0,0,1,.934-2.22l.35.233c1.519-2.1,3.036-4.2,4.672-6.423,2.8-4.087,5.605-8.292,8.525-12.5,1.986-3.036,3.972-6.073,5.84-8.993,3.386-5.372,6.54-10.628,8.876-15.066,3.737-7.008,5.84-12.38,4.905-14.482s-5.489-4.088-12.381-5.956a76.755,76.755,0,0,0,16.7-10.161Z" transform="translate(-2038.488 -216.506)"/><g transform="translate(38.046 161.765)"><path class="v" d="M2111.311,403.092l-1.893,2.315s-.076.03-.167.241l-.023.053a13.967,13.967,0,0,0-2.07,3.872,2.734,2.734,0,0,0-.1,1.088c.2,1.847-10.181-4.892-10.181-4.892a7.033,7.033,0,0,0,1.625-.986c.647-.472,2.037-2.5,4-5.544Z" transform="translate(-2091.965 -399.24)"/><g transform="translate(0 4.892)"><path class="g" d="M2111.261,428.057l-20.108-15.58c.174-3.228,2-5.341,5.105-6.588a22.766,22.766,0,0,0,10.145,5.664c.946,4.2,3.547,8.932,6.878,13.9C2114.256,427.169,2113.279,427.881,2111.261,428.057Z" transform="translate(-2090.453 -405.889)"/><rect class="s" width="25.478" height="1.091" transform="matrix(-0.79, -0.612, 0.612, -0.79, 20.14, 23.031)"/></g></g><g transform="translate(101.824 132.147)"><path class="v" d="M2186.533,358.982l.344,2.97s-.031.075.056.288l.022.053a14,14,0,0,0,1.339,4.182,2.738,2.738,0,0,0,.713.828c1.463,1.143-10.6,3.9-10.6,3.9a7.033,7.033,0,0,0,.424-1.853c.112-.792-.379-3.206-1.2-6.728Z" transform="translate(-2177.086 -358.982)"/><g transform="translate(0 7.103)"><path class="g" d="M2204.015,376.641l-25.183,3.587c-2.2-2.372-2.443-5.153-1.176-8.251a22.766,22.766,0,0,0,11.129-3.339c3.674,2.245,8.882,3.672,14.765,4.737C2205.461,373.872,2205.293,375.07,2204.015,376.641Z" transform="translate(-2176.89 -368.637)"/><rect class="s" width="25.478" height="1.091" transform="translate(27.278 9.083) rotate(171.894)"/></g></g><path class="ag" d="M2160.976,344.026l-.891.141L2151,345.608l-.031-.007-.929.166c-4.186-17.57-8.88-37.387-8.754-44.24-5.212,4.777-11.569,8.4-18.4,11.665-3.969,1.923-8.067,3.693-12.2,5.486l-29.388-5.8-7.3-1.432c3.415-1.554,6.911-3.189,10.411-4.853,3.47-1.671,6.978-3.367,10.448-5.038,14.042-6.845,27.8-13.555,38.321-17.043.9-.332,1.783-.6,2.633-.848l.031.007a41.018,41.018,0,0,1,4.282-1.093c4.11-.871,7.37-.857,9.467.331a3.4,3.4,0,0,1,.94.733,13.121,13.121,0,0,1,2.809,5.138,56.776,56.776,0,0,1,1.908,7.389c.1.436.2.9.275,1.335C2157.992,310.572,2159.224,329.63,2160.976,344.026Z" transform="translate(-2047.874 -206.481)"/><path class="s" d="M2088.408,378.8l8.025,5.752c15.385-21.428,35.359-51.745,32.748-57.569-2.732-6.588-43.353-12.188-74.663-14.976-4.565,9.126-4.924,23.378,3.209,27.474,12.276,5.343,30.859,1.8,49.626-2Z" transform="translate(-2041.874 -214.42)"/><path class="d" d="M2087.469,286.167a16.6,16.6,0,0,1-4.376,4.273,55.391,55.391,0,0,1-9.476,5.457c-7.691,3.576-17.013,6.185-24.012,5.357a4.65,4.65,0,0,1-.658-.068c-.673-7.492-7.38-24.45-1.8-54.361l.006-.031c.1-.652.235-1.328.371-2a171.13,171.13,0,0,1,6.927-24.491l.006-.031.012-.062a59.956,59.956,0,0,1,8.718-1.994,40.667,40.667,0,0,1,11.269-.2,33,33,0,0,1,8.685,2.317,84.418,84.418,0,0,1,5.241,21.717c.037.3.055.523.067.781l-.006.031a60.906,60.906,0,0,1,.038,9.861c-.149,2.5-.4,4.878-.712,7.215-.117.9-.241,1.839-.389,2.738-.136,1.316-.3,2.626-.476,3.967a60.6,60.6,0,0,0,.273,17.938C2087.266,285.1,2087.353,285.632,2087.469,286.167Z" transform="translate(-2040.195 -189.497)"/><path class="v" d="M2164.062,277.5a6.613,6.613,0,0,1-1.051,3.621,3.449,3.449,0,0,1-1.752-.934,3.206,3.206,0,0,0-.818-1.051c-.7-2.1-3.62-5.723-5.255-7.475-4.556-1.4-34.1-9.694-36.673-11.095-2.219-1.168-12.964-10.629-14.132-11.913l1.285-1.051a36.749,36.749,0,0,1-3.5-4.554l-5.255-21.724.35.351c.234.233.467.349.7.583.468.468,1.168,1.168,1.986,1.869l1.168,1.168.117.117c3.738,3.854,7.591,7.941,11.445,12.38.233.234.467.583.7.817q3.855,4.555,8.059,9.461l.35.349c0,.117.116.234.233.351.234.234.468.584.7.817a20.606,20.606,0,0,0,1.4,1.635l1.635.817.7.351.468.234,1.986.934,27.913,13.315c2.452-.117,6.19,3.27,6.891,6.073A11.521,11.521,0,0,1,2164.062,277.5Z" transform="translate(-2053.928 -190.452)"/><path class="ah" d="M2164.062,277.5a6.613,6.613,0,0,1-1.051,3.621,3.449,3.449,0,0,1-1.752-.934,3.206,3.206,0,0,0-.818-1.051c-.7-2.1-3.62-5.723-5.255-7.475-4.556-1.4-34.1-9.694-36.673-11.095-2.219-1.168-12.964-10.629-14.132-11.913l1.285-1.051a36.749,36.749,0,0,1-3.5-4.554l-5.255-21.724.35.351c.234.233.467.349.7.583.468.468,1.168,1.168,1.986,1.869l1.168,1.168.117.117c3.738,3.854,7.591,7.941,11.445,12.38.233.234.467.583.7.817q3.855,4.555,8.059,9.461l.35.349c0,.117.116.234.233.351.234.234.468.584.7.817a20.606,20.606,0,0,0,1.4,1.635l1.635.817.7.351.468.234,1.986.934,27.913,13.315c2.452-.117,6.19,3.27,6.891,6.073A11.521,11.521,0,0,1,2164.062,277.5Z" transform="translate(-2053.928 -190.452)"/><path class="aa" d="M2068.451,214.694c-5.385,6.19,20.1,10.528,13.474,1.246-.3-2.751.31-1.7,2.191-3.435l-10.649-8.06C2073.26,208.264,2071.6,212.426,2068.451,214.694Z" transform="translate(-2046.208 -185.992)"/><path class="ai" d="M2068.451,214.694c-5.385,6.19,20.1,10.528,13.474,1.246-.3-2.751.31-1.7,2.191-3.435l-10.649-8.06C2073.26,208.264,2071.6,212.426,2068.451,214.694Z" transform="translate(-2046.208 -185.992)"/><path class="v" d="M2074.458,198.287c2.751,4.582,5.971,9.554,8.9,10.54,5.911,1.8,13.789-13.71,14.375-21.486a26.739,26.739,0,0,0-12.778-7.682l-11.311,7.792Z" transform="translate(-2047.779 -179.441)"/><path class="aj" d="M2074.458,198.287c2.751,4.582,5.971,9.554,8.9,10.54,5.911,1.8,13.789-13.71,14.375-21.486a26.739,26.739,0,0,0-12.778-7.682l-11.311,7.792Z" transform="translate(-2047.779 -179.441)"/><g transform="translate(64.934 44.392)"><path class="ak" d="M2127.611,266.563c0-.012-.806-.806-.806-.806l1.5-.661Z" transform="translate(-2126.764 -246.413)"/><path class="ak" d="M2150.468,239.772l.794.812-1.445.663Z" transform="translate(-2132.846 -239.72)"/><path class="ak" d="M2127.134,259.1l5.756-1.689a3.889,3.889,0,0,0,1.668-1.517l9.575-15.16c.439-.7.406-1.146-.076-1l-5.755,1.69a3.892,3.892,0,0,0-1.669,1.517l-9.576,15.16C2126.618,258.791,2126.652,259.241,2127.134,259.1Z" transform="translate(-2126.749 -239.702)"/><path class="ag" d="M2128.223,260.2l5.755-1.689a3.9,3.9,0,0,0,1.669-1.517l9.575-15.161c.44-.7.406-1.146-.076-1l-5.755,1.689a3.9,3.9,0,0,0-1.668,1.517l-9.575,15.16C2127.706,259.893,2127.741,260.342,2128.223,260.2Z" transform="translate(-2127.037 -239.993)"/><path class="d" d="M2143.11,245.212l1.8-.53a1.8,1.8,0,0,0,.769-.7h0c.2-.321.187-.528-.035-.464l-1.8.53a1.8,1.8,0,0,0-.769.7h0C2142.872,245.07,2142.888,245.277,2143.11,245.212Z" transform="translate(-2131.026 -240.707)"/></g><path class="w" d="M2084.794,188.156c3.635,3.973,7.251,7.555,10.669,7.131,3.086-2.346,5.056-5.788,6.2-10.038-4.725.336-8.648-.46-10.521-4.15a22.071,22.071,0,0,0-11.635-1.545c-4.254,1.877-7.157,5.491-9.234,10.168-.86,4.19.249,8.636,2.049,13.173,2.058.077,3.785-.23,4.571-1.626-.792-3-.945-4.97-.138-7.005a4.1,4.1,0,0,1,2.6-2.26,5.476,5.476,0,0,1,.988,3.743A12.184,12.184,0,0,0,2084.794,188.156Z" transform="translate(-2046.81 -179.363)"/><path class="v" d="M2117.744,247.556a19,19,0,0,1-3.62,8.175l-4.555.234h-.117c-23.124,11.679-47.883,16.234-51.972,14.716-6.073-5.022-7.942-12.03-9.577-20.088,0,0,.934.116.934,0-.35-1.519-.584-3.153-.934-4.906-.467-2.1-.818-4.2-1.285-6.423a9.342,9.342,0,0,0-.35-1.752,44.059,44.059,0,0,1,1.868-8.642c0-.117,0-.117.117-.234a11.4,11.4,0,0,1,5.022-6.54,6.659,6.659,0,0,1,1.519-.934l.116.467.117.233c.817,3.27,4.321,17.285,6.89,27.329a32.987,32.987,0,0,0,3.972,9.694l22.89-5.256,7.358-1.985,11.563-3.037a17.714,17.714,0,0,0,2.1-4.2,1.436,1.436,0,0,1,1.635.584,3.52,3.52,0,0,1-.584,2.453l3.154-1.635C2115.408,245.337,2116.575,246.272,2117.744,247.556Z" transform="translate(-2040.544 -190.41)"/><path class="al" d="M2117.744,247.556a19,19,0,0,1-3.62,8.175l-4.555.234h-.117c-23.124,11.679-47.883,16.234-51.972,14.716-6.073-5.022-7.942-12.03-9.577-20.088,0,0,.934.116.934,0-.35-1.519-.584-3.153-.934-4.906-.467-2.1-.818-4.2-1.285-6.423a9.342,9.342,0,0,0-.35-1.752,44.059,44.059,0,0,1,1.868-8.642c0-.117,0-.117.117-.234a11.4,11.4,0,0,1,5.022-6.54,6.659,6.659,0,0,1,1.519-.934l.116.467.117.233c.817,3.27,4.321,17.285,6.89,27.329a32.987,32.987,0,0,0,3.972,9.694l22.89-5.256,7.358-1.985,11.563-3.037a17.714,17.714,0,0,0,2.1-4.2,1.436,1.436,0,0,1,1.635.584,3.52,3.52,0,0,1-.584,2.453l3.154-1.635C2115.408,245.337,2116.575,246.272,2117.744,247.556Z" transform="translate(-2040.544 -190.41)"/><path class="d" d="M2104.4,249.637s9.736-9.805,9.042-11.67-16.556-16.7-16.556-16.7l3.5,23.27A48.421,48.421,0,0,0,2104.4,249.637Z" transform="translate(-2053.921 -190.439)"/><path class="d" d="M2062.438,248.93c-.283.1-.566.2-.9.294-3.54,1.13-13.234,1.3-15.57,1.413a71.539,71.539,0,0,1-1.022-14.116,17.832,17.832,0,0,1,9.5-15.384l.121.444Z" transform="translate(-2040.195 -190.403)"/></g></g></g></svg>